<?xml version="1.0" encoding="UTF-8"?>
<svg id="Layer_2_copy" data-name="Layer 2 copy" xmlns="http://www.w3.org/2000/svg" viewBox="0 0 515.97 92.8" fill="currentColor">
  <defs>
    <style>
      .cls-1 {
        stroke-width: 0px;
      }
    </style>
  </defs>
  <path fill="currentColor" class="cls-1" d="M194.51,63.32h-33.65l16.95-47.56,16.7,47.56ZM214.75,92.04L181.73,1.97h-8.1l-33.15,90.07h10.25l7.21-20.37h39.34l7.21,20.37h10.25ZM304.33,92.04V1.97h-9.61l-28.59,63.89L236.78,1.97h-9.62v90.07h9.62V23.6l25.05,54.27h8.22l24.67-54.27v68.44h9.61ZM395.71,92.04l-32.39-55.28L391.66,1.97h-11.77l-42,51.74V1.97h-9.62v90.07h9.62v-25.17l18.98-22.77,27.45,47.94h11.39ZM131.24,60.68v-4.54c0-20.13-10.34-32.81-27.84-32.81s-27.84,12.82-27.84,34.73c0,23.98,11.71,34.73,29.63,34.73,11.58,0,17.92-3.58,24.81-10.48l-6.75-5.93c-5.38,5.38-9.92,7.72-17.78,7.72-12.96,0-19.99-8.55-19.99-23.43h45.76ZM121.32,53.24h-35.84c.28-5.51.55-7.58,2.07-11.3,2.62-6.2,8.68-10.2,15.85-10.2s13.23,3.99,15.85,10.2c1.52,3.73,1.79,5.79,2.07,11.3ZM61.99,67.24c0-7.47-2.66-13.66-7.59-17.84-3.8-3.29-7.97-5.06-16.45-6.32l-9.87-1.52c-4.68-.76-9.36-2.53-12.15-4.93-2.78-2.4-4.05-5.95-4.05-10.37,0-9.99,6.96-16.7,18.97-16.7,9.49,0,15.44,2.66,21,7.72l6.2-6.2C50.35,4.12,42.76,1.21,31.25,1.21,13.41,1.21,2.41,11.33,2.41,26.64c0,7.21,2.28,12.77,6.83,16.82,3.92,3.42,9.49,5.69,16.57,6.83l10.5,1.64c6.58,1.01,8.86,1.77,11.77,4.3,2.91,2.53,4.3,6.58,4.3,11.26,0,10.5-8.09,16.7-21.25,16.7-10.12,0-17.08-2.41-24.54-9.87l-6.58,6.58c8.48,8.47,17.33,11.89,30.87,11.89,18.73,0,31.12-9.74,31.12-25.56Z"/>
  <g>
    <path fill="currentColor" class="cls-1" d="M410.83,70.28C416.69,34.53,453.44,1.14,495.53,0c-7.25.66-14.26,3.09-20.39,6.95-25.31,18.04-30.32,52.25-54.43,71.43-2.37,1.89-5.05,3.4-7.8,4.71-2.25-3.68-2.74-8.85-2.09-12.82Z"/>
    <path fill="currentColor" class="cls-1" d="M428.47,92c-4.13,0-7.94-1.39-10.99-3.73,6.66-.78,12.8-3.89,18.17-7.77,24.11-19.18,29.11-53.41,54.42-71.45,7.67-4.83,16.73-7.42,25.9-7.11v43.25c0,24.81-21.09,46.81-41.06,46.81h-46.44Z"/>
  </g>
</svg>