<svg width="18" height="19" viewBox="0 0 18 19" fill="none" xmlns="http://www.w3.org/2000/svg">
<g clip-path="url(#clip0_7970_10017)">
<path d="M9 9.875C8.30381 9.875 7.63613 10.1516 7.14384 10.6438C6.65156 11.1361 6.375 11.8038 6.375 12.5C6.375 13.1962 6.65156 13.8639 7.14384 14.3562C7.63613 14.8484 8.30381 15.125 9 15.125C9.69619 15.125 10.3639 14.8484 10.8562 14.3562C11.3484 13.8639 11.625 13.1962 11.625 12.5C11.625 11.8038 11.3484 11.1361 10.8562 10.6438C10.3639 10.1516 9.69619 9.875 9 9.875ZM7.875 12.5C7.875 12.2016 7.99353 11.9155 8.2045 11.7045C8.41548 11.4935 8.70163 11.375 9 11.375C9.29837 11.375 9.58452 11.4935 9.7955 11.7045C10.0065 11.9155 10.125 12.2016 10.125 12.5C10.125 12.7984 10.0065 13.0845 9.7955 13.2955C9.58452 13.5065 9.29837 13.625 9 13.625C8.70163 13.625 8.41548 13.5065 8.2045 13.2955C7.99353 13.0845 7.875 12.7984 7.875 12.5Z" fill="#1DB459"/>
<path d="M13.1445 4.33494L10.7603 0.992188L1.9935 7.99569L1.5075 7.99044V7.99794H1.125V16.9979H16.875V7.99794H16.1535L14.718 3.79869L13.1445 4.33494ZM14.5687 7.99794H7.04775L12.6495 6.08844L13.791 5.72319L14.5687 7.99794ZM11.6625 4.84044L5.88 6.81144L10.4595 3.15294L11.6625 4.84044ZM2.625 14.1247V10.8697C2.94163 10.7579 3.22924 10.5767 3.46673 10.3394C3.70422 10.102 3.88558 9.81451 3.9975 9.49794H14.0025C14.1143 9.81465 14.2956 10.1023 14.5331 10.3398C14.7706 10.5773 15.0583 10.7586 15.375 10.8704V14.1254C15.0583 14.2373 14.7706 14.4186 14.5331 14.6561C14.2956 14.8936 14.1143 15.1812 14.0025 15.4979H3.999C3.88664 15.1812 3.70497 14.8935 3.46726 14.656C3.22956 14.4184 2.9418 14.2369 2.625 14.1247Z" fill="#E98862"/>
</g>
<defs>
<clipPath id="clip0_7970_10017">
<rect width="18" height="18" fill="white" transform="translate(0 0.5)"/>
</clipPath>
</defs>
</svg>
