<svg width="18" height="19" viewBox="0 0 18 19" fill="none" xmlns="http://www.w3.org/2000/svg">
<path fill-rule="evenodd" clip-rule="evenodd" d="M2.625 11.7343V13.268C2.625 13.7975 2.8305 14.2948 3.20475 14.669C3.579 15.0433 4.077 15.2495 4.60575 15.2495H13.3927C14.4847 15.2495 15.3743 14.3615 15.375 13.2695V11.7335C14.4105 11.4838 13.6958 10.6055 13.695 9.56376C13.695 8.52201 14.4097 7.64375 15.3743 7.39325L15.375 5.8595C15.3757 4.766 14.4885 3.87575 13.3958 3.875H4.608C3.51525 3.875 2.62575 4.76375 2.625 5.8565V7.44425C2.9895 7.53125 3.32775 7.7105 3.609 7.973C4.03575 8.37126 4.28175 8.91126 4.30275 9.49476C4.305 10.5943 3.59025 11.4823 2.625 11.7343ZM13.3927 16.3745H4.6065C3.77625 16.3745 2.99625 16.052 2.409 15.4648C1.8225 14.8775 1.5 14.0975 1.5 13.268V11.243C1.5 10.9325 1.752 10.6805 2.0625 10.6805C2.6805 10.6798 3.18 10.1788 3.17925 9.56376C3.16875 9.25026 3.04875 8.98926 2.84175 8.79576C2.6355 8.60226 2.3685 8.49651 2.082 8.51226C1.92675 8.51376 1.78125 8.46051 1.67175 8.35476C1.56225 8.24901 1.5 8.10201 1.5 7.94975V5.85725C1.50075 4.1435 2.895 2.75 4.608 2.75H13.392C15.1095 2.75075 16.5015 4.14725 16.5 5.86025V7.8845C16.5 8.19501 16.248 8.44701 15.9375 8.44701C15.3217 8.44701 14.82 8.94801 14.82 9.56301C14.8208 10.1795 15.3217 10.6805 15.9375 10.6805C16.248 10.6805 16.5 10.9325 16.5 11.243V13.268C16.4993 14.981 15.105 16.3745 13.3927 16.3745Z" fill="#367CFF"/>
<path fill-rule="evenodd" clip-rule="evenodd" d="M7.57858 9.03674L7.96033 9.40873C8.16733 9.61198 8.26108 9.90148 8.21158 10.1842L8.12158 10.7077L8.59333 10.4595C8.84758 10.3237 9.15283 10.3245 9.40933 10.461L9.87808 10.707L9.78808 10.1827C9.74083 9.89549 9.83533 9.60823 10.0401 9.40873L10.4218 9.03674L9.89308 8.96024C9.60958 8.91899 9.36358 8.74049 9.23683 8.48174L9.00058 8.00399L8.76433 8.48249C8.63758 8.74049 8.39158 8.91899 8.10658 8.96024L7.57858 9.03674ZM10.2141 12.0412C10.0746 12.0412 9.93508 12.0075 9.80608 11.9392L9.00058 11.517L8.19433 11.94C7.89733 12.0952 7.54408 12.0705 7.2741 11.874C7.00335 11.6767 6.8706 11.3497 6.92685 11.0197L7.0806 10.1227L6.42885 9.48749C6.1896 9.25424 6.1041 8.91148 6.20685 8.59348C6.31035 8.27473 6.58035 8.04599 6.9111 7.998L7.81408 7.866L8.21683 7.04925C8.36458 6.74925 8.66458 6.5625 9.00058 6.5625C9.33508 6.5625 9.63583 6.74925 9.78358 7.05L10.1871 7.866L11.0886 7.998C11.4201 8.04599 11.6908 8.27473 11.7936 8.59348C11.8963 8.91148 11.8116 9.25423 11.5716 9.48823L10.9191 10.1235L11.0736 11.0197C11.1298 11.3505 10.9963 11.6782 10.7248 11.8747C10.5718 11.985 10.3933 12.0412 10.2141 12.0412Z" fill="#367CFF"/>
</svg>
