<svg width="24" height="24" viewBox="0 0 24 24" fill="none" xmlns="http://www.w3.org/2000/svg">
<path d="M8.99023 5.9845L15.8917 2L18.1977 5.9945L8.99023 5.9845Z" stroke="#1DB459" stroke-width="2" stroke-linecap="round" stroke-linejoin="round"/>
<path d="M2 7C2 6.73478 2.10536 6.48043 2.29289 6.29289C2.48043 6.10536 2.73478 6 3 6H21C21.2652 6 21.5196 6.10536 21.7071 6.29289C21.8946 6.48043 22 6.73478 22 7V21C22 21.2652 21.8946 21.5196 21.7071 21.7071C21.5196 21.8946 21.2652 22 21 22H3C2.73478 22 2.48043 21.8946 2.29289 21.7071C2.10536 21.5196 2 21.2652 2 21V7Z" stroke="#1DB459" stroke-width="2" stroke-linejoin="round"/>
<path d="M17.625 16.5H22V11.5H17.625C16.175 11.5 15 12.6195 15 14C15 15.3805 16.175 16.5 17.625 16.5Z" stroke="#1DB459" stroke-width="2" stroke-linejoin="round"/>
<path d="M22 8.25V20.25" stroke="#1DB459" stroke-width="2" stroke-linecap="round"/>
</svg>
