<svg width="20" height="20" viewBox="0 0 20 20" fill="none" xmlns="http://www.w3.org/2000/svg">
<path d="M10 19C14.9706 19 19 14.9706 19 10C19 5.02944 14.9706 1 10 1C5.02944 1 1 5.02944 1 10C1 14.9706 5.02944 19 10 19Z" stroke="#1DB459" stroke-width="1.5"/>
<path d="M13 10C13 12.598 12.604 14.9236 11.9836 16.5772C11.6728 17.4064 11.3164 18.0364 10.9516 18.448C10.5868 18.8596 10.264 19 10 19C9.736 19 9.412 18.8596 9.0472 18.448C8.6836 18.0364 8.3272 17.4064 8.0152 16.5772C7.396 14.9236 7 12.598 7 10C7 7.402 7.396 5.0764 8.0164 3.4228C8.3272 2.5936 8.6836 1.9636 9.0484 1.552C9.4132 1.1404 9.736 1 10 1C10.264 1 10.588 1.1404 10.9528 1.552C11.3164 1.9636 11.6728 2.5936 11.9848 3.4228C12.604 5.0764 13 7.402 13 10Z" stroke="#1DB459" stroke-width="1.5"/>
<path d="M1 10H19" stroke="#1DB459" stroke-width="1.5" stroke-linecap="round"/>
</svg>
