<svg width="354" height="248" viewBox="0 0 354 248" fill="none" xmlns="http://www.w3.org/2000/svg">
<path d="M238.52 80.3115L260.579 73.6684" stroke="#E98862" stroke-width="1.99995" stroke-miterlimit="10" stroke-linecap="round"/>
<path d="M261.086 73.2415L301.1 37.9531L273.325 72.7624" stroke="#E98862" stroke-width="1.99995" stroke-miterlimit="10" stroke-linecap="round"/>
<path d="M237.118 79.2243C262.147 60.853 287.503 42.7757 313.186 24.9922" stroke="#E98862" stroke-width="1.99995" stroke-miterlimit="10" stroke-linecap="round"/>
<path d="M273.499 73.2522C281.273 69.5094 289.133 65.9516 297.081 62.5789" stroke="#E98862" stroke-width="1.99995" stroke-miterlimit="10" stroke-linecap="round"/>
<path d="M314.986 24.3047C309.316 37.9926 302.699 51.6377 295.169 65.173" stroke="#E98862" stroke-width="1.99995" stroke-miterlimit="10" stroke-linecap="round"/>
<path d="M259.517 75.3454C262.436 79.9135 264.933 84.7025 266.995 89.6866" stroke="#E98862" stroke-width="1.99995" stroke-miterlimit="10" stroke-linecap="round"/>
<path d="M272.355 73.2891C270.874 78.7071 269.391 84.1256 267.909 89.5446" stroke="#E98862" stroke-width="1.99995" stroke-miterlimit="10" stroke-linecap="round"/>
<path d="M268.34 89.2876C272.771 82.4395 277.538 75.6692 282.641 68.9766" stroke="#E98862" stroke-width="1.99995" stroke-miterlimit="10" stroke-linecap="round"/>
<path d="M253.16 86.9389C245.521 98.6498 251.671 106.81 253.116 116.119C255.407 130.882 243.288 152.049 217.098 169.174C196.178 182.851 168.989 192.05 147.178 194.221C125.368 196.391 108.789 192.081 98.9346 184.14C94.7465 180.763 91.6465 176.688 91.2078 171.543C90.2086 159.832 103.316 143.732 121.12 129.596C125.146 126.239 129.681 123.278 134.546 120.829C139.638 118.4 145.616 116.882 148.905 117.829C152.699 118.918 151.764 122.974 148.214 126.737C144.664 130.5 139.094 133.996 133.551 137.189C103.61 154.442 66.9071 167.517 39.5762 167.898C12.2454 168.28 -2.03071 153.787 11.7821 133.728" stroke="#E98862" stroke-width="1.99995" stroke-miterlimit="10" stroke-linecap="round" stroke-dasharray="9.74 9.74"/>
</svg>
