<svg width="72" height="99" viewBox="0 0 72 99" fill="none" xmlns="http://www.w3.org/2000/svg">
<path d="M14.635 17.156C14.183 17.156 13.747 17.086 13.327 16.946C12.907 16.802 12.539 16.598 12.223 16.334C11.911 16.07 11.689 15.756 11.557 15.392L12.499 15.038C12.579 15.262 12.727 15.458 12.943 15.626C13.163 15.79 13.421 15.918 13.717 16.01C14.013 16.102 14.319 16.148 14.635 16.148C14.995 16.148 15.329 16.09 15.637 15.974C15.949 15.854 16.201 15.688 16.393 15.476C16.585 15.264 16.681 15.016 16.681 14.732C16.681 14.44 16.581 14.202 16.381 14.018C16.181 13.83 15.925 13.682 15.613 13.574C15.301 13.462 14.975 13.376 14.635 13.316C14.055 13.22 13.535 13.084 13.075 12.908C12.619 12.728 12.257 12.478 11.989 12.158C11.725 11.838 11.593 11.416 11.593 10.892C11.593 10.404 11.733 9.978 12.013 9.614C12.297 9.25 12.671 8.968 13.135 8.768C13.599 8.568 14.099 8.468 14.635 8.468C15.079 8.468 15.509 8.538 15.925 8.678C16.345 8.814 16.715 9.014 17.035 9.278C17.355 9.542 17.585 9.864 17.725 10.244L16.771 10.592C16.691 10.364 16.541 10.168 16.321 10.004C16.105 9.836 15.849 9.708 15.553 9.62C15.261 9.528 14.955 9.482 14.635 9.482C14.279 9.478 13.947 9.536 13.639 9.656C13.331 9.776 13.081 9.942 12.889 10.154C12.697 10.366 12.601 10.612 12.601 10.892C12.601 11.228 12.689 11.486 12.865 11.666C13.045 11.842 13.289 11.974 13.597 12.062C13.905 12.15 14.251 12.228 14.635 12.296C15.179 12.388 15.683 12.534 16.147 12.734C16.611 12.93 16.983 13.192 17.263 13.52C17.547 13.848 17.689 14.252 17.689 14.732C17.689 15.22 17.547 15.646 17.263 16.01C16.983 16.374 16.611 16.656 16.147 16.856C15.683 17.056 15.179 17.156 14.635 17.156ZM22.194 12.008H20.832L20.826 17H19.818L19.824 12.008H18.792V11H19.824L19.818 9.116H20.826L20.832 11H22.194V12.008ZM25.8773 17.156C25.3253 17.156 24.8213 17.014 24.3653 16.73C23.9133 16.446 23.5513 16.066 23.2793 15.59C23.0113 15.11 22.8773 14.58 22.8773 14C22.8773 13.56 22.9553 13.15 23.1113 12.77C23.2673 12.386 23.4813 12.05 23.7533 11.762C24.0293 11.47 24.3493 11.242 24.7133 11.078C25.0773 10.914 25.4653 10.832 25.8773 10.832C26.3293 10.832 26.7433 10.924 27.1193 11.108C27.4993 11.288 27.8233 11.54 28.0913 11.864C28.3633 12.188 28.5653 12.564 28.6973 12.992C28.8333 13.42 28.8833 13.878 28.8473 14.366H23.9513C23.9993 14.706 24.1113 15.01 24.2873 15.278C24.4633 15.542 24.6873 15.752 24.9593 15.908C25.2353 16.064 25.5413 16.144 25.8773 16.148C26.2373 16.148 26.5633 16.056 26.8553 15.872C27.1473 15.684 27.3833 15.428 27.5633 15.104L28.5893 15.344C28.3493 15.876 27.9873 16.312 27.5033 16.652C27.0193 16.988 26.4773 17.156 25.8773 17.156ZM23.9213 13.574H27.8333C27.8013 13.238 27.6933 12.932 27.5093 12.656C27.3253 12.376 27.0913 12.152 26.8073 11.984C26.5233 11.816 26.2133 11.732 25.8773 11.732C25.5413 11.732 25.2333 11.814 24.9533 11.978C24.6733 12.142 24.4413 12.364 24.2573 12.644C24.0773 12.92 23.9653 13.23 23.9213 13.574ZM30.9864 20H29.9784V11H30.9864V12.026C31.1904 11.674 31.4624 11.39 31.8024 11.174C32.1424 10.954 32.5464 10.844 33.0144 10.844C33.4504 10.844 33.8584 10.926 34.2384 11.09C34.6224 11.254 34.9584 11.482 35.2464 11.774C35.5344 12.062 35.7604 12.396 35.9244 12.776C36.0884 13.156 36.1704 13.564 36.1704 14C36.1704 14.436 36.0884 14.846 35.9244 15.23C35.7604 15.614 35.5344 15.952 35.2464 16.244C34.9584 16.532 34.6224 16.758 34.2384 16.922C33.8584 17.086 33.4504 17.168 33.0144 17.168C32.5464 17.168 32.1424 17.06 31.8024 16.844C31.4624 16.624 31.1904 16.338 30.9864 15.986V20ZM33.0024 11.822C32.6144 11.822 32.2744 11.92 31.9824 12.116C31.6904 12.312 31.4644 12.574 31.3044 12.902C31.1484 13.23 31.0704 13.596 31.0704 14C31.0704 14.4 31.1484 14.766 31.3044 15.098C31.4644 15.43 31.6884 15.694 31.9764 15.89C32.2684 16.086 32.6104 16.184 33.0024 16.184C33.3904 16.184 33.7464 16.088 34.0704 15.896C34.3944 15.7 34.6544 15.438 34.8504 15.11C35.0464 14.778 35.1444 14.408 35.1444 14C35.1444 13.6 35.0484 13.236 34.8564 12.908C34.6644 12.576 34.4064 12.312 34.0824 12.116C33.7584 11.92 33.3984 11.822 33.0024 11.822ZM43.2525 17.156C42.7525 17.156 42.3045 17.044 41.9085 16.82C41.5125 16.592 41.1725 16.278 40.8885 15.878C40.6045 15.478 40.3885 15.016 40.2405 14.492C40.0925 13.964 40.0185 13.4 40.0185 12.8C40.0185 12.2 40.0925 11.636 40.2405 11.108C40.3885 10.58 40.6045 10.118 40.8885 9.722C41.1725 9.322 41.5125 9.01 41.9085 8.786C42.3045 8.558 42.7525 8.444 43.2525 8.444C43.7485 8.444 44.1945 8.558 44.5905 8.786C44.9905 9.01 45.3285 9.322 45.6045 9.722C45.8845 10.118 46.0985 10.58 46.2465 11.108C46.3985 11.636 46.4745 12.2 46.4745 12.8C46.4745 13.4 46.3985 13.964 46.2465 14.492C46.0985 15.016 45.8845 15.478 45.6045 15.878C45.3285 16.278 44.9905 16.592 44.5905 16.82C44.1945 17.044 43.7485 17.156 43.2525 17.156ZM43.2525 16.148C43.7525 16.148 44.1705 15.994 44.5065 15.686C44.8465 15.374 45.1005 14.964 45.2685 14.456C45.4365 13.948 45.5205 13.396 45.5205 12.8C45.5205 12.172 45.4325 11.606 45.2565 11.102C45.0845 10.594 44.8285 10.192 44.4885 9.896C44.1525 9.6 43.7405 9.452 43.2525 9.452C42.8685 9.452 42.5325 9.542 42.2445 9.722C41.9605 9.902 41.7245 10.148 41.5365 10.46C41.3485 10.772 41.2065 11.13 41.1105 11.534C41.0185 11.934 40.9725 12.356 40.9725 12.8C40.9725 13.396 41.0585 13.95 41.2305 14.462C41.4025 14.97 41.6565 15.378 41.9925 15.686C42.3325 15.994 42.7525 16.148 43.2525 16.148ZM50.3803 17.156C49.8803 17.156 49.4323 17.044 49.0363 16.82C48.6403 16.592 48.3003 16.278 48.0163 15.878C47.7323 15.478 47.5163 15.016 47.3683 14.492C47.2203 13.964 47.1463 13.4 47.1463 12.8C47.1463 12.2 47.2203 11.636 47.3683 11.108C47.5163 10.58 47.7323 10.118 48.0163 9.722C48.3003 9.322 48.6403 9.01 49.0363 8.786C49.4323 8.558 49.8803 8.444 50.3803 8.444C50.8763 8.444 51.3223 8.558 51.7183 8.786C52.1183 9.01 52.4563 9.322 52.7323 9.722C53.0123 10.118 53.2263 10.58 53.3743 11.108C53.5263 11.636 53.6023 12.2 53.6023 12.8C53.6023 13.4 53.5263 13.964 53.3743 14.492C53.2263 15.016 53.0123 15.478 52.7323 15.878C52.4563 16.278 52.1183 16.592 51.7183 16.82C51.3223 17.044 50.8763 17.156 50.3803 17.156ZM50.3803 16.148C50.8803 16.148 51.2983 15.994 51.6343 15.686C51.9743 15.374 52.2283 14.964 52.3963 14.456C52.5643 13.948 52.6483 13.396 52.6483 12.8C52.6483 12.172 52.5603 11.606 52.3843 11.102C52.2123 10.594 51.9563 10.192 51.6163 9.896C51.2803 9.6 50.8683 9.452 50.3803 9.452C49.9963 9.452 49.6603 9.542 49.3723 9.722C49.0883 9.902 48.8523 10.148 48.6643 10.46C48.4763 10.772 48.3343 11.13 48.2383 11.534C48.1463 11.934 48.1003 12.356 48.1003 12.8C48.1003 13.396 48.1863 13.95 48.3583 14.462C48.5303 14.97 48.7843 15.378 49.1203 15.686C49.4603 15.994 49.8803 16.148 50.3803 16.148ZM57.0542 17.156C56.5462 17.156 56.0942 17.042 55.6982 16.814C55.3062 16.582 54.9982 16.274 54.7742 15.89C54.5502 15.502 54.4382 15.072 54.4382 14.6H55.4462C55.4462 14.884 55.5122 15.144 55.6442 15.38C55.7762 15.612 55.9622 15.798 56.2022 15.938C56.4422 16.078 56.7262 16.148 57.0542 16.148C57.3382 16.148 57.6022 16.078 57.8462 15.938C58.0942 15.798 58.2942 15.612 58.4462 15.38C58.5982 15.144 58.6742 14.884 58.6742 14.6C58.6742 14.244 58.5822 13.948 58.3982 13.712C58.2182 13.472 57.9662 13.294 57.6422 13.178C57.3222 13.058 56.9562 12.998 56.5442 12.998V12.188C57.1122 12.188 57.5662 12.07 57.9062 11.834C58.2502 11.598 58.4222 11.25 58.4222 10.79C58.4222 10.546 58.3562 10.322 58.2242 10.118C58.0922 9.914 57.9182 9.752 57.7022 9.632C57.4902 9.508 57.2622 9.446 57.0182 9.446C56.7702 9.446 56.5322 9.508 56.3042 9.632C56.0762 9.752 55.8902 9.914 55.7462 10.118C55.6022 10.322 55.5302 10.546 55.5302 10.79H54.5222C54.5222 10.466 54.5882 10.162 54.7202 9.878C54.8562 9.594 55.0402 9.344 55.2722 9.128C55.5082 8.912 55.7742 8.744 56.0702 8.624C56.3662 8.5 56.6782 8.438 57.0062 8.438C57.4342 8.438 57.8322 8.544 58.2002 8.756C58.5682 8.968 58.8642 9.252 59.0882 9.608C59.3162 9.964 59.4302 10.358 59.4302 10.79C59.4302 11.178 59.3322 11.536 59.1362 11.864C58.9402 12.192 58.6742 12.422 58.3382 12.554C58.6302 12.654 58.8762 12.81 59.0762 13.022C59.2762 13.23 59.4262 13.47 59.5262 13.742C59.6302 14.014 59.6822 14.3 59.6822 14.6C59.6822 15.068 59.5602 15.496 59.3162 15.884C59.0762 16.272 58.7562 16.582 58.3562 16.814C57.9602 17.042 57.5262 17.156 57.0542 17.156Z" fill="#666666"/>
<g clip-path="url(#clip0_8038_12492)">
<g clip-path="url(#clip1_8038_12492)">
<path d="M71.9652 96.0063L1.75113 96.6039C2.50008 94.1989 3.90326 92.1521 5.90131 91.5315C8.82372 90.6248 11.9449 93.0231 14.8606 92.0864C16.517 91.5549 17.8118 90.0359 19.1751 88.7722C24.3184 84.0038 31.4099 82.547 37.5649 84.9955C40.7821 86.2746 43.723 88.5346 47.0155 89.4777C51.2732 90.6977 55.7057 89.6183 60.0717 89.4094C64.3239 89.2061 70.4364 91.2729 71.9652 96.0063Z" fill="#F3F5FD"/>
<path d="M6.20514 91.8503C5.64614 91.6595 5.22136 91.0534 5.04893 90.3759C4.8765 89.6985 4.92892 88.9613 5.08597 88.2795C5.2141 87.7233 5.4109 87.1849 5.45561 86.6095C5.60458 84.6925 4.06803 82.7483 4.76864 81.0259C4.99519 80.4687 5.43889 80.0312 5.51375 79.4154C5.57529 78.9061 5.36623 78.4134 5.26007 77.9144C5.11392 77.2278 5.17835 76.4466 5.53871 75.8927C5.89908 75.3387 6.58696 75.0922 7.09281 75.4407C7.75465 75.8964 7.82139 77.0349 7.65999 77.9403C7.4986 78.8456 7.1931 79.7781 7.40732 80.6685C7.61145 81.5171 8.25775 82.152 8.38005 83.0235C8.4818 83.7481 8.19812 84.4578 8.07697 85.1769C7.88659 86.3071 8.10009 87.4752 8.11867 88.6297C8.13726 89.7843 7.88184 91.0815 6.20514 91.8503Z" fill="#04B040"/>
<path d="M5.34459 91.9673C5.01183 91.8413 4.7122 91.6094 4.47647 91.2954C4.24073 90.9815 4.07738 90.5967 4.00319 90.1808C3.88826 89.4946 4.01561 88.7217 3.70304 88.1341C3.2794 87.3378 2.85114 87.2511 2.32595 86.5505C1.5191 85.4736 1.48702 84.9935 1.52256 82.9853C1.53753 82.136 0.57044 81.1861 0.901216 80.3675C1.1927 79.6462 2.09714 79.6349 2.61437 80.1362C3.13161 80.6375 3.36378 81.4463 3.59373 82.2022C3.82368 82.9581 4.11216 83.7576 4.68215 84.164C5.02401 84.4079 5.4698 84.5181 5.66108 84.9416C5.81477 85.282 5.74237 85.6995 5.68501 86.081C5.5408 87.0401 5.58888 88.2078 6.25111 88.7557C6.54965 89.0028 6.93901 89.0853 7.18549 89.4072C7.42937 89.7254 7.4722 90.1996 7.45944 90.6345C7.43449 91.4707 7.253 92.2881 6.92892 93.0239" fill="#C1D8ED"/>
<path d="M6.14417 92.6231C5.54516 91.8014 5.45036 90.4922 5.92219 89.559C6.31809 88.7759 7.06365 88.2325 7.2134 87.3293C7.34687 86.5251 6.95071 85.6986 7.06036 84.889C7.17961 84.0088 7.83894 83.4264 8.3619 82.8045C8.49796 82.6533 8.61462 82.4778 8.70799 82.2841C8.93584 81.7713 8.86575 81.1452 8.93963 80.5682C9.08121 79.4631 9.81682 78.4777 10.7186 78.2876C11.5094 78.1208 12.0816 78.6722 12.0903 79.6968C12.1007 80.9104 11.3613 81.4368 10.9866 81.9895C10.4484 82.7897 10.1677 83.8031 10.1972 84.8402C10.2338 85.9986 10.6479 87.2288 10.2255 88.2648C9.91573 89.0251 9.24308 89.4347 8.71678 89.9891C8.31903 90.4127 7.99671 90.9317 7.76967 91.5141C7.54263 92.0965 7.41567 92.7299 7.3966 93.3754" fill="#DEE8F5"/>
<path d="M8.68317 90.7015L3.90625 90.7422L3.95594 96.5817L8.73286 96.541L8.68317 90.7015Z" fill="#04B040"/>
<g opacity="0.42">
<path d="M8.69293 91.8422L3.91602 91.8828L3.92572 93.0226L8.70263 92.982L8.69293 91.8422Z" fill="white"/>
</g>
<path d="M61.753 41.0893L20.8418 41.4375L21.15 77.6554L62.0612 77.3072L61.753 41.0893Z" fill="#DEE8F5"/>
<path d="M61.753 41.0893L20.8418 41.4375L20.8672 44.4209L61.7784 44.0728L61.753 41.0893Z" fill="#C1D8ED"/>
<path d="M60.4005 43.3434C60.7386 43.3405 61.0099 43.0031 61.0064 42.5897C61.0029 42.1763 60.7259 41.8435 60.3877 41.8464C60.0495 41.8492 59.7782 42.1867 59.7818 42.6001C59.7853 43.0135 60.0623 43.3463 60.4005 43.3434Z" fill="white"/>
<path d="M19.7418 95.5794L18.3665 95.3914C18.4229 94.7553 18.4863 93.9913 18.49 93.866C18.4901 93.8741 18.4901 93.8807 18.4902 93.8858L19.8734 93.874C19.8735 93.9243 19.8749 94.0786 19.7418 95.5794Z" fill="#E98862"/>
<path d="M14.2315 95.832L12.8482 95.8383C12.8482 95.8383 12.838 94.0921 12.8366 93.9375L14.2199 93.9257C14.2212 94.0809 14.2315 95.832 14.2315 95.832Z" fill="#E98862"/>
<path d="M17.8099 95.0641L20.2463 94.9926C20.1017 91.4481 20.063 87.7291 19.9971 84.1752C19.4888 80.3483 19.2025 76.144 18.5831 72.3456L13.5003 72.0834C13.5003 72.0834 13.3767 74.5911 13.3352 75.592C13.1323 80.4481 12.7344 89.4437 12.4841 95.0134L14.9148 95.2436C15.3059 89.7816 15.9153 81.8226 16.283 76.0851C16.7851 78.8726 17.135 81.7605 17.5745 84.5247C17.6871 87.9886 17.7883 91.6098 17.8099 95.0641Z" fill="#262626"/>
<path d="M15.9191 96.4664C15.9563 96.4659 15.993 96.456 16.0269 96.4373C16.0608 96.4187 16.0911 96.3917 16.116 96.358C16.1409 96.3243 16.1599 96.2847 16.1717 96.2416C16.1835 96.1986 16.1879 96.1529 16.1846 96.1076C16.1801 96.0448 16.1609 95.9848 16.1295 95.9348C16.098 95.8847 16.0556 95.8466 16.0071 95.8249L14.3914 95.1794C14.3601 95.1671 14.327 95.1631 14.2944 95.1678C14.2618 95.1726 14.2304 95.1858 14.2025 95.2068C13.9827 95.3964 13.7187 95.4946 13.4494 95.487C13.2395 95.4706 13.0374 95.3823 12.8662 95.2324C12.8511 95.2176 12.8329 95.2082 12.8137 95.2055C12.7945 95.2028 12.7751 95.2068 12.7577 95.2171C12.7404 95.2274 12.7258 95.2435 12.7156 95.2636C12.7055 95.2836 12.7003 95.3068 12.7005 95.3305L12.7087 96.2929C12.7089 96.3213 12.7138 96.3493 12.7229 96.3755C12.732 96.4016 12.7453 96.4253 12.7619 96.4452C12.7785 96.4651 12.7982 96.4808 12.8198 96.4914C12.8414 96.502 12.8644 96.5073 12.8877 96.507L15.9191 96.4664Z" fill="#C1D8ED"/>
<path d="M21.4348 96.4195C21.472 96.419 21.5087 96.4091 21.5425 96.3904C21.5764 96.3718 21.6067 96.3448 21.6317 96.3111C21.6566 96.2775 21.6755 96.2378 21.6873 96.1948C21.6991 96.1517 21.7035 96.1061 21.7002 96.0608C21.6957 95.9979 21.6766 95.938 21.6451 95.8879C21.6136 95.8378 21.5712 95.7997 21.5227 95.7781L19.907 95.1325C19.8757 95.1202 19.8427 95.1162 19.81 95.121C19.7774 95.1257 19.7461 95.139 19.7181 95.1599C19.4983 95.3495 19.2344 95.4477 18.965 95.4401C18.7551 95.4237 18.553 95.3355 18.3818 95.1855C18.3667 95.1707 18.3485 95.1614 18.3293 95.1587C18.3101 95.156 18.2907 95.1601 18.2734 95.1703C18.256 95.1806 18.2414 95.1967 18.2313 95.2168C18.2211 95.2368 18.2159 95.26 18.2161 95.2836L18.2243 96.246C18.2246 96.2744 18.2294 96.3025 18.2385 96.3286C18.2477 96.3547 18.2609 96.3785 18.2775 96.3983C18.2942 96.4182 18.3138 96.4339 18.3354 96.4445C18.357 96.4551 18.3801 96.4604 18.4033 96.4601L21.4348 96.4195Z" fill="#C1D8ED"/>
<path d="M15.1067 60.0105C15.1067 60.0105 15.0156 59.0318 14.3115 59.0378C13.4754 59.0449 14.0703 61.8484 14.4507 63.5627C14.4912 63.746 14.4998 63.9376 14.4757 64.1249C14.4516 64.3123 14.3954 64.4911 14.3108 64.6499C14.2262 64.8086 14.1151 64.9436 13.9848 65.0462C13.8545 65.1487 13.7078 65.2163 13.5545 65.2448C13.4066 65.2723 13.2556 65.2629 13.1107 65.2169C12.9657 65.171 12.8298 65.0896 12.7112 64.9775C12.5926 64.8655 12.4938 64.7253 12.4208 64.5653C12.3478 64.4053 12.3021 64.229 12.2864 64.0471C12.0985 61.8464 12.1033 57.7829 13.9991 57.8449C15.2309 57.8853 15.2436 59.3857 15.2436 59.3857L15.1067 60.0105Z" fill="#0F1011"/>
<path d="M15.1365 63.3735C15.1365 63.3735 15.643 63.039 15.5148 61.3445L16.5651 61.0971C16.5651 61.0971 16.4598 62.6182 16.9964 63.0963L15.1365 63.3735Z" fill="#E98862"/>
<g opacity="0.15">
<path d="M16.7777 62.7798L15.8966 61.9696L16.5831 61.9551C16.6054 62.2422 16.6714 62.522 16.7777 62.7798Z" fill="black"/>
</g>
<path d="M14.9124 60.6941C14.9896 61.2079 15.2234 61.693 15.596 61.8559C16.0023 62.0487 16.4407 62.1173 16.8729 62.0556C18.024 61.9303 17.7688 58.7302 17.2166 58.1128C16.6644 57.4953 15.0624 57.903 14.876 58.945C14.7796 59.484 14.8389 60.2047 14.9124 60.6941Z" fill="#E98862"/>
<path d="M16.5564 60.2872C16.6091 60.2868 16.6514 60.2342 16.6509 60.1697C16.6503 60.1053 16.6071 60.0534 16.5544 60.0539C16.5017 60.0543 16.4594 60.1069 16.46 60.1714C16.4605 60.2358 16.5037 60.2877 16.5564 60.2872Z" fill="#0F1011"/>
<path d="M17.3084 60.2013C17.3611 60.2008 17.4034 60.1482 17.4028 60.0838C17.4023 60.0194 17.3591 59.9675 17.3064 59.9679C17.2537 59.9684 17.2114 60.021 17.2119 60.0854C17.2125 60.1499 17.2557 60.2017 17.3084 60.2013Z" fill="#0F1011"/>
<path d="M17.4706 59.8375L17.47 59.8375L17.2171 59.8358C17.2052 59.8357 17.1938 59.8298 17.1854 59.8195C17.177 59.8092 17.1723 59.7952 17.1723 59.7807C17.1726 59.7662 17.1774 59.7524 17.1858 59.7422C17.1942 59.7321 17.2055 59.7263 17.2173 59.7262L17.4702 59.7278C17.4821 59.7278 17.4936 59.7336 17.502 59.7439C17.5105 59.7541 17.5152 59.7681 17.5153 59.7826C17.5153 59.7972 17.5106 59.8111 17.5022 59.8214C17.4939 59.8317 17.4825 59.8375 17.4706 59.8375Z" fill="#0F1011"/>
<path d="M16.3471 59.9638C16.3361 59.9639 16.3255 59.959 16.3172 59.9502C16.309 59.9413 16.3036 59.9291 16.3022 59.9158C16.3008 59.9025 16.3035 59.889 16.3097 59.8779C16.3158 59.8669 16.3251 59.859 16.3358 59.8558L16.5844 59.7804C16.5901 59.7786 16.596 59.7783 16.6019 59.7794C16.6077 59.7804 16.6133 59.7829 16.6184 59.7866C16.6234 59.7903 16.6278 59.7952 16.6314 59.801C16.6349 59.8068 16.6374 59.8134 16.6389 59.8204C16.6403 59.8274 16.6406 59.8347 16.6398 59.8418C16.6389 59.8489 16.6369 59.8558 16.6339 59.8619C16.6309 59.8681 16.6269 59.8735 16.6221 59.8778C16.6174 59.882 16.612 59.8851 16.6063 59.8869L16.3577 59.9623C16.3542 59.9633 16.3506 59.9638 16.3471 59.9638Z" fill="#0F1011"/>
<path d="M16.6079 61.0913C16.6079 61.0913 16.9607 61.1337 17.2068 61.0261C17.2068 61.0261 17.2073 61.3098 16.9287 61.3402C16.6501 61.3705 16.6079 61.0913 16.6079 61.0913Z" fill="white"/>
<path d="M15.6755 59.3594C15.7959 61.7055 15.5344 61.95 15.5344 61.95C15.5344 61.95 14.5692 61.2529 14.4319 59.8445C14.3033 58.5243 15.0931 57.7371 15.63 57.5857C17.6702 57.0093 17.9153 59.2833 17.9153 59.2833C16.8945 59.6136 15.4545 59.4082 15.4545 59.4082" fill="#0F1011"/>
<path d="M16.0623 60.4621C16.068 60.5273 16.063 60.5931 16.0477 60.6559C16.0323 60.7186 16.0069 60.777 15.9729 60.8275C15.939 60.8781 15.8971 60.9199 15.8497 60.9504C15.8023 60.981 15.7505 60.9997 15.6971 61.0055C15.6437 61.0112 15.5898 61.004 15.5387 60.9841C15.4875 60.9643 15.4401 60.9322 15.3991 60.8898C15.3581 60.8473 15.3244 60.7954 15.2999 60.737C15.2754 60.6786 15.2607 60.6148 15.2565 60.5494C15.2507 60.4845 15.2556 60.4189 15.2709 60.3565C15.2863 60.294 15.3118 60.236 15.3459 60.186C15.3801 60.1359 15.4221 60.0948 15.4695 60.065C15.517 60.0353 15.5689 60.0176 15.6221 60.0129C15.9104 59.9994 16.0418 60.19 16.0623 60.4621Z" fill="#E98862"/>
<g opacity="0.15">
<path d="M16.9849 60.8116C16.977 60.8116 16.9694 60.8082 16.9634 60.8019C16.9575 60.7957 16.9535 60.7871 16.9523 60.7776C16.951 60.7681 16.9526 60.7584 16.9567 60.7503C16.9608 60.7421 16.9671 60.736 16.9746 60.733L17.168 60.6584L17.029 60.29C17.0255 60.2803 17.0252 60.2693 17.0283 60.2594C17.0313 60.2495 17.0374 60.2415 17.0453 60.2371C17.0532 60.2327 17.0621 60.2322 17.0703 60.2359C17.0784 60.2395 17.0851 60.2469 17.0888 60.2565L17.2434 60.6664C17.2454 60.6716 17.2464 60.6772 17.2465 60.6829C17.2465 60.6887 17.2456 60.6943 17.2437 60.6995C17.2418 60.7047 17.239 60.7094 17.2356 60.7132C17.2321 60.717 17.228 60.7199 17.2236 60.7216L16.9945 60.8098C16.9914 60.811 16.9881 60.8116 16.9849 60.8116Z" fill="black"/>
</g>
<path d="M14.4684 59.255C14.445 59.2552 14.4218 59.2493 14.4004 59.2377C14.379 59.2261 14.3598 59.2091 14.3442 59.1877C14.3285 59.1664 14.3168 59.1413 14.3096 59.114C14.3025 59.0868 14.3002 59.058 14.3029 59.0296C14.3471 58.6582 14.4923 58.3163 14.7151 58.0588C14.7479 58.0248 14.7903 58.0079 14.8332 58.0117C14.8762 58.0154 14.9163 58.0396 14.9449 58.0791C14.9735 58.1185 14.9884 58.17 14.9864 58.2225C14.9844 58.2751 14.9656 58.3246 14.9341 58.3603C14.7718 58.5527 14.6651 58.8044 14.63 59.0778C14.6253 59.1264 14.6063 59.1712 14.5766 59.2038C14.5469 59.2364 14.5084 59.2546 14.4684 59.255Z" fill="#262626"/>
<path d="M22.1387 63.2702C22.1387 63.2702 22.1403 62.3031 22.7063 62.3486C23.0633 62.3773 24.7576 62.2667 24.7845 62.4551C24.8509 62.9216 23.3013 63.049 23.1643 63.4854L22.1387 63.2702Z" fill="#E98862"/>
<path d="M22.5062 62.3816C22.5062 62.3816 23.2906 62.0609 23.4845 62.1156C23.6562 62.1638 23.3021 62.5077 23.3021 62.5077L22.5062 62.3816Z" fill="#E98862"/>
<path d="M18.9016 72.1546C18.6323 72.9324 13.5539 73.2977 13.4699 71.9343C13.4164 71.0667 14.0305 70.3037 14.0161 68.6119C14.0017 66.9201 12.7107 65.1788 13.7373 63.9018C14.0352 63.5312 14.2155 62.8838 14.8491 62.8776C14.9004 63.329 17.144 63.3115 17.1573 62.8685C17.243 62.8693 17.3095 62.8704 17.351 62.8724C19.5376 62.969 18.3972 66.0194 18.3951 68.2533C18.3917 70.8673 19.1794 71.3534 18.9016 72.1546Z" fill="white"/>
<path d="M17.1578 62.8658C17.1444 63.3088 16.953 63.962 16.3455 64.0162C15.5358 64.0884 14.9009 63.3263 14.8496 62.875L14.8516 62.875C15.6493 62.8682 16.6927 62.8609 17.1578 62.8658Z" fill="#E98862"/>
<path d="M22.0665 62.7062L20.6838 65.9365L18.4906 63.3658C18.2921 63.0634 17.9817 62.8764 17.5093 62.8551C17.4734 62.8536 17.1029 62.8425 17.0812 62.8695C16.9502 63.0325 16.9014 65.8847 16.9808 67.4686C17.0674 69.1831 17.0116 71.3256 17.089 72.5565C17.094 72.6373 17.1127 72.7159 17.1438 72.7875C17.175 72.8591 17.2179 72.9221 17.2699 72.9725C17.322 73.0228 17.3819 73.0595 17.4461 73.0801C17.5102 73.1007 17.5771 73.1049 17.6425 73.0923C18.3516 72.9535 18.9035 72.7227 18.9823 72.4952C19.26 71.694 18.5962 70.8668 18.5997 68.2528C18.6003 67.5493 18.6913 66.7623 18.7531 66.0118L20.3933 67.9345C20.4709 68.0253 20.5646 68.093 20.667 68.1321C20.7695 68.1712 20.8779 68.1807 20.9837 68.1598C21.0895 68.1389 21.1898 68.0883 21.2767 68.0118C21.3635 67.9353 21.4346 67.8351 21.4842 67.7191L23.2928 63.4938L22.0665 62.7062Z" fill="#04B040"/>
<path d="M20.0344 68.8293L16.3645 68.9975L15.5607 66.992C15.4207 65.4514 15.2414 64.139 15.1584 63.4505C15.0541 62.813 15.1072 62.8578 14.8594 62.8597C14.2257 62.8659 13.6965 63.1221 13.3986 63.4927C12.372 64.7697 13.6636 66.9201 13.678 68.6111C13.6924 70.3021 13.0731 71.0659 13.1266 71.9335C13.1596 72.4755 13.3921 73.1594 15.1028 73.2918C15.2413 73.3025 15.3777 73.2479 15.4839 73.1391C15.59 73.0303 15.6578 72.8757 15.6732 72.7072C15.7287 72.0557 15.7551 71.4009 15.7523 70.7456C15.8114 70.7644 15.8722 70.7739 15.9333 70.7738C15.9406 70.7737 15.948 70.7737 15.9553 70.7731L20.0931 70.5836L20.0344 68.8293Z" fill="#04B040"/>
<path d="M14.7011 64.7934L14.8589 64.1374L14.5419 63.8882L14.7921 62.869C14.9504 62.8596 15.109 62.8623 15.2671 62.877C15.428 63.511 15.6185 66.2377 15.6882 67.3025L14.7011 64.7934Z" fill="#04B040"/>
<path d="M17.4223 64.1092L17.6743 65.0838L16.9925 67.7132C16.9925 67.7132 16.8185 63.7511 16.9973 62.8614C17.0629 62.85 17.129 62.8434 17.1953 62.8416C17.3306 62.8381 17.4697 62.8481 17.4697 62.8481L17.735 63.8546L17.4223 64.1092Z" fill="#04B040"/>
<g opacity="0.24">
<path d="M14.7011 64.7934L14.8589 64.1374L14.5419 63.8882L14.7921 62.869C14.9504 62.8596 15.109 62.8623 15.2671 62.877C15.428 63.511 15.6185 66.2377 15.6882 67.3025L14.7011 64.7934Z" fill="white"/>
</g>
<g opacity="0.24">
<path d="M17.4223 64.1092L17.6743 65.0838L16.9925 67.7132C16.9925 67.7132 16.8185 63.7511 16.9973 62.8614C17.0629 62.85 17.129 62.8434 17.1953 62.8416C17.3306 62.8381 17.4697 62.8481 17.4697 62.8481L17.735 63.8546L17.4223 64.1092Z" fill="white"/>
</g>
<path d="M19.7029 64.6474L18.9381 68.7585C18.9262 68.8224 18.9263 68.8889 18.9384 68.9529C18.9505 69.0169 18.9744 69.0768 19.0081 69.128C19.0418 69.1793 19.0845 69.2205 19.1331 69.2488C19.1817 69.277 19.2348 69.2914 19.2885 69.291L24.0038 69.2509C24.0817 69.2502 24.1572 69.2183 24.2186 69.16C24.2801 69.1017 24.3241 69.0203 24.344 68.9283L25.2306 64.8161C25.2445 64.7515 25.246 64.6838 25.235 64.6182C25.224 64.5526 25.2008 64.491 25.1672 64.4381C25.1336 64.3852 25.0904 64.3424 25.0411 64.3131C24.9919 64.2839 24.9377 64.2689 24.883 64.2693L20.046 64.3105C19.9661 64.3112 19.8887 64.3448 19.8264 64.4059C19.7642 64.467 19.7207 64.5521 19.7029 64.6474Z" fill="#0C8B01" fill-opacity="0.42"/>
<path d="M22.9588 68.7466L17.2597 68.7951C17.1443 68.7961 17.0518 68.9112 17.053 69.0523C17.0542 69.1934 17.1487 69.3069 17.2641 69.3059L22.9631 69.2574C23.0785 69.2565 23.1711 69.1413 23.1699 69.0002C23.1687 68.8592 23.0742 68.7456 22.9588 68.7466Z" fill="#0C8B01" fill-opacity="0.42"/>
<path d="M22.2841 67.4212C22.5921 67.4185 22.8392 67.1112 22.836 66.7347C22.8328 66.3582 22.5805 66.0551 22.2725 66.0578C21.9645 66.0604 21.7174 66.3677 21.7206 66.7442C21.7238 67.1207 21.9761 67.4238 22.2841 67.4212Z" fill="white"/>
<path d="M21.2309 69.8115C20.937 70.0371 20.4801 70.1465 20.0812 70.1885L20.0512 69.2998C20.239 69.2917 20.5273 69.2651 20.81 69.2764C20.9365 69.148 21.0097 69.1096 21.1394 68.9483C21.2775 68.7765 21.6427 68.671 21.7142 68.9434C21.7857 69.2157 21.4887 69.6129 21.2309 69.8115Z" fill="#E98862"/>
<path d="M56.0164 51.4775L26.752 51.7266L26.8886 67.7797L56.153 67.5307L56.0164 51.4775Z" fill="#04B040"/>
<path d="M51.775 57.2587L47.4404 61.8997C47.373 61.972 47.2855 62.0103 47.1956 62.0068C47.1058 62.0032 47.0202 61.9582 46.9563 61.8806C46.8924 61.8031 46.8549 61.6989 46.8513 61.5891C46.8477 61.4792 46.8784 61.372 46.9371 61.289L50.6998 55.9541C50.7647 55.8621 50.8439 55.7867 50.9327 55.7321C51.0216 55.6776 51.1184 55.645 51.2177 55.6362C51.317 55.6275 51.4168 55.6427 51.5113 55.6811C51.6059 55.7195 51.6935 55.7802 51.769 55.8599C51.8445 55.9395 51.9065 56.0365 51.9514 56.1453C51.9963 56.2541 52.0233 56.3726 52.0308 56.494C52.0383 56.6154 52.0262 56.7373 51.9951 56.8528C51.9641 56.9683 51.9147 57.0751 51.8498 57.1672C51.8265 57.1996 51.8015 57.2302 51.775 57.2587Z" fill="white"/>
<path d="M49.9231 57.3116L46.5735 56.9415C46.5292 56.9366 46.4846 56.945 46.4436 56.9659C46.4026 56.9868 46.3664 57.0196 46.3382 57.0615L46.0088 57.5474C45.9796 57.5907 45.9598 57.6422 45.9512 57.6973C45.9426 57.7524 45.9455 57.8093 45.9596 57.8628C45.9737 57.9163 45.9986 57.9646 46.0319 58.0034C46.0653 58.0421 46.106 58.0701 46.1504 58.0846L49.0108 59.0198C49.0708 59.0394 49.1343 59.0336 49.1911 59.0033C49.2479 58.973 49.2945 58.92 49.3233 58.8529L49.9231 57.3116Z" fill="white"/>
<path d="M47.1884 60.7037L45.3857 60.5045C45.3585 60.5015 45.3312 60.5067 45.3061 60.5195C45.2809 60.5324 45.2587 60.5525 45.2414 60.5782L44.9306 61.0389C44.9127 61.0654 44.9006 61.097 44.8953 61.1309C44.8901 61.1647 44.8918 61.1996 44.9005 61.2324C44.9091 61.2652 44.9244 61.2948 44.9448 61.3186C44.9653 61.3423 44.9903 61.3594 45.0175 61.3683L46.7717 61.9419C46.8085 61.9539 46.8475 61.9503 46.8823 61.9317C46.9171 61.9131 46.9457 61.8806 46.9634 61.8395L47.3227 61.0045C47.3356 60.9745 47.3422 60.9412 47.342 60.9073C47.3417 60.8734 47.3347 60.8402 47.3214 60.8104C47.3081 60.7806 47.289 60.7553 47.2658 60.7367C47.2426 60.7181 47.216 60.7067 47.1884 60.7037Z" fill="white"/>
<path d="M50.7056 58.1518L51.0171 62.2457C51.0212 62.2999 51.0145 62.3544 50.9975 62.4046C50.9805 62.4547 50.9538 62.4991 50.9196 62.5337L50.497 63.0157C50.4617 63.0515 50.4196 63.0758 50.3746 63.0864C50.3295 63.097 50.2829 63.0936 50.2392 63.0765C50.1954 63.0594 50.1558 63.0292 50.124 62.9885C50.0922 62.9479 50.0692 62.8981 50.0572 62.8439L49.2845 59.3498C49.2683 59.2765 49.2729 59.1988 49.2975 59.1293C49.3222 59.0598 49.3654 59.0027 49.4202 58.9673L50.7056 58.1518Z" fill="white"/>
<path d="M47.9096 61.5857L48.0774 63.7888C48.0799 63.822 48.0758 63.8555 48.0654 63.8862C48.0549 63.917 48.0385 63.9442 48.0176 63.9654L47.6415 64.3466C47.6198 64.3685 47.594 64.3834 47.5664 64.39C47.5388 64.3965 47.5102 64.3944 47.4834 64.3839C47.4565 64.3734 47.4322 64.3548 47.4127 64.3299C47.3933 64.305 47.3792 64.2745 47.3718 64.2412L46.8979 62.0984C46.8881 62.0535 46.8909 62.0059 46.906 61.9634C46.9211 61.9209 46.9476 61.8859 46.9811 61.8642L47.6633 61.4228C47.6877 61.407 47.715 61.3988 47.7426 61.399C47.7703 61.3992 47.7975 61.4077 47.8219 61.4238C47.8463 61.4399 47.867 61.4631 47.8823 61.4914C47.8976 61.5196 47.907 61.552 47.9096 61.5857Z" fill="white"/>
<path d="M42.2245 54.6756L28.8887 54.7891L28.8972 55.7923L42.2331 55.6788L42.2245 54.6756Z" fill="white"/>
<path d="M42.2499 57.6443L28.9141 57.7578L28.9226 58.761L42.2584 58.6476L42.2499 57.6443Z" fill="white"/>
<path d="M42.2753 60.6053L28.9395 60.7188L28.948 61.722L42.2838 61.6085L42.2753 60.6053Z" fill="white"/>
<path d="M42.3007 63.574L28.9648 63.6875L28.9734 64.6907L42.3092 64.5772L42.3007 63.574Z" fill="white"/>
<path d="M61.2677 80.578C64.5244 80.5503 67.1371 77.3004 67.1032 73.3192C67.0693 69.338 64.4017 66.133 61.145 66.1608C57.8882 66.1885 55.2755 69.4383 55.3094 73.4196C55.3433 77.4008 58.0109 80.6057 61.2677 80.578Z" fill="#04B040"/>
<path d="M60.2277 77.3134C60.1048 77.3145 59.9861 77.258 59.8958 77.1557L57.6339 74.591C57.5874 74.5383 57.5499 74.475 57.5234 74.4047C57.4969 74.3344 57.482 74.2584 57.4795 74.1812C57.477 74.1039 57.4869 74.0269 57.5088 73.9544C57.5307 73.882 57.5641 73.8155 57.607 73.7589C57.6499 73.7023 57.7016 73.6566 57.759 73.6245C57.8164 73.5924 57.8785 73.5744 57.9417 73.5716C58.0049 73.5688 58.068 73.5813 58.1273 73.6083C58.1867 73.6353 58.2411 73.6763 58.2876 73.7289L60.1889 75.8846L64.0763 70.5542C64.1615 70.4397 64.2804 70.371 64.4071 70.3632C64.5338 70.3554 64.6581 70.409 64.753 70.5124C64.8479 70.6159 64.9056 70.7607 64.9138 70.9156C64.9219 71.0704 64.8797 71.2227 64.7964 71.3393L60.583 77.1169C60.5405 77.1752 60.4888 77.2226 60.4311 77.2562C60.3733 77.2897 60.3106 77.3089 60.2466 77.3125C60.2401 77.3131 60.2339 77.3134 60.2277 77.3134Z" fill="white"/>
<path d="M60.711 88.0568L60.043 88.0625L60.1113 96.0961L60.7794 96.0905L60.711 88.0568Z" fill="#C1D8ED"/>
<path d="M60.1602 88.0646L59.4922 88.0703L59.5606 96.104L60.2286 96.0983L60.1602 88.0646Z" fill="#DEE8F5"/>
<path d="M69.0333 87.9865L68.3652 87.9922L68.4336 96.0258L69.1017 96.0202L69.0333 87.9865Z" fill="#C1D8ED"/>
<path d="M68.4825 87.9943L67.8145 88L67.8828 96.0336L68.5509 96.028L68.4825 87.9943Z" fill="#DEE8F5"/>
<path d="M62.5431 88.0412L61.875 88.0469L61.9434 96.0805L62.6114 96.0748L62.5431 88.0412Z" fill="#C1D8ED"/>
<path d="M61.9942 88.049L61.3262 88.0547L61.3945 96.0883L62.0626 96.0827L61.9942 88.049Z" fill="#DEE8F5"/>
<path d="M70.8653 87.9709L70.1973 87.9766L70.2656 96.0102L70.9337 96.0045L70.8653 87.9709Z" fill="#C1D8ED"/>
<path d="M70.3145 87.9787L69.6465 87.9844L69.7149 96.018L70.3829 96.0123L70.3145 87.9787Z" fill="#DEE8F5"/>
<path d="M70.8207 82.8298L61.8359 82.9062L61.8813 88.2412L70.8661 88.1647L70.8207 82.8298Z" fill="#C1D8ED"/>
<path d="M68.4339 82.8532L59.4492 82.9297L59.4946 88.2646L68.4793 88.1882L68.4339 82.8532Z" fill="#DEE8F5"/>
<g opacity="0.53">
<path d="M67.9575 83.6193L59.9395 83.6875L59.9717 87.482L67.9897 87.4138L67.9575 83.6193Z" fill="#F3F5FD"/>
</g>
<path d="M63.967 85.9848C64.1637 85.9831 64.3215 85.7868 64.3194 85.5464C64.3174 85.306 64.1563 85.1125 63.9596 85.1142C63.7629 85.1158 63.6052 85.3121 63.6072 85.5525C63.6093 85.7929 63.7704 85.9864 63.967 85.9848Z" fill="white"/>
</g>
</g>
<defs>
<clipPath id="clip0_8038_12492">
<rect width="71" height="60" fill="white" transform="translate(0.5 39)"/>
</clipPath>
<clipPath id="clip1_8038_12492">
<rect width="71" height="55" fill="white" transform="translate(0.5 41.6094) rotate(-0.487581)"/>
</clipPath>
</defs>
</svg>
