<svg width="72" height="99" viewBox="0 0 72 99" fill="none" xmlns="http://www.w3.org/2000/svg">
<path d="M15.924 17.156C15.472 17.156 15.036 17.086 14.616 16.946C14.196 16.802 13.828 16.598 13.512 16.334C13.2 16.07 12.978 15.756 12.846 15.392L13.788 15.038C13.868 15.262 14.016 15.458 14.232 15.626C14.452 15.79 14.71 15.918 15.006 16.01C15.302 16.102 15.608 16.148 15.924 16.148C16.284 16.148 16.618 16.09 16.926 15.974C17.238 15.854 17.49 15.688 17.682 15.476C17.874 15.264 17.97 15.016 17.97 14.732C17.97 14.44 17.87 14.202 17.67 14.018C17.47 13.83 17.214 13.682 16.902 13.574C16.59 13.462 16.264 13.376 15.924 13.316C15.344 13.22 14.824 13.084 14.364 12.908C13.908 12.728 13.546 12.478 13.278 12.158C13.014 11.838 12.882 11.416 12.882 10.892C12.882 10.404 13.022 9.978 13.302 9.614C13.586 9.25 13.96 8.968 14.424 8.768C14.888 8.568 15.388 8.468 15.924 8.468C16.368 8.468 16.798 8.538 17.214 8.678C17.634 8.814 18.004 9.014 18.324 9.278C18.644 9.542 18.874 9.864 19.014 10.244L18.06 10.592C17.98 10.364 17.83 10.168 17.61 10.004C17.394 9.836 17.138 9.708 16.842 9.62C16.55 9.528 16.244 9.482 15.924 9.482C15.568 9.478 15.236 9.536 14.928 9.656C14.62 9.776 14.37 9.942 14.178 10.154C13.986 10.366 13.89 10.612 13.89 10.892C13.89 11.228 13.978 11.486 14.154 11.666C14.334 11.842 14.578 11.974 14.886 12.062C15.194 12.15 15.54 12.228 15.924 12.296C16.468 12.388 16.972 12.534 17.436 12.734C17.9 12.93 18.272 13.192 18.552 13.52C18.836 13.848 18.978 14.252 18.978 14.732C18.978 15.22 18.836 15.646 18.552 16.01C18.272 16.374 17.9 16.656 17.436 16.856C16.972 17.056 16.468 17.156 15.924 17.156ZM23.4831 12.008H22.1211L22.1151 17H21.1071L21.1131 12.008H20.0811V11H21.1131L21.1071 9.116H22.1151L22.1211 11H23.4831V12.008ZM27.1663 17.156C26.6143 17.156 26.1103 17.014 25.6543 16.73C25.2023 16.446 24.8403 16.066 24.5683 15.59C24.3003 15.11 24.1663 14.58 24.1663 14C24.1663 13.56 24.2443 13.15 24.4003 12.77C24.5563 12.386 24.7703 12.05 25.0423 11.762C25.3183 11.47 25.6383 11.242 26.0023 11.078C26.3663 10.914 26.7543 10.832 27.1663 10.832C27.6183 10.832 28.0323 10.924 28.4083 11.108C28.7883 11.288 29.1123 11.54 29.3803 11.864C29.6523 12.188 29.8543 12.564 29.9863 12.992C30.1223 13.42 30.1723 13.878 30.1363 14.366H25.2403C25.2883 14.706 25.4003 15.01 25.5763 15.278C25.7523 15.542 25.9763 15.752 26.2483 15.908C26.5243 16.064 26.8303 16.144 27.1663 16.148C27.5263 16.148 27.8523 16.056 28.1443 15.872C28.4363 15.684 28.6723 15.428 28.8523 15.104L29.8783 15.344C29.6383 15.876 29.2763 16.312 28.7923 16.652C28.3083 16.988 27.7663 17.156 27.1663 17.156ZM25.2103 13.574H29.1223C29.0903 13.238 28.9823 12.932 28.7983 12.656C28.6143 12.376 28.3803 12.152 28.0963 11.984C27.8123 11.816 27.5023 11.732 27.1663 11.732C26.8303 11.732 26.5223 11.814 26.2423 11.978C25.9623 12.142 25.7303 12.364 25.5463 12.644C25.3663 12.92 25.2543 13.23 25.2103 13.574ZM32.2754 20H31.2674V11H32.2754V12.026C32.4794 11.674 32.7514 11.39 33.0914 11.174C33.4314 10.954 33.8354 10.844 34.3034 10.844C34.7394 10.844 35.1474 10.926 35.5274 11.09C35.9114 11.254 36.2474 11.482 36.5354 11.774C36.8234 12.062 37.0494 12.396 37.2134 12.776C37.3774 13.156 37.4594 13.564 37.4594 14C37.4594 14.436 37.3774 14.846 37.2134 15.23C37.0494 15.614 36.8234 15.952 36.5354 16.244C36.2474 16.532 35.9114 16.758 35.5274 16.922C35.1474 17.086 34.7394 17.168 34.3034 17.168C33.8354 17.168 33.4314 17.06 33.0914 16.844C32.7514 16.624 32.4794 16.338 32.2754 15.986V20ZM34.2914 11.822C33.9034 11.822 33.5634 11.92 33.2714 12.116C32.9794 12.312 32.7534 12.574 32.5934 12.902C32.4374 13.23 32.3594 13.596 32.3594 14C32.3594 14.4 32.4374 14.766 32.5934 15.098C32.7534 15.43 32.9774 15.694 33.2654 15.89C33.5574 16.086 33.8994 16.184 34.2914 16.184C34.6794 16.184 35.0354 16.088 35.3594 15.896C35.6834 15.7 35.9434 15.438 36.1394 15.11C36.3354 14.778 36.4334 14.408 36.4334 14C36.4334 13.6 36.3374 13.236 36.1454 12.908C35.9534 12.576 35.6954 12.312 35.3714 12.116C35.0474 11.92 34.6874 11.822 34.2914 11.822ZM44.5416 17.156C44.0416 17.156 43.5936 17.044 43.1976 16.82C42.8016 16.592 42.4616 16.278 42.1776 15.878C41.8936 15.478 41.6776 15.016 41.5296 14.492C41.3816 13.964 41.3076 13.4 41.3076 12.8C41.3076 12.2 41.3816 11.636 41.5296 11.108C41.6776 10.58 41.8936 10.118 42.1776 9.722C42.4616 9.322 42.8016 9.01 43.1976 8.786C43.5936 8.558 44.0416 8.444 44.5416 8.444C45.0376 8.444 45.4836 8.558 45.8796 8.786C46.2796 9.01 46.6176 9.322 46.8936 9.722C47.1736 10.118 47.3876 10.58 47.5356 11.108C47.6876 11.636 47.7636 12.2 47.7636 12.8C47.7636 13.4 47.6876 13.964 47.5356 14.492C47.3876 15.016 47.1736 15.478 46.8936 15.878C46.6176 16.278 46.2796 16.592 45.8796 16.82C45.4836 17.044 45.0376 17.156 44.5416 17.156ZM44.5416 16.148C45.0416 16.148 45.4596 15.994 45.7956 15.686C46.1356 15.374 46.3896 14.964 46.5576 14.456C46.7256 13.948 46.8096 13.396 46.8096 12.8C46.8096 12.172 46.7216 11.606 46.5456 11.102C46.3736 10.594 46.1176 10.192 45.7776 9.896C45.4416 9.6 45.0296 9.452 44.5416 9.452C44.1576 9.452 43.8216 9.542 43.5336 9.722C43.2496 9.902 43.0136 10.148 42.8256 10.46C42.6376 10.772 42.4956 11.13 42.3996 11.534C42.3076 11.934 42.2616 12.356 42.2616 12.8C42.2616 13.396 42.3476 13.95 42.5196 14.462C42.6916 14.97 42.9456 15.378 43.2816 15.686C43.6216 15.994 44.0416 16.148 44.5416 16.148ZM51.6694 17.156C51.1694 17.156 50.7214 17.044 50.3254 16.82C49.9294 16.592 49.5894 16.278 49.3054 15.878C49.0214 15.478 48.8054 15.016 48.6574 14.492C48.5094 13.964 48.4354 13.4 48.4354 12.8C48.4354 12.2 48.5094 11.636 48.6574 11.108C48.8054 10.58 49.0214 10.118 49.3054 9.722C49.5894 9.322 49.9294 9.01 50.3254 8.786C50.7214 8.558 51.1694 8.444 51.6694 8.444C52.1654 8.444 52.6114 8.558 53.0074 8.786C53.4074 9.01 53.7454 9.322 54.0214 9.722C54.3014 10.118 54.5154 10.58 54.6634 11.108C54.8154 11.636 54.8914 12.2 54.8914 12.8C54.8914 13.4 54.8154 13.964 54.6634 14.492C54.5154 15.016 54.3014 15.478 54.0214 15.878C53.7454 16.278 53.4074 16.592 53.0074 16.82C52.6114 17.044 52.1654 17.156 51.6694 17.156ZM51.6694 16.148C52.1694 16.148 52.5874 15.994 52.9234 15.686C53.2634 15.374 53.5174 14.964 53.6854 14.456C53.8534 13.948 53.9374 13.396 53.9374 12.8C53.9374 12.172 53.8494 11.606 53.6734 11.102C53.5014 10.594 53.2454 10.192 52.9054 9.896C52.5694 9.6 52.1574 9.452 51.6694 9.452C51.2854 9.452 50.9494 9.542 50.6614 9.722C50.3774 9.902 50.1414 10.148 49.9534 10.46C49.7654 10.772 49.6234 11.13 49.5274 11.534C49.4354 11.934 49.3894 12.356 49.3894 12.8C49.3894 13.396 49.4754 13.95 49.6474 14.462C49.8194 14.97 50.0734 15.378 50.4094 15.686C50.7494 15.994 51.1694 16.148 51.6694 16.148ZM56.7893 17V9.608H55.8473L56.1293 8.6H57.7973V17H56.7893Z" fill="#666666"/>
<g clip-path="url(#clip0_8038_12124)">
<path d="M20.742 63.5234H49.9774C50.6953 63.5234 51.2773 62.9302 51.2773 62.1985V40.3819C51.2773 39.6502 50.6953 39.057 49.9774 39.057H20.742C20.024 39.057 19.442 39.6502 19.442 40.3819L19.442 62.1985C19.442 62.9302 20.024 63.5234 20.742 63.5234Z" fill="white"/>
<path d="M49.9776 63.5757H20.7422C20.3833 63.5753 20.0393 63.4298 19.7855 63.1712C19.5318 62.9125 19.3891 62.5619 19.3887 62.1961V40.3795C19.3891 40.0138 19.5318 39.6631 19.7855 39.4045C20.0393 39.1459 20.3833 39.0004 20.7422 39H49.9776C50.3364 39.0004 50.6805 39.1459 50.9342 39.4045C51.188 39.6631 51.3307 40.0138 51.3311 40.3795V62.1961C51.3307 62.5619 51.188 62.9125 50.9342 63.1712C50.6805 63.4298 50.3364 63.5753 49.9776 63.5757ZM20.7422 39.1092C20.4117 39.1096 20.095 39.2436 19.8613 39.4817C19.6277 39.7199 19.4962 40.0428 19.4958 40.3795V62.1961C19.4962 62.5329 19.6277 62.8558 19.8613 63.0939C20.095 63.3321 20.4117 63.466 20.7422 63.4664H49.9776C50.308 63.466 50.6248 63.3321 50.8585 63.0939C51.0921 62.8558 51.2236 62.5329 51.224 62.1961V40.3795C51.2236 40.0427 51.0921 39.7199 50.8585 39.4817C50.6248 39.2436 50.308 39.1096 49.9776 39.1092H20.7422Z" fill="#292A2E"/>
<path d="M23.2303 41.1118L21.1408 41.3138C20.925 41.3347 20.7666 41.5299 20.7871 41.7498L20.9852 43.8795C21.0057 44.0995 21.1972 44.2609 21.413 44.24L23.5025 44.0381C23.7183 44.0172 23.8767 43.822 23.8562 43.602L23.6581 41.4724C23.6376 41.2524 23.4461 41.091 23.2303 41.1118Z" fill="#292A2E"/>
<path d="M29.1802 45.7248L27.0934 45.4959C26.8779 45.4723 26.6843 45.6312 26.6611 45.8509L26.4366 47.9779C26.4134 48.1975 26.5693 48.3948 26.7849 48.4184L28.8717 48.6473C29.0872 48.6709 29.2808 48.512 29.304 48.2923L29.5285 46.1653C29.5517 45.9457 29.3957 45.7484 29.1802 45.7248Z" fill="white"/>
<path d="M28.9142 48.7183C28.8976 48.7182 28.881 48.7173 28.8645 48.7155L26.7777 48.4867C26.6571 48.4733 26.5466 48.4117 26.4705 48.3154C26.3944 48.2192 26.3589 48.096 26.3717 47.9731L26.5963 45.8462C26.6027 45.7853 26.6208 45.7263 26.6496 45.6725C26.6784 45.6188 26.7173 45.5713 26.7641 45.5329C26.8109 45.4945 26.8647 45.4658 26.9223 45.4486C26.98 45.4313 27.0404 45.4258 27.1002 45.4324L29.1869 45.6612C29.3076 45.6745 29.4181 45.7361 29.4943 45.8324C29.5704 45.9287 29.6059 46.0519 29.5929 46.1748L29.3684 48.3017C29.3563 48.4159 29.3033 48.5216 29.2195 48.5985C29.1357 48.6754 29.027 48.718 28.9142 48.7183ZM28.8783 48.5837C28.9647 48.5932 29.0512 48.5673 29.1188 48.5118C29.1865 48.4562 29.2297 48.3756 29.239 48.2876L29.4636 46.1606C29.4729 46.0726 29.4475 45.9844 29.393 45.9155C29.3385 45.8466 29.2593 45.8025 29.173 45.793L27.0861 45.5642C27.0434 45.5595 27.0001 45.5634 26.9588 45.5758C26.9176 45.5881 26.8791 45.6087 26.8456 45.6362C26.8121 45.6637 26.7843 45.6976 26.7637 45.7361C26.743 45.7746 26.7301 45.8168 26.7255 45.8604L26.5009 47.9873C26.4918 48.0753 26.5172 48.1634 26.5717 48.2323C26.6262 48.3012 26.7053 48.3453 26.7916 48.3549L28.8783 48.5837Z" fill="#292A2E"/>
<path d="M38.4408 49.1014C38.4301 49.1014 38.4196 49.0987 38.4102 49.0936C38.4008 49.0885 38.3927 49.0811 38.3868 49.0721C37.0626 47.0648 35.054 46.6993 33.6017 46.7457C32.6196 46.7838 31.6499 46.9831 30.7301 47.336C30.7142 47.3425 30.6964 47.3424 30.6806 47.3357C30.6647 47.3289 30.6522 47.3161 30.6456 47.3C30.639 47.2838 30.639 47.2657 30.6454 47.2495C30.6519 47.2333 30.6644 47.2204 30.6802 47.2136C31.6147 46.8549 32.5998 46.6521 33.5976 46.6132C35.0822 46.5656 37.1374 46.9405 38.4947 48.9981C38.5013 49.008 38.5051 49.0196 38.5057 49.0316C38.5063 49.0436 38.5037 49.0556 38.4981 49.0662C38.4926 49.0768 38.4843 49.0857 38.4742 49.0919C38.4641 49.0981 38.4526 49.1013 38.4408 49.1013V49.1014Z" fill="#292A2E"/>
<path d="M38.464 49.1299C38.458 49.1298 38.452 49.129 38.4462 49.1273L37.1138 48.7438C37.0972 48.739 37.0831 48.7277 37.0747 48.7124C37.0663 48.697 37.0642 48.6789 37.0688 48.662C37.0735 48.6451 37.0846 48.6307 37.0997 48.6222C37.1147 48.6136 37.1325 48.6114 37.1491 48.6162L38.419 48.9817L38.7776 47.6874C38.7826 47.6708 38.7938 47.6569 38.8087 47.6487C38.8236 47.6404 38.8411 47.6384 38.8574 47.6431C38.8738 47.6478 38.8877 47.6589 38.8961 47.6739C38.9046 47.6889 38.907 47.7066 38.9027 47.7234L38.5265 49.0815C38.5226 49.0954 38.5145 49.1076 38.5032 49.1164C38.4919 49.1251 38.4781 49.1298 38.464 49.1299Z" fill="#292A2E"/>
<path d="M40.5545 49.7212L38.465 49.9232C38.2492 49.944 38.0908 50.1393 38.1113 50.3592L38.3094 52.4889C38.3299 52.7089 38.5214 52.8703 38.7372 52.8494L40.8267 52.6475C41.0425 52.6266 41.2009 52.4314 41.1804 52.2114L40.9823 50.0817C40.9618 49.8618 40.7703 49.7004 40.5545 49.7212Z" fill="#04B040"/>
<path d="M47.3827 43.1786L45.2882 43.0413C45.0719 43.0271 44.8852 43.1944 44.8713 43.4149L44.7366 45.5497C44.7227 45.7702 44.8868 45.9604 45.1031 45.9746L47.1977 46.1119C47.414 46.1261 47.6007 45.9588 47.6146 45.7383L47.7493 43.6035C47.7632 43.383 47.5991 43.1927 47.3827 43.1786Z" fill="#292A2E"/>
<path d="M48.5669 50.1388L46.4801 49.91C46.2646 49.8863 46.071 50.0453 46.0479 50.265L45.8233 52.3919C45.8001 52.6116 45.9561 52.8089 46.1716 52.8325L48.2584 53.0613C48.474 53.085 48.6675 52.926 48.6907 52.7064L48.9152 50.5794C48.9384 50.3597 48.7825 50.1625 48.5669 50.1388Z" fill="#0CBC8B"/>
<path d="M37.1111 57.065L35.0216 57.2669C34.8058 57.2878 34.6474 57.483 34.6679 57.703L34.8661 59.8327C34.8865 60.0526 35.0781 60.214 35.2939 60.1932L37.3834 59.9912C37.5992 59.9704 37.7575 59.7751 37.7371 59.5552L37.5389 57.4255C37.5185 57.2055 37.3269 57.0441 37.1111 57.065Z" fill="white"/>
<path d="M35.2569 60.2644C35.1431 60.2641 35.0335 60.2208 34.9494 60.1427C34.8652 60.0647 34.8126 59.9575 34.8017 59.842L34.6036 57.7123C34.5923 57.5892 34.6293 57.4666 34.7066 57.3713C34.7839 57.276 34.8951 57.2159 35.0159 57.204L37.1053 57.0021C37.1651 56.9963 37.2255 57.0026 37.2829 57.0206C37.3403 57.0386 37.3937 57.0679 37.44 57.1069C37.4863 57.146 37.5247 57.1939 37.5528 57.248C37.5809 57.3022 37.5983 57.3614 37.604 57.4224L37.8021 59.552C37.8134 59.6751 37.7764 59.7977 37.6991 59.893C37.6218 59.9883 37.5106 60.0485 37.3898 60.0603L35.3005 60.2623C35.2858 60.2636 35.2712 60.2644 35.2569 60.2644ZM37.1492 57.1325C37.1388 57.1325 37.1283 57.1331 37.1178 57.134L35.0281 57.3358C34.9417 57.3442 34.862 57.3873 34.8067 57.4555C34.7513 57.5237 34.7248 57.6115 34.7329 57.6997L34.931 59.8293C34.9394 59.9174 34.9817 59.9985 35.0486 60.0548C35.1155 60.1112 35.2016 60.1383 35.288 60.1301L37.3775 59.9281C37.4639 59.9197 37.5436 59.8766 37.5989 59.8084C37.6542 59.7402 37.6807 59.6524 37.6727 59.5643L37.4745 57.4346C37.4668 57.352 37.4292 57.2753 37.369 57.2194C37.3088 57.1635 37.2304 57.1325 37.149 57.1323L37.1492 57.1325Z" fill="#292A2E"/>
<path d="M23.6385 56.3462L21.549 56.5482C21.3332 56.569 21.1748 56.7643 21.1953 56.9842L21.3934 59.1139C21.4139 59.3339 21.6054 59.4953 21.8212 59.4744L23.9107 59.2725C24.1265 59.2516 24.2849 59.0564 24.2644 58.8364L24.0663 56.7067C24.0458 56.4868 23.8543 56.3254 23.6385 56.3462Z" fill="#04B040"/>
<path d="M40.3561 48.6343C40.3536 48.6343 40.3511 48.6342 40.3486 48.6339C40.3401 48.6329 40.3319 48.6302 40.3244 48.626C40.317 48.6217 40.3104 48.6161 40.3051 48.6092C40.2998 48.6024 40.2959 48.5946 40.2935 48.5862C40.2912 48.5779 40.2905 48.5691 40.2914 48.5605C40.3892 47.8913 40.5921 47.2426 40.8926 46.6393C41.5429 45.3546 42.5626 44.6178 43.841 44.508C43.8582 44.5066 43.8752 44.5121 43.8884 44.5235C43.9016 44.5348 43.9098 44.551 43.9112 44.5685C43.9127 44.586 43.9072 44.6034 43.8961 44.6169C43.885 44.6303 43.8691 44.6387 43.8519 44.6401C40.8704 44.8957 40.4249 48.5388 40.4206 48.5756C40.4188 48.5918 40.4112 48.6067 40.3993 48.6175C40.3874 48.6283 40.372 48.6343 40.3561 48.6343Z" fill="#292A2E"/>
<path d="M43.2229 45.2984C43.2101 45.2984 43.1975 45.2946 43.1868 45.2873C43.1761 45.28 43.1678 45.2697 43.1628 45.2576C43.1579 45.2455 43.1566 45.2322 43.1591 45.2193C43.1616 45.2065 43.1678 45.1946 43.1768 45.1854L43.7777 44.5702L43.1742 43.9578C43.168 43.9517 43.1631 43.9444 43.1596 43.9363C43.1562 43.9282 43.1544 43.9195 43.1543 43.9107C43.1542 43.9019 43.1558 43.8932 43.1591 43.8851C43.1623 43.8769 43.1672 43.8695 43.1732 43.8633C43.1793 43.857 43.1866 43.8521 43.1946 43.8487C43.2026 43.8454 43.2111 43.8437 43.2198 43.8438C43.2284 43.8438 43.2369 43.8456 43.2449 43.8491C43.2528 43.8525 43.26 43.8576 43.266 43.8639L43.9155 44.5231C43.9277 44.5355 43.9345 44.5524 43.9345 44.57C43.9345 44.5875 43.9277 44.6044 43.9155 44.6168L43.2688 45.2789C43.2628 45.2851 43.2557 45.29 43.2478 45.2933C43.2399 45.2967 43.2315 45.2984 43.2229 45.2984Z" fill="#292A2E"/>
<path d="M36.1286 56.0795C36.1147 56.0795 36.1012 56.075 36.09 56.0665C36.0788 56.0581 36.0706 56.0462 36.0665 56.0327C36.0568 56.0002 35.1215 52.7813 37.5426 51.4461C37.5502 51.4418 37.5585 51.439 37.567 51.438C37.5756 51.4369 37.5843 51.4376 37.5926 51.4401C37.601 51.4425 37.6087 51.4466 37.6154 51.4521C37.6222 51.4577 37.6278 51.4645 37.6319 51.4723C37.636 51.48 37.6385 51.4885 37.6394 51.4973C37.6402 51.5061 37.6394 51.5149 37.6368 51.5233C37.6343 51.5318 37.6301 51.5396 37.6245 51.5463C37.619 51.5531 37.6122 51.5586 37.6045 51.5627C35.2778 52.8457 36.1816 55.9622 36.191 55.9936C36.194 56.0035 36.1946 56.0139 36.1929 56.0242C36.1912 56.0344 36.1872 56.044 36.1811 56.0524C36.1751 56.0607 36.1672 56.0675 36.1581 56.0722C36.149 56.0768 36.139 56.0793 36.1288 56.0793L36.1286 56.0795Z" fill="#292A2E"/>
<path d="M37.2961 52.3301C37.2855 52.3301 37.2751 52.3274 37.2657 52.3224C37.2564 52.3173 37.2484 52.3101 37.2424 52.3012C37.2365 52.2923 37.2327 52.282 37.2315 52.2713C37.2303 52.2606 37.2317 52.2498 37.2355 52.2397L37.5068 51.5294L36.8099 51.2526C36.7941 51.246 36.7815 51.2334 36.7748 51.2174C36.7681 51.2015 36.7678 51.1835 36.7739 51.1673C36.7801 51.1511 36.7923 51.138 36.8078 51.1309C36.8233 51.1237 36.841 51.1231 36.857 51.1291L37.6146 51.4296C37.6225 51.4327 37.6298 51.4375 37.636 51.4435C37.6421 51.4495 37.6471 51.4567 37.6505 51.4647C37.654 51.4727 37.6558 51.4812 37.656 51.4899C37.6562 51.4986 37.6547 51.5073 37.6516 51.5154L37.3567 52.2875C37.352 52.3 37.3437 52.3108 37.3328 52.3184C37.322 52.326 37.3092 52.33 37.2961 52.3301Z" fill="#292A2E"/>
<path d="M28.0409 45.1314C28.0237 45.1314 28.0072 45.1244 27.995 45.112C27.9828 45.0995 27.9759 45.0827 27.9759 45.0651C27.9759 44.0582 27.6844 43.2897 27.1092 42.7808C26.0883 41.8776 24.5003 42.0953 24.4844 42.0976C24.4673 42.1001 24.45 42.0956 24.4362 42.085C24.4224 42.0745 24.4133 42.0588 24.4108 42.0414C24.4084 42.024 24.4128 42.0063 24.4232 41.9922C24.4335 41.9782 24.4489 41.9689 24.466 41.9664C24.5333 41.9565 26.1275 41.7373 27.1939 42.6801C27.7992 43.2153 28.106 44.0177 28.106 45.0651C28.106 45.0738 28.1043 45.0824 28.101 45.0905C28.0978 45.0985 28.093 45.1058 28.0869 45.112C28.0809 45.1181 28.0737 45.123 28.0658 45.1263C28.0579 45.1297 28.0495 45.1314 28.0409 45.1314Z" fill="#292A2E"/>
<path d="M28.0444 45.1567C28.0424 45.1567 28.0403 45.1567 28.0383 45.1567C28.0298 45.1559 28.0215 45.1534 28.014 45.1493C28.0064 45.1453 27.9997 45.1397 27.9943 45.133L27.4095 44.4133C27.3985 44.3997 27.3932 44.3823 27.3948 44.3648C27.3964 44.3473 27.4048 44.3311 27.4181 44.3199C27.4314 44.3087 27.4485 44.3033 27.4657 44.305C27.4829 44.3066 27.4987 44.3152 27.5097 44.3287L28.0533 44.9977L28.7093 44.4441C28.7159 44.4385 28.7234 44.4344 28.7316 44.4318C28.7398 44.4293 28.7483 44.4284 28.7568 44.4292C28.7653 44.43 28.7736 44.4325 28.7812 44.4366C28.7887 44.4407 28.7954 44.4462 28.8008 44.4529C28.8063 44.4596 28.8104 44.4674 28.8129 44.4757C28.8154 44.484 28.8163 44.4927 28.8155 44.5014C28.8147 44.5101 28.8122 44.5185 28.8082 44.5262C28.8042 44.5339 28.7988 44.5407 28.7922 44.5462L28.0858 45.1418C28.0741 45.1515 28.0595 45.1568 28.0444 45.1567Z" fill="#292A2E"/>
<path d="M29.4816 52.4453H27.3827C27.166 52.4453 26.9902 52.6244 26.9902 52.8454V54.9846C26.9902 55.2056 27.166 55.3847 27.3827 55.3847H29.4816C29.6984 55.3847 29.8741 55.2056 29.8741 54.9846V52.8454C29.8741 52.6244 29.6984 52.4453 29.4816 52.4453Z" fill="#0CBC8B"/>
<path d="M34.8264 56.3544C34.8119 56.3543 34.7979 56.3494 34.7865 56.3403C34.7751 56.3312 34.767 56.3185 34.7635 56.3042C34.0385 53.3481 30.4935 53.5554 30.4582 53.5579C30.4497 53.5585 30.4411 53.5574 30.433 53.5546C30.4249 53.5518 30.4174 53.5474 30.411 53.5416C30.4045 53.5359 30.3993 53.5289 30.3955 53.5211C30.3916 53.5133 30.3894 53.5048 30.3888 53.4961C30.3882 53.4874 30.3894 53.4787 30.3921 53.4704C30.3948 53.4621 30.3991 53.4545 30.4048 53.4479C30.4104 53.4413 30.4172 53.436 30.4249 53.4321C30.4326 53.4282 30.4409 53.4259 30.4495 53.4253C31.1024 53.4028 31.7545 53.4903 32.3794 53.6842C33.3075 53.9798 34.4964 54.6686 34.8896 56.2717C34.8916 56.2802 34.8921 56.2889 34.8908 56.2976C34.8895 56.3062 34.8866 56.3145 34.8822 56.3219C34.8778 56.3294 34.872 56.3359 34.8652 56.3411C34.8583 56.3463 34.8505 56.35 34.8422 56.3521C34.8371 56.3535 34.8318 56.3543 34.8264 56.3544Z" fill="#292A2E"/>
<path d="M34.8361 56.3748C34.8226 56.3748 34.8094 56.3705 34.7984 56.3626L34.0625 55.8303C34.0484 55.8201 34.0389 55.8046 34.0361 55.7873C34.0332 55.7699 34.0372 55.7522 34.0472 55.7378C34.0572 55.7235 34.0724 55.7138 34.0894 55.7109C34.1064 55.708 34.1238 55.712 34.1379 55.7222L34.82 56.2156L35.3062 55.497C35.316 55.4827 35.331 55.4729 35.3479 55.4698C35.3648 55.4667 35.3822 55.4705 35.3964 55.4805C35.4105 55.4904 35.4202 55.5057 35.4234 55.5229C35.4265 55.5401 35.4229 55.5578 35.4132 55.5723L34.8896 56.3462C34.8847 56.3534 34.8785 56.3596 34.8712 56.3643C34.864 56.3691 34.8559 56.3723 34.8474 56.3738C34.8437 56.3745 34.8399 56.3748 34.8361 56.3748Z" fill="#292A2E"/>
<path d="M66.8067 99.0002L66.9344 98.9752L64.9383 78.7578L64.8105 78.7829L66.8067 99.0002Z" fill="#494949"/>
<path d="M59.373 99.0002L59.5007 98.9752L57.5047 78.7578L57.377 78.7829L59.373 99.0002Z" fill="#494949"/>
<path d="M42.9441 99.0002L42.8164 98.9752L44.8125 78.7578L44.9402 78.7829L42.9441 99.0002Z" fill="#494949"/>
<path d="M50.3777 99.0002L50.25 98.9752L52.2461 78.7578L52.3738 78.7829L50.3777 99.0002Z" fill="#494949"/>
<path d="M53.0235 69.8562L51.8574 78.7578L51.9863 78.7754L53.1524 69.8737L53.0235 69.8562Z" fill="#494949"/>
<path d="M66.4083 69.8562L65.2422 78.7578L65.3711 78.7754L66.5372 69.8737L66.4083 69.8562Z" fill="#494949"/>
<path d="M51.8685 79.4141H64.96C65.3133 79.4141 65.5996 79.1222 65.5996 78.7622V78.7621C65.5996 78.4021 65.3133 78.1103 64.96 78.1103H51.8685C51.5152 78.1103 51.2289 78.4021 51.2289 78.7621V78.7622C51.2289 79.1222 51.5152 79.4141 51.8685 79.4141Z" fill="#292A2E"/>
<path opacity="0.8" d="M51.8685 79.4141H64.96C65.3133 79.4141 65.5996 79.1222 65.5996 78.7622V78.7621C65.5996 78.4021 65.3133 78.1103 64.96 78.1103H51.8685C51.5152 78.1103 51.2289 78.4021 51.2289 78.7621V78.7622C51.2289 79.1222 51.5152 79.4141 51.8685 79.4141Z" fill="white"/>
<path d="M51.1641 78.7649C51.1643 78.5746 51.2386 78.392 51.3707 78.2574C51.5028 78.1228 51.6819 78.0471 51.8687 78.0469H64.9602C65.1471 78.0469 65.3263 78.1225 65.4585 78.2572C65.5906 78.3919 65.6648 78.5746 65.6648 78.765C65.6648 78.9555 65.5906 79.1381 65.4585 79.2728C65.3263 79.4075 65.1471 79.4832 64.9602 79.4832H51.8687C51.6818 79.4829 51.5027 79.4072 51.3707 79.2725C51.2386 79.1379 51.1643 78.9554 51.1641 78.7649ZM51.8687 78.1794C51.7163 78.1794 51.5701 78.2411 51.4624 78.3509C51.3547 78.4607 51.2941 78.6096 51.2941 78.7649C51.2941 78.9203 51.3547 79.0692 51.4624 79.179C51.5701 79.2888 51.7163 79.3505 51.8687 79.3505H64.9602C65.1126 79.3505 65.2588 79.2888 65.3665 79.179C65.4742 79.0692 65.5348 78.9203 65.5348 78.7649C65.5348 78.6096 65.4742 78.4607 65.3665 78.3509C65.2588 78.2411 65.1126 78.1794 64.9602 78.1794H51.8687Z" fill="#292A2E"/>
<path d="M44.6829 79.4141H57.7745C58.1277 79.4141 58.4141 79.1222 58.4141 78.7622V78.7621C58.4141 78.4021 58.1277 78.1103 57.7745 78.1103H44.6829C44.3297 78.1103 44.0434 78.4021 44.0434 78.7621V78.7622C44.0434 79.1222 44.3297 79.4141 44.6829 79.4141Z" fill="white"/>
<path d="M43.9785 78.7649C43.9788 78.5745 44.0531 78.3919 44.1853 78.2573C44.3174 78.1227 44.4966 78.047 44.6834 78.0469H57.775C57.9619 78.0469 58.1411 78.1225 58.2732 78.2572C58.4054 78.3919 58.4796 78.5746 58.4796 78.765C58.4796 78.9555 58.4054 79.1381 58.2732 79.2728C58.1411 79.4075 57.9619 79.4832 57.775 79.4832H44.6834C44.4966 79.483 44.3174 79.4073 44.1852 79.2726C44.0531 79.138 43.9787 78.9554 43.9785 78.7649ZM44.6834 78.1794C44.608 78.1794 44.5333 78.1946 44.4636 78.224C44.3939 78.2534 44.3305 78.2966 44.2772 78.3509C44.2238 78.4053 44.1815 78.4699 44.1526 78.5409C44.1238 78.612 44.1089 78.6881 44.1089 78.765C44.1089 78.8419 44.1238 78.9181 44.1526 78.9891C44.1815 79.0602 44.2238 79.1247 44.2772 79.1791C44.3305 79.2335 44.3939 79.2766 44.4636 79.306C44.5333 79.3354 44.608 79.3506 44.6834 79.3506H57.775C57.9274 79.3506 58.0735 79.2889 58.1813 79.1791C58.289 79.0693 58.3496 78.9203 58.3496 78.765C58.3496 78.6097 58.289 78.4608 58.1813 78.3509C58.0735 78.2411 57.9274 78.1794 57.775 78.1794H44.6834Z" fill="#292A2E"/>
<path d="M53.7418 69.8631H66.4385C66.6461 69.8631 66.8465 69.7861 67.0025 69.6465C67.1585 69.5069 67.2593 69.3142 67.2861 69.1044L68.1259 62.5306C68.1416 62.4077 68.1314 62.2829 68.096 62.1643C68.0606 62.0458 68.0008 61.9363 67.9206 61.8432C67.8403 61.7501 67.7416 61.6755 67.6308 61.6244C67.5201 61.5733 67.3999 61.5469 67.2783 61.5469H54.5816C54.374 61.5468 54.1734 61.6238 54.0174 61.7635C53.8613 61.9031 53.7605 62.0959 53.7337 62.3058L52.8939 68.8794C52.8782 69.0023 52.8884 69.1272 52.9238 69.2458C52.9592 69.3643 53.0191 69.4738 53.0993 69.5669C53.1796 69.66 53.2784 69.7346 53.3892 69.7857C53.5 69.8368 53.6202 69.8632 53.7418 69.8631Z" fill="#292A2E"/>
<path opacity="0.8" d="M53.7418 69.8631H66.4385C66.6461 69.8631 66.8465 69.7861 67.0025 69.6465C67.1585 69.5069 67.2593 69.3142 67.2861 69.1044L68.1259 62.5306C68.1416 62.4077 68.1314 62.2829 68.096 62.1643C68.0606 62.0458 68.0008 61.9363 67.9206 61.8432C67.8403 61.7501 67.7416 61.6755 67.6308 61.6244C67.5201 61.5733 67.3999 61.5469 67.2783 61.5469H54.5816C54.374 61.5468 54.1734 61.6238 54.0174 61.7635C53.8613 61.9031 53.7605 62.0959 53.7337 62.3058L52.8939 68.8794C52.8782 69.0023 52.8884 69.1272 52.9238 69.2458C52.9592 69.3643 53.0191 69.4738 53.0993 69.5669C53.1796 69.66 53.2784 69.7346 53.3892 69.7857C53.5 69.8368 53.6202 69.8632 53.7418 69.8631Z" fill="white"/>
<path d="M53.051 69.6142C52.9647 69.514 52.9003 69.3962 52.8622 69.2687C52.8241 69.1411 52.8131 69.0067 52.8299 68.8745L53.6698 62.3009C53.6991 62.0753 53.8077 61.8682 53.9754 61.7181C54.1432 61.5679 54.3586 61.4849 54.5819 61.4844H67.2786C67.4094 61.4844 67.5387 61.5128 67.6579 61.5678C67.7771 61.6228 67.8834 61.7031 67.9697 61.8033C68.056 61.9034 68.1204 62.0213 68.1585 62.1488C68.1966 62.2764 68.2076 62.4108 68.1907 62.543L67.3509 69.1166C67.3216 69.3421 67.213 69.5492 67.0453 69.6994C66.8775 69.8495 66.662 69.9326 66.4388 69.9331H53.7419C53.6111 69.933 53.4819 69.9045 53.3627 69.8495C53.2436 69.7946 53.1374 69.7143 53.051 69.6142ZM54.5818 61.6169C54.3901 61.6174 54.2052 61.6887 54.0612 61.8177C53.9172 61.9466 53.824 62.1243 53.7989 62.318L52.959 68.8916C52.9445 69.0051 52.954 69.1205 52.9867 69.23C53.0194 69.3395 53.0747 69.4407 53.1488 69.5267C53.2229 69.6127 53.3142 69.6816 53.4165 69.7289C53.5188 69.7761 53.6299 69.8005 53.7422 69.8005H66.4388C66.6305 69.8001 66.8156 69.7288 66.9596 69.5999C67.1036 69.4709 67.1968 69.2931 67.222 69.0995L68.0618 62.5258C68.0763 62.4123 68.0669 62.2969 68.0342 62.1874C68.0014 62.0779 67.9462 61.9767 67.8721 61.8907C67.798 61.8047 67.7067 61.7358 67.6044 61.6886C67.5021 61.6414 67.391 61.6169 67.2787 61.6169H54.5818Z" fill="#292A2E"/>
<path d="M53.0226 69.8631H65.7193C65.9269 69.8631 66.1274 69.7861 66.2833 69.6465C66.4393 69.5069 66.5401 69.3142 66.5669 69.1044L67.4068 62.5306C67.4225 62.4077 67.4123 62.2829 67.3769 62.1643C67.3414 62.0458 67.2816 61.9363 67.2014 61.8432C67.1212 61.7501 67.0224 61.6755 66.9116 61.6244C66.8009 61.5733 66.6807 61.5469 66.5591 61.5469H53.8626C53.655 61.5469 53.4545 61.6239 53.2986 61.7635C53.1426 61.9031 53.0418 62.0958 53.015 62.3056L52.1752 68.8792C52.1594 69.0021 52.1696 69.127 52.205 69.2455C52.2404 69.3641 52.3002 69.4736 52.3804 69.5667C52.4606 69.6598 52.5594 69.7344 52.6701 69.7855C52.7809 69.8367 52.901 69.8631 53.0226 69.8631Z" fill="white"/>
<path d="M52.3323 69.6142C52.246 69.514 52.1816 69.3962 52.1435 69.2686C52.1053 69.1411 52.0943 69.0067 52.1112 68.8745L52.951 62.3009C52.9804 62.0753 53.089 61.8682 53.2568 61.718C53.4246 61.5678 53.6401 61.4848 53.8634 61.4844H66.5601C66.6909 61.4844 66.8202 61.5128 66.9394 61.5678C67.0586 61.6228 67.1649 61.7031 67.2512 61.8033C67.3375 61.9034 67.4019 62.0213 67.44 62.1488C67.4781 62.2764 67.4891 62.4108 67.4722 62.543L66.6324 69.1166C66.603 69.3421 66.4944 69.5492 66.3267 69.6993C66.159 69.8495 65.9435 69.9325 65.7202 69.9331H53.0234C52.8926 69.933 52.7633 69.9046 52.6441 69.8496C52.5249 69.7946 52.4186 69.7144 52.3323 69.6142ZM53.8634 61.6169C53.6717 61.6174 53.4867 61.6887 53.3427 61.8176C53.1987 61.9465 53.1054 62.1243 53.0802 62.318L52.2404 68.8916C52.2259 69.0051 52.2353 69.1205 52.268 69.23C52.3008 69.3395 52.356 69.4407 52.4301 69.5267C52.5043 69.6127 52.5955 69.6816 52.6979 69.7289C52.8002 69.7761 52.9112 69.8005 53.0235 69.8005H65.7201C65.9118 69.8001 66.0968 69.7288 66.2408 69.5999C66.3848 69.4709 66.4781 69.2931 66.5032 69.0995L67.3431 62.5259C67.3576 62.4124 67.3482 62.297 67.3154 62.1875C67.2827 62.0779 67.2275 61.9768 67.1533 61.8908C67.0792 61.8047 66.9879 61.7358 66.8856 61.6886C66.7833 61.6414 66.6723 61.6169 66.5599 61.6169H53.8634Z" fill="#292A2E"/>
<path d="M43.4271 95.5C43.4271 95.5 43.0785 97.3422 41.3862 97.4448C39.694 97.5475 40.0609 98.9215 40.0609 98.9215H46.5277V95.6285L43.4271 95.5Z" fill="#04B040"/>
<path d="M49.2291 94.3344C49.2291 94.3344 49.714 96.1442 48.2401 96.9977C46.7661 97.8512 47.6904 98.9189 47.6904 98.9189L53.493 96.0092L52.0669 93.0547L49.2291 94.3344Z" fill="#04B040"/>
<path d="M52.8238 93.826L47.9304 78.0919H56.8003C58.5821 78.0919 59.3248 76.5519 59.3248 74.736C59.3248 72.92 57.5733 71.3281 55.7916 71.3281H43.8204C42.7338 71.3281 41.5153 72.0055 40.9188 72.9314C40.3224 73.8574 40.4836 75.2922 40.9157 76.3085L48.7517 95.7063" fill="#262626"/>
<path opacity="0.8" d="M52.8238 93.826L47.9304 78.0919H56.8003C58.5821 78.0919 59.3248 76.5519 59.3248 74.736C59.3248 72.92 57.5733 71.3281 55.7916 71.3281H43.8204C42.7338 71.3281 41.5153 72.0055 40.9188 72.9314C40.3224 73.8574 40.4836 75.2922 40.9157 76.3085L48.7517 95.7063" fill="#0A0A0A"/>
<path d="M47.034 96.8171L48.5817 78.0881L59.325 78.0874C61.8424 77.8863 62.9952 76.4801 62.9586 74.6646C62.9224 72.872 62.032 71.1016 60.2811 71.1016H45.8014C44.506 71.1287 43.0064 72.3776 43.0064 73.814L42.2539 96.5995" fill="#262626"/>
<path d="M63.6904 71.1235C63.6904 71.1235 64.1676 74.2947 63.4113 76.0578C62.4671 78.259 58.9277 78.0874 58.9277 78.0874L59.1272 71.1016L63.6904 71.1235Z" fill="#262626"/>
<path d="M64.2168 70.7679L64.231 70.7687C64.231 70.7687 64.2207 70.4986 64.2168 70.7679Z" fill="#333333"/>
<path d="M64.1992 70.7679L64.2134 70.7687C64.2134 70.7687 64.2032 70.4986 64.1992 70.7679Z" fill="#333333"/>
<path d="M41.1663 57.9107C41.1916 57.8596 41.2319 57.8177 41.2815 57.7909C41.3312 57.7642 41.3877 57.7537 41.4434 57.7611C41.443 57.7561 41.4441 57.751 41.4465 57.7466C41.4491 57.7432 41.4525 57.7406 41.4564 57.739C41.4603 57.7373 41.4646 57.7368 41.4688 57.7374L41.2808 57.6001C41.2247 57.5608 41.1844 57.5022 41.1673 57.435C41.1503 57.3679 41.1576 57.2967 41.188 57.2346C41.22 57.1743 41.2729 57.1282 41.3363 57.1053C41.3998 57.0824 41.4693 57.0843 41.5315 57.1107C41.531 57.108 41.5328 57.1054 41.5332 57.1026L41.456 57.0462C41.4032 57.0091 41.3646 56.9545 41.3468 56.8917C41.3289 56.8289 41.3329 56.7617 41.358 56.7016C41.3746 56.6642 41.3991 56.631 41.4298 56.6044C41.4604 56.5778 41.4965 56.5585 41.5354 56.5478C41.5743 56.5372 41.615 56.5354 41.6546 56.5428C41.6943 56.5501 41.7318 56.5663 41.7645 56.5902L41.9428 56.7203C41.9433 56.7193 41.9428 56.718 41.9435 56.717C41.9442 56.716 41.9461 56.7156 41.9471 56.7146C41.9062 56.6676 41.8822 56.6079 41.8789 56.5452C41.8756 56.4826 41.8934 56.4206 41.9292 56.3695C42.0133 56.2316 42.2075 56.2598 42.3227 56.3439L43.3717 57.0824L43.1844 56.76C43.1466 56.6981 43.1333 56.6239 43.1472 56.5524C43.161 56.4809 43.201 56.4174 43.259 56.3748C43.2897 56.3538 43.3243 56.3395 43.3606 56.3326C43.3969 56.3257 43.4342 56.3265 43.4702 56.3348C43.5063 56.3431 43.5403 56.3588 43.5701 56.3809C43.6 56.4031 43.6251 56.4312 43.644 56.4636L44.6677 58.22C44.7878 58.4261 44.8244 58.6718 44.7696 58.9048C44.7148 59.1379 44.573 59.3401 44.3743 59.4683C44.1439 59.617 43.8751 59.6922 43.6025 59.6842C43.3299 59.6762 43.0658 59.5855 42.8441 59.4235L41.26 58.2662C41.2074 58.2264 41.1696 58.1696 41.1525 58.1051C41.1355 58.0405 41.1404 57.972 41.1663 57.9107Z" fill="#E98862"/>
<g opacity="0.25">
<path d="M42.9813 57.4472C42.9775 57.4526 42.9717 57.4563 42.9652 57.4574C42.9588 57.4585 42.9521 57.457 42.9467 57.4532L41.9501 56.7496C41.9447 56.7458 41.941 56.7398 41.9398 56.7332C41.9387 56.7266 41.9401 56.7197 41.9439 56.7142C41.9477 56.7086 41.9534 56.7048 41.96 56.7036C41.9665 56.7023 41.9732 56.7038 41.9787 56.7075L42.9754 57.4112C42.9781 57.4131 42.9804 57.4156 42.9822 57.4184C42.984 57.4212 42.9853 57.4244 42.9859 57.4277C42.9865 57.431 42.9864 57.4344 42.9857 57.4377C42.9851 57.4409 42.9837 57.4441 42.9819 57.4468L42.9813 57.4472Z" fill="#0C0C0C"/>
</g>
<g opacity="0.25">
<path d="M42.6887 57.9038C42.6849 57.9092 42.6791 57.9128 42.6726 57.9139C42.6662 57.915 42.6595 57.9135 42.6541 57.9097L41.5421 57.1245C41.5367 57.1207 41.5329 57.1147 41.5317 57.1081C41.5305 57.1014 41.5319 57.0945 41.5356 57.0889C41.5395 57.0835 41.5453 57.0798 41.5518 57.0786C41.5583 57.0773 41.565 57.0787 41.5706 57.0823L42.6829 57.8675C42.6856 57.8694 42.6879 57.8718 42.6897 57.8746C42.6915 57.8775 42.6928 57.8806 42.6934 57.8839C42.694 57.8872 42.6939 57.8906 42.6932 57.8939C42.6926 57.8972 42.6912 57.9003 42.6894 57.9031L42.6887 57.9038Z" fill="#0C0C0C"/>
</g>
<g opacity="0.25">
<path d="M42.3754 58.401C42.3716 58.4064 42.3658 58.41 42.3593 58.4111C42.3529 58.4122 42.3462 58.4107 42.3409 58.4069L41.4536 57.7806C41.4483 57.7766 41.4448 57.7707 41.4437 57.7642C41.4426 57.7576 41.4441 57.7508 41.4478 57.7454C41.4516 57.7399 41.4572 57.7361 41.4637 57.7348C41.4701 57.7336 41.4767 57.7349 41.4822 57.7386L42.3695 58.3649C42.3722 58.3668 42.3745 58.3692 42.3763 58.372C42.3781 58.3749 42.3794 58.378 42.38 58.3813C42.3806 58.3846 42.3805 58.388 42.3798 58.3913C42.3791 58.3946 42.3778 58.3977 42.376 58.4005L42.3754 58.401Z" fill="#0C0C0C"/>
</g>
<path d="M45.2725 57.8203L48.2789 63.0391L51.9474 58.1349L54.9939 60.9343L49.7909 67.802L49.7568 67.8508C49.5486 68.1415 49.2712 68.3734 48.9507 68.5246C48.6302 68.6759 48.2772 68.7414 47.925 68.7152C47.5728 68.6889 47.2329 68.5716 46.9375 68.3745C46.642 68.1773 46.4006 67.9067 46.2361 67.5882L41.9609 59.6972L45.2725 57.8203Z" fill="#04B040"/>
<path d="M48.5726 63.6653C48.5792 63.6653 48.5856 63.6636 48.5913 63.6604C48.597 63.6571 48.6018 63.6524 48.6052 63.6467C48.6086 63.6411 48.6105 63.6346 48.6108 63.6279C48.611 63.6213 48.6096 63.6147 48.6066 63.6087L48.3119 63.0201C48.3071 63.0113 48.2991 63.0047 48.2897 63.0017C48.2802 62.9987 48.2699 62.9997 48.2611 63.0043C48.2523 63.0088 48.2455 63.0168 48.2423 63.0263C48.2391 63.0359 48.2396 63.0463 48.2438 63.0555L48.5386 63.6441C48.5418 63.6505 48.5467 63.6559 48.5527 63.6596C48.5587 63.6634 48.5656 63.6653 48.5726 63.6653Z" fill="#0C0C0C"/>
<path d="M52.1583 63.0112L52.082 63.0156L52.1738 64.6639L52.25 64.6595L52.1583 63.0112Z" fill="#0C0C0C"/>
<path d="M61.8448 51.0814C61.8448 51.0814 61.9857 52.9162 62.3986 53.5776C63.5872 55.4816 63.9497 57.6352 62.794 58.776C61.6383 59.9169 54.1857 60.0206 53.5917 57.435C53.0915 55.2579 54.109 55.0112 54.3367 53.2077C54.4398 52.3917 54.7293 50.6797 54.7293 50.6797" fill="#0A0A0A"/>
<path d="M55.4883 57.0154C55.5013 57.0137 55.6439 59.428 58.396 59.2178C60.3013 59.0723 60.9805 57.012 61.0242 57.012C60.8188 56.9675 60.4729 56.9028 60.3816 56.8529C60.0816 56.6886 59.7104 56.5177 59.6137 55.9239C59.558 55.5816 59.6527 53.8307 59.6234 53.4844L56.6989 54.1497C56.7398 54.881 57.0258 56.5765 56.0233 56.8765C55.8565 56.9264 55.6769 56.9721 55.4883 57.0154Z" fill="#E98862"/>
<path opacity="0.52" d="M56.6582 56.1901C56.704 56.0396 56.7335 55.8845 56.7462 55.7275C56.7783 55.3692 56.7719 55.0084 56.7271 54.6515C57.3215 54.5697 57.8815 54.3196 58.3434 53.9297C58.3977 54.1341 58.6964 55.0273 58.6137 55.2215C58.4574 55.5888 57.7229 56.1901 56.6582 56.1901Z" fill="#0C0C0C"/>
<path d="M57.0468 55.426C58.201 55.5261 59.6874 55.0384 59.9786 53.4699L60.2414 52.0546C60.5327 50.486 59.9605 49.0587 58.5117 48.779C57.0627 48.4995 55.7435 49.5622 55.4523 51.1308L55.3359 51.7573C55.224 52.3592 54.9874 55.2474 57.0468 55.426Z" fill="#E98862"/>
<path d="M55.748 51.8234C55.8483 51.8234 55.9297 51.7405 55.9297 51.6382C55.9297 51.536 55.8483 51.4531 55.748 51.4531C55.6477 51.4531 55.5664 51.536 55.5664 51.6382C55.5664 51.7405 55.6477 51.8234 55.748 51.8234Z" fill="#0C0C0C"/>
<path d="M57.6094 52.0812C57.7097 52.0812 57.791 51.9983 57.791 51.8961C57.791 51.7938 57.7097 51.7109 57.6094 51.7109C57.5091 51.7109 57.4277 51.7938 57.4277 51.8961C57.4277 51.9983 57.5091 52.0812 57.6094 52.0812Z" fill="#0C0C0C"/>
<path d="M56.5885 53.2535C56.5875 53.2534 56.5866 53.2533 56.5857 53.2531C56.527 53.2413 56.469 53.2262 56.4119 53.208C56.3267 53.1801 56.2151 53.1338 56.2298 53.0555C56.2464 52.9662 56.6655 52.0481 56.7134 51.9438C56.7176 51.9347 56.7251 51.9276 56.7344 51.9242C56.7437 51.9207 56.7539 51.9212 56.7628 51.9254C56.7718 51.9297 56.7787 51.9374 56.7821 51.9468C56.7855 51.9563 56.7851 51.9667 56.7809 51.9758C56.6021 52.3669 56.3141 53.0098 56.303 53.0694C56.3126 53.0973 56.454 53.1503 56.5997 53.1785C56.6092 53.1802 56.6177 53.1857 56.6233 53.1937C56.629 53.2017 56.6314 53.2116 56.6299 53.2214C56.6285 53.2312 56.6234 53.24 56.6157 53.246C56.608 53.2519 56.5983 53.2546 56.5887 53.2534L56.5885 53.2535Z" fill="#0C0C0C"/>
<path d="M56.8032 53.9266C56.5668 53.8953 56.341 53.8078 56.1438 53.6713C56.1356 53.6658 56.1298 53.6572 56.1278 53.6473C56.1257 53.6375 56.1276 53.6272 56.133 53.6188C56.1384 53.6104 56.1468 53.6045 56.1565 53.6024C56.1662 53.6003 56.1762 53.6022 56.1845 53.6077C56.611 53.891 57.0349 53.9368 57.4102 53.7403C57.4178 53.736 57.4256 53.7323 57.4336 53.7289C57.4428 53.7255 57.4531 53.726 57.462 53.7303C57.4709 53.7345 57.4778 53.7423 57.4812 53.7517C57.4846 53.7612 57.4841 53.7716 57.4799 53.7807C57.4757 53.7898 57.4681 53.7968 57.4589 53.8003C57.4559 53.8015 57.451 53.8042 57.4442 53.8077C57.2469 53.9115 57.0237 53.9529 56.8032 53.9266Z" fill="#0C0C0C"/>
<path d="M61.4008 52.5488L60.1018 52.306C59.1182 51.9003 58.8208 50.1646 58.8208 50.1646C58.8208 50.1646 57.6259 51.3516 54.7305 50.6765C54.7305 50.6765 55.3111 46.5605 59.5891 47.7573C60.9685 48.1432 61.9585 49.5601 61.8352 51.4536C61.7483 52.7805 61.4008 52.5488 61.4008 52.5488Z" fill="#0A0A0A"/>
<path d="M59.7985 53.9303C60.2388 54.0152 60.6849 53.6039 60.7683 53.1548C60.8517 52.7057 60.5407 52.3896 60.1003 52.3047L59.8175 52.5617L59.4199 53.857L59.7985 53.9303Z" fill="#E98862"/>
<path d="M56.4472 51.1937C56.3188 51.1092 56.1704 51.0614 56.0176 51.0554C55.9424 51.052 55.8671 51.0601 55.7943 51.0795C55.7221 51.0984 55.6526 51.1265 55.5873 51.1631C55.5789 51.1682 55.5728 51.1763 55.57 51.1858C55.5672 51.1953 55.568 51.2055 55.5722 51.2145C55.5765 51.2234 55.5838 51.2304 55.5929 51.2341C55.6019 51.2378 55.612 51.2379 55.6211 51.2344L55.6238 51.2331C55.6842 51.203 55.748 51.1808 55.8138 51.1669C55.8788 51.1527 55.9456 51.1486 56.0118 51.1548C56.1432 51.166 56.2693 51.2124 56.3774 51.2894L56.3809 51.292C56.3871 51.2972 56.3942 51.3011 56.4019 51.3034C56.4096 51.3057 56.4177 51.3064 56.4256 51.3054C56.4336 51.3044 56.4413 51.3017 56.4482 51.2975C56.4551 51.2934 56.4611 51.2878 56.4658 51.2812C56.4705 51.2746 56.4738 51.2671 56.4755 51.2591C56.4773 51.2511 56.4774 51.2428 56.4758 51.2348C56.4743 51.2268 56.4712 51.2192 56.4666 51.2124C56.4621 51.2057 56.4562 51.2 56.4494 51.1956L56.4472 51.1937Z" fill="#0C0C0C"/>
<path d="M57.6051 51.4685C57.7331 51.4366 57.8672 51.4397 57.9937 51.4776C58.0576 51.4963 58.1184 51.5247 58.1741 51.5619C58.2304 51.5991 58.282 51.6435 58.3275 51.6939L58.3296 51.696C58.3369 51.7026 58.3463 51.7062 58.356 51.7061C58.3658 51.706 58.3751 51.7022 58.3822 51.6954C58.3893 51.6887 58.3937 51.6794 58.3945 51.6695C58.3953 51.6597 58.3924 51.6498 58.3864 51.642C58.3385 51.5838 58.2837 51.5321 58.2231 51.4879C58.162 51.443 58.0947 51.4077 58.0234 51.3832C57.8788 51.3325 57.7235 51.3224 57.5737 51.3539C57.5594 51.3581 57.5472 51.3676 57.5396 51.3806C57.532 51.3936 57.5294 51.409 57.5326 51.4238C57.5357 51.4386 57.5442 51.4517 57.5564 51.4603C57.5686 51.4689 57.5835 51.4725 57.5982 51.4703L57.6006 51.4697L57.6051 51.4685Z" fill="#0C0C0C"/>
<path d="M56.7531 54.2821C56.7102 54.2771 56.6679 54.2684 56.6265 54.2561C56.617 54.2534 56.609 54.2468 56.6043 54.238C56.5995 54.2292 56.5983 54.2188 56.6011 54.2092C56.6038 54.1995 56.6102 54.1913 56.6188 54.1865C56.6275 54.1816 56.6377 54.1804 56.6471 54.1832C56.8962 54.2561 57.0378 54.1595 57.0438 54.1553C57.0519 54.1495 57.0619 54.1473 57.0716 54.149C57.0813 54.1507 57.09 54.1563 57.0957 54.1646C57.1013 54.1728 57.1036 54.183 57.1019 54.1929C57.1002 54.2028 57.0947 54.2116 57.0866 54.2174C56.9861 54.2776 56.8682 54.3004 56.7531 54.2821Z" fill="#0C0C0C"/>
<path d="M60.0978 52.2879L60.1108 52.2513C58.465 51.6491 58.8675 50.003 58.8717 49.9864L58.8348 49.9766C58.8304 49.9935 58.4187 51.6735 60.0978 52.2879Z" fill="#0C0C0C"/>
<path opacity="0.1" d="M58.1273 53.1464C58.1423 53.0043 58.0004 52.8723 57.8104 52.8514C57.6204 52.8306 57.4543 52.9289 57.4393 53.0709C57.4243 53.213 57.5661 53.345 57.7561 53.3659C57.9461 53.3867 58.1123 53.2884 58.1273 53.1464Z" fill="#0C0C0C"/>
<path opacity="0.1" d="M55.745 52.8214C55.7296 52.9632 55.5635 53.0614 55.3735 53.0408C55.3406 53.0372 55.3082 53.0301 55.2768 53.0197C55.2661 52.8509 55.2638 52.6883 55.2669 52.538C55.3194 52.5239 55.374 52.52 55.428 52.5264C55.6178 52.547 55.7598 52.679 55.745 52.8214Z" fill="#0C0C0C"/>
<path d="M52.0694 62.3371C52.1561 63.3751 52.5777 69.8267 52.6611 71.1055L63.6891 71.1294C63.7541 69.9761 64.5037 64.9341 64.7497 62.6791C64.9846 60.5274 65.4455 59.4501 65.1074 58.8139C64.5554 57.7743 63.0471 57.1735 62.0185 57.0315C61.3905 56.9449 60.4459 56.8828 60.4459 56.8828C60.4459 56.8828 60.366 58.5318 58.459 58.6236C55.863 58.7484 56.0363 56.8828 56.0234 56.8828C55.6029 56.8828 53.2004 57.1541 52.6126 57.5092C51.0113 58.4756 51.8853 60.1375 52.0694 62.3371Z" fill="#04B040"/>
<path d="M44.912 63.0578L45.975 68.3239C45.9966 68.4308 46.0535 68.527 46.1362 68.5963C46.2189 68.6657 46.3225 68.704 46.4296 68.7049L53.7493 68.7684C53.8191 68.7691 53.8882 68.7537 53.9515 68.7236C54.0147 68.6935 54.0706 68.6493 54.115 68.5943C54.1593 68.5394 54.191 68.475 54.2078 68.4059C54.2246 68.3368 54.226 68.2648 54.2119 68.1951L53.1489 62.9289C53.1273 62.822 53.0704 62.7259 52.9877 62.6565C52.9049 62.5872 52.8014 62.5489 52.6943 62.548L45.3746 62.4844C45.3047 62.4838 45.2357 62.4991 45.1724 62.5292C45.1091 62.5593 45.0533 62.6035 45.0089 62.6585C44.9646 62.7135 44.9328 62.7778 44.9161 62.8469C44.8993 62.916 44.8979 62.9881 44.912 63.0578Z" fill="#292A2E"/>
<path d="M51.7384 66.7975C51.7345 66.8668 51.7553 66.9353 51.797 66.9902C51.8387 67.0451 51.8984 67.0829 51.9652 67.0964L52.1906 67.1471C52.1865 67.1484 52.1829 67.1508 52.18 67.1539C52.177 67.157 52.1749 67.1608 52.1737 67.165C52.1732 67.1698 52.1743 67.1748 52.1768 67.179C52.1226 67.1945 52.0745 67.2268 52.0392 67.2714C52.0039 67.3161 51.9831 67.3709 51.9797 67.4281C51.9794 67.4948 52.0012 67.5597 52.0415 67.6123C52.0819 67.6648 52.1384 67.702 52.202 67.7177L54.1048 68.1486C54.2021 68.1707 54.3015 68.1818 54.4012 68.1817C54.6232 68.1817 54.842 68.1266 55.0385 68.0212C55.2351 67.9158 55.4035 67.7633 55.5293 67.5768C55.6628 67.3794 55.7154 67.1368 55.676 66.9005C55.6367 66.6643 55.5084 66.453 55.3185 66.3116L53.6999 65.1053C53.6643 65.0788 53.6229 65.0614 53.5793 65.0547L53.7282 65.792L53.6885 65.7826L53.6801 65.7811L52.4388 65.5238C52.3005 65.4927 52.1111 65.5437 52.0866 65.7044C52.0735 65.7658 52.0812 65.8299 52.1083 65.8863C52.1355 65.9427 52.1806 65.9881 52.2362 66.0151C52.2354 66.0158 52.2339 66.0166 52.2339 66.0182C52.2339 66.0198 52.2347 66.0205 52.2347 66.022L52.0201 65.9738C51.9808 65.9649 51.9401 65.9651 51.9009 65.9742C51.8618 65.9833 51.825 66.0011 51.7934 66.0264C51.7618 66.0517 51.7361 66.0838 51.7181 66.1205C51.7001 66.1571 51.6903 66.1974 51.6895 66.2383C51.6895 66.3038 51.7117 66.3672 51.7523 66.4178C51.793 66.4685 51.8496 66.5032 51.9125 66.5162L52.0049 66.5372C52.0057 66.5403 52.0049 66.5435 52.0065 66.5459C51.9391 66.5463 51.8743 66.5724 51.8247 66.6189C51.7752 66.6654 51.7444 66.7291 51.7384 66.7975Z" fill="#E98862"/>
<g opacity="0.25">
<path d="M53.4703 66.2797C53.4688 66.2862 53.4649 66.2919 53.4594 66.2955C53.4539 66.2991 53.4472 66.3004 53.4408 66.2991L52.2531 66.0508C52.2498 66.0502 52.2467 66.0489 52.2439 66.0471C52.2411 66.0452 52.2386 66.0428 52.2368 66.04C52.2349 66.0371 52.2336 66.0339 52.2329 66.0306C52.2323 66.0272 52.2323 66.0238 52.2329 66.0204C52.2336 66.0171 52.2349 66.0139 52.2368 66.0111C52.2387 66.0083 52.2412 66.0059 52.244 66.004C52.2468 66.0022 52.25 66.001 52.2533 66.0004C52.2566 65.9998 52.26 65.9999 52.2632 66.0007L53.4509 66.249C53.4541 66.2496 53.4572 66.2509 53.4599 66.2528C53.4626 66.2547 53.465 66.2571 53.4668 66.2599C53.4686 66.2627 53.4699 66.2658 53.4705 66.2691C53.4711 66.2724 53.4711 66.2758 53.4704 66.2791L53.4703 66.2797Z" fill="#0C0C0C"/>
</g>
<g opacity="0.25">
<path d="M53.377 66.816C53.3755 66.8225 53.3716 66.8281 53.3661 66.8317C53.3606 66.8353 53.3539 66.8366 53.3475 66.8353L52.022 66.5582C52.0188 66.5576 52.0157 66.5562 52.013 66.5544C52.0102 66.5525 52.0079 66.5501 52.0061 66.5473C52.0043 66.5445 52.003 66.5413 52.0024 66.538C52.0018 66.5347 52.0018 66.5314 52.0025 66.5281C52.004 66.5215 52.0079 66.5159 52.0135 66.5122C52.019 66.5085 52.0256 66.5071 52.0321 66.5082L53.3575 66.7852C53.3641 66.7866 53.3698 66.7906 53.3734 66.7962C53.3771 66.8019 53.3784 66.8088 53.377 66.8155L53.377 66.816Z" fill="#0C0C0C"/>
</g>
<g opacity="0.25">
<path d="M53.2803 67.3928C53.2789 67.3993 53.275 67.405 53.2694 67.4086C53.2639 67.4122 53.2572 67.4135 53.2508 67.4122L52.1935 67.1912C52.1871 67.1897 52.1815 67.1858 52.1779 67.1801C52.1743 67.1745 52.173 67.1676 52.1743 67.161C52.1757 67.1545 52.1795 67.1487 52.185 67.1449C52.1905 67.1412 52.1972 67.1398 52.2037 67.1411L53.2609 67.3621C53.2674 67.3634 53.2731 67.3674 53.2768 67.373C53.2804 67.3787 53.2817 67.3856 53.2804 67.3922L53.2803 67.3928Z" fill="#0C0C0C"/>
</g>
<path d="M54.2207 68.9198L64.5438 70.8212C64.866 70.857 65.1918 70.8161 65.4959 70.7019C65.7999 70.5877 66.0739 70.4033 66.2963 70.163C66.5186 69.9228 66.6833 69.6333 66.7775 69.3173C66.8716 69.0013 66.8927 68.6673 66.8389 68.3416L65.3937 59.5861C65.3487 59.3086 65.2505 59.0429 65.1046 58.8042C64.9587 58.5655 64.768 58.3584 64.5435 58.195C64.3189 58.0315 64.0649 57.9148 63.7961 57.8516C63.5272 57.7884 63.2487 57.7798 62.9766 57.8265C62.7045 57.8731 62.4441 57.9741 62.2104 58.1235C61.9766 58.2729 61.7741 58.4679 61.6143 58.6972C61.4546 58.9266 61.3409 59.1858 61.2797 59.46C61.2184 59.7342 61.2109 60.0181 61.2575 60.2953L62.2432 66.3227L54.6745 65.3539L54.2207 68.9198Z" fill="#04B040"/>
<path d="M64.545 70.858C64.5545 70.8578 64.5636 70.8541 64.5706 70.8475C64.5775 70.8409 64.5818 70.8319 64.5826 70.8223C64.5834 70.8127 64.5807 70.8031 64.5749 70.7954C64.5692 70.7877 64.5608 70.7824 64.5515 70.7807L54.264 68.8859L54.7083 65.3951L62.2386 66.3591C62.2446 66.3599 62.2506 66.3593 62.2563 66.3573C62.2619 66.3552 62.267 66.3519 62.2712 66.3474C62.2752 66.3431 62.2783 66.3378 62.28 66.3321C62.2818 66.3263 62.2822 66.3202 62.2813 66.3143L61.6553 62.4623C61.6545 62.4572 61.6528 62.4524 61.6501 62.448C61.6475 62.4436 61.644 62.4398 61.6399 62.4369C61.6358 62.4339 61.6312 62.4318 61.6263 62.4306C61.6214 62.4295 61.6163 62.4294 61.6114 62.4303C61.6014 62.432 61.5925 62.4377 61.5866 62.4461C61.5807 62.4545 61.5783 62.4649 61.58 62.4751L62.1977 66.2756L54.6804 65.3134C54.6704 65.3122 54.6603 65.315 54.6523 65.3213C54.6444 65.3276 54.6391 65.3368 54.6377 65.347L54.1839 68.9128C54.1827 68.9227 54.1852 68.9328 54.191 68.9408C54.1967 68.9489 54.2054 68.9544 54.215 68.9562L64.5382 70.8573C64.5404 70.8577 64.5427 70.8579 64.545 70.858Z" fill="#0C0C0C"/>
<path d="M62.2504 66.2824L62.2383 66.3594L62.9023 66.4677L62.9144 66.3908L62.2504 66.2824Z" fill="#0C0C0C"/>
<path d="M71.4544 98.96H0.54552C0.533447 98.96 0.521869 98.9551 0.513333 98.9464C0.504796 98.9377 0.5 98.9259 0.5 98.9136C0.5 98.9013 0.504796 98.8895 0.513333 98.8808C0.521869 98.8721 0.533447 98.8672 0.54552 98.8672H71.4542C71.4663 98.8672 71.4779 98.8721 71.4864 98.8808C71.4949 98.8895 71.4997 98.9013 71.4997 98.9136C71.4997 98.9259 71.4949 98.9377 71.4864 98.9464C71.4779 98.9551 71.4663 98.96 71.4542 98.96H71.4544Z" fill="#292A2E"/>
<g opacity="0.65">
<path d="M71.4544 98.96H0.54552C0.533447 98.96 0.521869 98.9551 0.513333 98.9464C0.504796 98.9377 0.5 98.9259 0.5 98.9136C0.5 98.9013 0.504796 98.8895 0.513333 98.8808C0.521869 98.8721 0.533447 98.8672 0.54552 98.8672H71.4542C71.4663 98.8672 71.4779 98.8721 71.4864 98.8808C71.4949 98.8895 71.4997 98.9013 71.4997 98.9136C71.4997 98.9259 71.4949 98.9377 71.4864 98.9464C71.4779 98.9551 71.4663 98.96 71.4542 98.96H71.4544Z" fill="#292A2E"/>
</g>
<path d="M4.90701 99.0002L4.7793 98.9752L6.77542 78.7578L6.90314 78.7829L4.90701 99.0002Z" fill="#494949"/>
<path d="M12.3387 99.0002L12.2109 98.9752L14.207 78.7578L14.3347 78.7829L12.3387 99.0002Z" fill="#494949"/>
<path d="M28.7676 99.0002L28.8953 98.9752L26.8992 78.7578L26.7715 78.7829L28.7676 99.0002Z" fill="#494949"/>
<path d="M21.3359 99.0002L21.4636 98.9752L19.4676 78.7578L19.3398 78.7829L21.3359 99.0002Z" fill="#494949"/>
<path d="M18.6895 69.8575L18.5605 69.875L19.7266 78.7766L19.8556 78.7591L18.6895 69.8575Z" fill="#494949"/>
<path d="M5.30469 69.8575L5.17578 69.875L6.34187 78.7766L6.47079 78.7591L5.30469 69.8575Z" fill="#494949"/>
<path d="M19.8444 78.1094H6.75284C6.39962 78.1094 6.11328 78.4012 6.11328 78.7612V78.7613C6.11328 79.1213 6.39962 79.4132 6.75284 79.4132H19.8444C20.1977 79.4132 20.484 79.1213 20.484 78.7613V78.7612C20.484 78.4012 20.1977 78.1094 19.8444 78.1094Z" fill="#292A2E"/>
<path opacity="0.8" d="M19.8444 78.1094H6.75284C6.39962 78.1094 6.11328 78.4012 6.11328 78.7612V78.7613C6.11328 79.1213 6.39962 79.4132 6.75284 79.4132H19.8444C20.1977 79.4132 20.484 79.1213 20.484 78.7613V78.7612C20.484 78.4012 20.1977 78.1094 19.8444 78.1094Z" fill="white"/>
<path d="M19.845 79.4832H6.75342C6.66089 79.4832 6.56927 79.4646 6.48378 79.4285C6.3983 79.3924 6.32062 79.3395 6.2552 79.2728C6.18977 79.2061 6.13787 79.127 6.10246 79.0398C6.06705 78.9527 6.04883 78.8593 6.04883 78.765C6.04883 78.6707 6.06705 78.5773 6.10246 78.4902C6.13787 78.4031 6.18977 78.3239 6.2552 78.2572C6.32062 78.1905 6.3983 78.1376 6.48378 78.1015C6.56927 78.0655 6.66089 78.0469 6.75342 78.0469H19.845C20.0319 78.0469 20.2111 78.1225 20.3432 78.2572C20.4754 78.3919 20.5496 78.5746 20.5496 78.765C20.5496 78.9555 20.4754 79.1381 20.3432 79.2728C20.2111 79.4075 20.0319 79.4832 19.845 79.4832ZM6.75342 78.1795C6.67797 78.1795 6.60326 78.1946 6.53355 78.2241C6.46385 78.2535 6.40051 78.2966 6.34716 78.351C6.29381 78.4054 6.25149 78.4699 6.22262 78.541C6.19375 78.612 6.17889 78.6882 6.17889 78.7651C6.17889 78.842 6.19375 78.9181 6.22262 78.9892C6.25149 79.0602 6.29381 79.1248 6.34716 79.1792C6.40051 79.2335 6.46385 79.2767 6.53355 79.3061C6.60326 79.3355 6.67797 79.3507 6.75342 79.3507H19.845C19.9974 79.3507 20.1435 79.289 20.2513 79.1792C20.359 79.0693 20.4195 78.9204 20.4195 78.7651C20.4195 78.6098 20.359 78.4608 20.2513 78.351C20.1435 78.2412 19.9974 78.1795 19.845 78.1795H6.75342Z" fill="#292A2E"/>
<path d="M27.028 78.1094H13.9364C13.5832 78.1094 13.2969 78.4012 13.2969 78.7612V78.7613C13.2969 79.1213 13.5832 79.4132 13.9364 79.4132H27.028C27.3813 79.4132 27.6676 79.1213 27.6676 78.7613V78.7612C27.6676 78.4012 27.3813 78.1094 27.028 78.1094Z" fill="white"/>
<path d="M27.0286 79.4832H13.937C13.8445 79.4832 13.7529 79.4646 13.6674 79.4285C13.5819 79.3924 13.5042 79.3395 13.4388 79.2728C13.3734 79.2061 13.3215 79.127 13.2861 79.0398C13.2506 78.9527 13.2324 78.8593 13.2324 78.765C13.2324 78.6707 13.2506 78.5773 13.2861 78.4902C13.3215 78.4031 13.3734 78.3239 13.4388 78.2572C13.5042 78.1905 13.5819 78.1376 13.6674 78.1015C13.7529 78.0655 13.8445 78.0469 13.937 78.0469H27.0286C27.1211 78.0469 27.2128 78.0655 27.2982 78.1015C27.3837 78.1376 27.4614 78.1905 27.5268 78.2572C27.5923 78.3239 27.6442 78.4031 27.6796 78.4902C27.715 78.5773 27.7332 78.6707 27.7332 78.765C27.7332 78.8593 27.715 78.9527 27.6796 79.0398C27.6442 79.127 27.5923 79.2061 27.5268 79.2728C27.4614 79.3395 27.3837 79.3924 27.2982 79.4285C27.2128 79.4646 27.1211 79.4832 27.0286 79.4832ZM13.937 78.1795C13.8616 78.1795 13.7869 78.1946 13.7171 78.2241C13.6474 78.2535 13.5841 78.2966 13.5308 78.351C13.4774 78.4054 13.4351 78.4699 13.4062 78.541C13.3773 78.612 13.3625 78.6882 13.3625 78.7651C13.3625 78.842 13.3773 78.9181 13.4062 78.9892C13.4351 79.0602 13.4774 79.1248 13.5308 79.1792C13.5841 79.2335 13.6474 79.2767 13.7171 79.3061C13.7869 79.3355 13.8616 79.3507 13.937 79.3507H27.0286C27.1041 79.3507 27.1788 79.3355 27.2485 79.3061C27.3182 79.2767 27.3815 79.2335 27.4349 79.1792C27.4882 79.1248 27.5305 79.0602 27.5594 78.9892C27.5883 78.9181 27.6031 78.842 27.6031 78.7651C27.6031 78.6882 27.5883 78.612 27.5594 78.541C27.5305 78.4699 27.4882 78.4054 27.4349 78.351C27.3815 78.2966 27.3182 78.2535 27.2485 78.2241C27.1788 78.1946 27.1041 78.1795 27.0286 78.1795H13.937Z" fill="#292A2E"/>
<path d="M17.9714 69.8631H5.27473C5.06714 69.8631 4.86665 69.7861 4.71067 69.6465C4.55469 69.5069 4.45389 69.3142 4.42708 69.1044L3.58723 62.5306C3.57154 62.4077 3.58174 62.2829 3.61715 62.1643C3.65257 62.0458 3.71239 61.9363 3.79261 61.8432C3.87284 61.7501 3.97162 61.6755 4.08238 61.6244C4.19313 61.5733 4.31331 61.5469 4.43488 61.5469H17.1316C17.3391 61.5469 17.5396 61.6239 17.6956 61.7635C17.8516 61.9031 17.9524 62.0958 17.9792 62.3056L18.819 68.8792C18.8347 69.0021 18.8246 69.127 18.7892 69.2455C18.7538 69.3641 18.694 69.4736 18.6137 69.5667C18.5335 69.6599 18.4347 69.7345 18.324 69.7856C18.2132 69.8367 18.093 69.8631 17.9714 69.8631Z" fill="#292A2E"/>
<path opacity="0.8" d="M17.9714 69.8631H5.27473C5.06714 69.8631 4.86665 69.7861 4.71067 69.6465C4.55469 69.5069 4.45389 69.3142 4.42708 69.1044L3.58723 62.5306C3.57154 62.4077 3.58174 62.2829 3.61715 62.1643C3.65257 62.0458 3.71239 61.9363 3.79261 61.8432C3.87284 61.7501 3.97162 61.6755 4.08238 61.6244C4.19313 61.5733 4.31331 61.5469 4.43488 61.5469H17.1316C17.3391 61.5469 17.5396 61.6239 17.6956 61.7635C17.8516 61.9031 17.9524 62.0958 17.9792 62.3056L18.819 68.8792C18.8347 69.0021 18.8246 69.127 18.7892 69.2455C18.7538 69.3641 18.694 69.4736 18.6137 69.5667C18.5335 69.6599 18.4347 69.7345 18.324 69.7856C18.2132 69.8367 18.093 69.8631 17.9714 69.8631Z" fill="white"/>
<path d="M17.972 69.9331H5.27528C5.05203 69.9325 4.83654 69.8495 4.6688 69.6993C4.50106 69.5492 4.39245 69.3421 4.36312 69.1166L3.52334 62.543C3.50643 62.4108 3.51739 62.2764 3.55549 62.1488C3.59359 62.0213 3.65795 61.9034 3.74428 61.8033C3.83061 61.7031 3.93691 61.6228 4.0561 61.5678C4.17528 61.5128 4.30461 61.4844 4.43543 61.4844H17.1321C17.3554 61.4849 17.5708 61.5679 17.7386 61.7181C17.9063 61.8682 18.0149 62.0753 18.0442 62.3009L18.8841 68.8745C18.901 69.0067 18.89 69.1411 18.8519 69.2687C18.8138 69.3962 18.7494 69.514 18.6631 69.6142C18.5768 69.7144 18.4705 69.7946 18.3513 69.8496C18.2321 69.9046 18.1028 69.9331 17.972 69.9331ZM4.43543 61.6169C4.32311 61.6169 4.21208 61.6414 4.10975 61.6886C4.00743 61.7358 3.91616 61.8047 3.84204 61.8907C3.76792 61.9767 3.71265 62.0779 3.67993 62.1874C3.64721 62.2969 3.63779 62.4123 3.65229 62.5258L4.49214 69.0995C4.5173 69.2931 4.61054 69.4709 4.75456 69.5999C4.89858 69.7288 5.0836 69.8001 5.27528 69.8005H17.972C18.0843 69.8005 18.1953 69.7761 18.2976 69.7289C18.4 69.6816 18.4912 69.6127 18.5654 69.5267C18.6395 69.4407 18.6947 69.3395 18.7275 69.23C18.7602 69.1205 18.7696 69.0051 18.7551 68.8916L17.9156 62.318C17.8904 62.1243 17.7972 61.9465 17.6531 61.8176C17.5091 61.6887 17.3241 61.6174 17.1324 61.6169H4.43543Z" fill="#292A2E"/>
<path d="M18.6901 69.8631H5.99341C5.78583 69.8631 5.58535 69.7861 5.42938 69.6465C5.27342 69.5069 5.17263 69.3142 5.14583 69.1044L4.30598 62.5306C4.29029 62.4077 4.30049 62.2829 4.3359 62.1643C4.37132 62.0458 4.43114 61.9363 4.51136 61.8432C4.59159 61.7501 4.69037 61.6755 4.80113 61.6244C4.91188 61.5733 5.03206 61.5469 5.15363 61.5469H17.8503C18.0579 61.5469 18.2584 61.6239 18.4143 61.7635C18.5703 61.9031 18.6711 62.0958 18.6979 62.3056L19.5377 68.8792C19.5535 69.0021 19.5433 69.127 19.5079 69.2456C19.4725 69.3641 19.4127 69.4736 19.3324 69.5667C19.2522 69.6599 19.1534 69.7345 19.0427 69.7856C18.9319 69.8367 18.8117 69.8631 18.6901 69.8631Z" fill="white"/>
<path d="M18.6907 69.9331H5.99401C5.77077 69.9325 5.55529 69.8495 5.38756 69.6993C5.21983 69.5492 5.11123 69.3421 5.08192 69.1166L4.24207 62.543C4.22518 62.4108 4.23616 62.2764 4.27427 62.1488C4.31239 62.0213 4.37676 61.9035 4.46308 61.8033C4.54941 61.7031 4.65572 61.6228 4.7749 61.5678C4.89408 61.5128 5.0234 61.4844 5.15423 61.4844H17.8508C18.0741 61.4849 18.2896 61.5679 18.4573 61.7181C18.6251 61.8682 18.7337 62.0753 18.763 62.3009L19.6028 68.8745C19.6197 69.0067 19.6087 69.1411 19.5706 69.2686C19.5325 69.3962 19.4681 69.514 19.3818 69.6142C19.2955 69.7144 19.1892 69.7946 19.07 69.8496C18.9508 69.9046 18.8215 69.933 18.6907 69.9331ZM5.15423 61.6169C5.04189 61.6169 4.93083 61.6413 4.82848 61.6885C4.72613 61.7357 4.63484 61.8047 4.5607 61.8907C4.48656 61.9767 4.43128 62.0779 4.39855 62.1874C4.36582 62.297 4.35639 62.4123 4.37089 62.5259L5.21067 69.0995C5.23586 69.2932 5.32914 69.471 5.4732 69.5999C5.61725 69.7288 5.80231 69.8001 5.99401 69.8005H18.6907C18.803 69.8005 18.914 69.7761 19.0164 69.7289C19.1187 69.6816 19.21 69.6127 19.2841 69.5267C19.3582 69.4407 19.4135 69.3395 19.4462 69.23C19.4789 69.1205 19.4883 69.0051 19.4738 68.8916L18.634 62.318C18.6088 62.1243 18.5156 61.9465 18.3716 61.8176C18.2275 61.6887 18.0425 61.6174 17.8508 61.6169H5.15423Z" fill="#292A2E"/>
<path d="M17.289 51.4092C17.289 51.4092 18.1327 50.7601 18.3418 49.266C18.5037 48.1092 17.4567 48.8587 17.4567 48.8587C17.4567 48.8587 17.5653 48.0246 16.969 48.1073C16.3727 48.1901 16.0391 49.0663 16.0391 49.0663" fill="#0C0C0C"/>
<path d="M13.8876 48.2031C13.8876 48.2031 10.9292 48.5264 11.9987 52.6125L12.2604 52.6303L12.7918 52.6666" fill="#0C0C0C"/>
<path d="M16.794 56.8821C16.781 56.8803 16.6367 59.3212 13.8543 59.1086C11.9282 58.9615 11.2414 56.8786 11.1973 56.8786C11.4049 56.8336 11.6616 56.7653 11.7635 56.7419C11.9858 56.6893 12.1872 56.569 12.3407 56.3969C12.4943 56.2249 12.5928 56.0092 12.6232 55.7787C12.6795 55.4327 12.5842 53.6625 12.6134 53.3125L15.5701 53.9856C15.5287 54.725 15.2396 56.439 16.2529 56.7424C16.4217 56.7923 16.6033 56.8384 16.794 56.8821Z" fill="#E98862"/>
<path opacity="0.52" d="M15.6123 56.043C15.566 55.8909 15.5362 55.7341 15.5234 55.5753C15.4909 55.2131 15.4975 54.8483 15.5429 54.4875C14.942 54.4048 14.3758 54.152 13.9088 53.7578C13.8539 53.9645 13.5519 54.8674 13.6357 55.0639C13.7934 55.4351 14.5359 56.043 15.6123 56.043Z" fill="#0C0C0C"/>
<path d="M15.0019 55.5598C13.8355 55.4532 12.4394 54.702 12.4192 53.0882L12.4008 51.6321C12.3806 50.0182 13.1959 48.6992 14.6867 48.6799C16.1775 48.6605 17.3082 49.9544 17.3283 51.5682L17.3363 52.2129C17.3353 52.4343 17.3195 52.6553 17.289 52.8745C17.2125 53.4544 17.0939 54.3361 16.7077 54.9327C16.3433 55.4958 15.747 55.6279 15.0019 55.5598Z" fill="#E98862"/>
<path d="M15.5419 54.0865C15.7826 54.0977 16.0225 54.051 16.2423 53.9502C16.2468 53.9482 16.2509 53.9454 16.2544 53.9418C16.2579 53.9382 16.2606 53.9339 16.2624 53.9292C16.2643 53.9246 16.2652 53.9196 16.2651 53.9145C16.2651 53.9095 16.2641 53.9045 16.2621 53.8999C16.2602 53.8953 16.2574 53.8911 16.2538 53.8876C16.2503 53.884 16.2461 53.8813 16.2415 53.8794C16.237 53.8775 16.2321 53.8766 16.2271 53.8766C16.2222 53.8767 16.2173 53.8777 16.2128 53.8797C15.7393 54.0852 15.3094 54.0553 14.9695 53.7926C14.9627 53.7871 14.9556 53.7819 14.9482 53.7771C14.9397 53.773 14.9299 53.7723 14.9209 53.7752C14.9119 53.7781 14.9043 53.7843 14.8996 53.7927C14.8948 53.801 14.8934 53.8108 14.8955 53.8202C14.8975 53.8296 14.903 53.8379 14.9108 53.8434C14.9135 53.8452 14.9179 53.8487 14.9238 53.8534C15.1024 53.9922 15.3176 54.0733 15.5419 54.0865Z" fill="#0C0C0C"/>
<path d="M15.5305 54.4464C15.574 54.4491 15.6176 54.4481 15.661 54.4433C15.6707 54.4419 15.6795 54.4368 15.6855 54.4289C15.6916 54.421 15.6944 54.4111 15.6934 54.4011C15.6923 54.3912 15.6875 54.3821 15.68 54.3757C15.6724 54.3693 15.6627 54.3662 15.653 54.367C15.3924 54.3952 15.268 54.2735 15.2628 54.2683C15.2557 54.2615 15.2462 54.2577 15.2364 54.2578C15.2266 54.2579 15.2172 54.262 15.2103 54.269C15.2034 54.2761 15.1994 54.2856 15.1992 54.2956C15.1991 54.3056 15.2027 54.3152 15.2095 54.3225C15.2992 54.4004 15.4127 54.4441 15.5305 54.4464Z" fill="#0C0C0C"/>
<path d="M16.836 52.5228C16.9374 52.5228 17.0196 52.439 17.0196 52.3356C17.0196 52.2322 16.9374 52.1484 16.836 52.1484C16.7346 52.1484 16.6523 52.2322 16.6523 52.3356C16.6523 52.439 16.7346 52.5228 16.836 52.5228Z" fill="#0C0C0C"/>
<path d="M15.0411 52.4056C15.1425 52.4056 15.2247 52.3218 15.2247 52.2184C15.2247 52.1151 15.1425 52.0312 15.0411 52.0312C14.9396 52.0312 14.8574 52.1151 14.8574 52.2184C14.8574 52.3218 14.9396 52.4056 15.0411 52.4056Z" fill="#0C0C0C"/>
<path d="M12.518 53.5784C12.065 53.5843 11.6915 53.095 11.6856 52.6333C11.6797 52.1716 12.044 51.9121 12.497 51.9062L12.7343 52.2127L12.9074 53.5734L12.518 53.5784Z" fill="#E98862"/>
<path d="M12.9682 52.8342C12.9682 52.8342 13.1212 50.5506 13.8006 50.4097C14.2531 50.3158 15.3503 50.9699 16.3667 50.7724C16.8113 50.6862 17.2334 50.7981 17.2763 51.0122C17.2933 51.0969 17.5703 49.8788 16.874 48.9545C16.3196 48.2188 14.5055 48.0107 13.6802 48.2519C11.3948 48.9201 12.4033 52.0045 12.4033 52.0045L12.5052 52.7918L12.9682 52.8342Z" fill="#0C0C0C"/>
<path d="M15.8162 53.5459H15.8191C15.9651 53.5444 16.2099 53.5253 16.2089 53.414C16.2079 53.3218 15.9503 52.3286 15.9209 52.2157C15.9184 52.206 15.9122 52.1977 15.9037 52.1926C15.8951 52.1876 15.885 52.1862 15.8755 52.1888C15.8659 52.1913 15.8578 52.1977 15.8528 52.2064C15.8479 52.2151 15.8465 52.2254 15.849 52.2351C15.9635 52.675 16.1338 53.3521 16.1345 53.4149C16.1204 53.4414 15.9696 53.4687 15.8185 53.4703C15.8088 53.4702 15.7995 53.4741 15.7925 53.481C15.7856 53.4878 15.7816 53.4972 15.7813 53.507C15.781 53.5169 15.7845 53.5265 15.791 53.5338C15.7975 53.541 15.8066 53.5454 15.8162 53.546V53.5459Z" fill="#0C0C0C"/>
<path d="M16.3153 51.3213C16.4687 51.2783 16.6307 51.2783 16.7842 51.3213C16.8595 51.342 16.9314 51.3741 16.9975 51.4165C17.0627 51.4581 17.1225 51.5078 17.1756 51.5647C17.1853 51.5748 17.1909 51.5884 17.1911 51.6026C17.1913 51.6168 17.1861 51.6305 17.1767 51.641C17.1672 51.6514 17.1541 51.6577 17.1402 51.6585C17.1263 51.6594 17.1126 51.6547 17.102 51.6455L17.0987 51.6426C17.0496 51.5963 16.995 51.5565 16.9361 51.5241C16.8784 51.4918 16.8162 51.4687 16.7516 51.4555C16.6246 51.4283 16.4928 51.4358 16.3695 51.4772L16.3643 51.4791C16.3543 51.4827 16.3436 51.4843 16.3329 51.4837C16.3222 51.4831 16.3118 51.4804 16.3022 51.4757C16.2925 51.471 16.2839 51.4644 16.2767 51.4563C16.2696 51.4482 16.2641 51.4388 16.2605 51.4285C16.257 51.4182 16.2554 51.4074 16.256 51.3965C16.2565 51.3856 16.2592 51.375 16.2638 51.3651C16.2684 51.3553 16.2749 51.3465 16.2828 51.3392C16.2908 51.3319 16.3 51.3263 16.3101 51.3227C16.3119 51.3223 16.3137 51.3218 16.3153 51.3213Z" fill="#0C0C0C"/>
<path d="M15.2285 51.4144C15.1118 51.3565 14.9821 51.3312 14.8526 51.3408C14.7869 51.3452 14.7223 51.3597 14.6608 51.3838C14.5983 51.408 14.5391 51.4401 14.4844 51.4793L14.4809 51.4816C14.4692 51.4897 14.4548 51.4928 14.4409 51.4902C14.427 51.4876 14.4146 51.4796 14.4064 51.4678C14.3982 51.456 14.3949 51.4415 14.3972 51.4272C14.3994 51.413 14.407 51.4002 14.4184 51.3916C14.4784 51.3425 14.5442 51.3012 14.6144 51.2689C14.6853 51.2358 14.7608 51.2138 14.8382 51.2035C14.9959 51.1817 15.1564 51.2036 15.3029 51.267C15.3227 51.2758 15.3383 51.2923 15.3462 51.3128C15.3542 51.3333 15.3538 51.3562 15.3451 51.3764C15.3365 51.3966 15.3204 51.4125 15.3003 51.4206C15.2801 51.4286 15.2577 51.4282 15.2378 51.4195C15.2363 51.4188 15.2348 51.4181 15.2333 51.4173L15.2285 51.4144Z" fill="#0C0C0C"/>
<path d="M16.0959 49.7472C16.4312 49.6758 16.6195 49.2101 16.5164 48.707C16.4132 48.2039 16.0578 47.854 15.7224 47.9254C15.3871 47.9968 15.1988 48.4625 15.302 48.9656C15.4051 49.4687 15.7605 49.8186 16.0959 49.7472Z" fill="#0C0C0C"/>
<path d="M34.7998 95.5C34.7998 95.5 35.1485 97.3422 36.8407 97.4448C38.533 97.5475 38.166 98.9215 38.166 98.9215H31.6992V95.6285L34.7998 95.5Z" fill="#04B040"/>
<path d="M22.4964 94.3346C22.4964 94.3346 22.0112 96.1444 23.4854 96.9979C24.9596 97.8514 24.0351 98.9192 24.0351 98.9192L18.2324 96.0095L19.6586 93.0547L22.4964 94.3346Z" fill="#04B040"/>
<path d="M18.9034 93.826L23.7968 78.0919H14.9268C13.145 78.0919 12.4023 76.5519 12.4023 74.736C12.4023 72.92 14.1539 71.3281 15.9356 71.3281H27.9067C28.9934 71.3281 30.2119 72.0055 30.8084 72.9314C31.4048 73.8574 31.2436 75.2922 30.8115 76.3085L22.9755 95.7063" fill="#262626"/>
<path opacity="0.8" d="M18.9034 93.826L23.7968 78.0919H14.9268C13.145 78.0919 12.4023 76.5519 12.4023 74.736C12.4023 72.92 14.1539 71.3281 15.9356 71.3281H27.9067C28.9934 71.3281 30.2119 72.0055 30.8084 72.9314C31.4048 73.8574 31.2436 75.2922 30.8115 76.3085L22.9755 95.7063" fill="#0A0A0A"/>
<path d="M31.3272 97.2073L23.1454 78.0881L12.402 78.0874C9.88464 77.8863 8.73181 76.4801 8.76842 74.6646C8.80458 72.872 9.69508 71.1016 11.4459 71.1016H25.9257C27.2211 71.1287 28.2403 72.5878 28.7208 73.814L35.5228 96.0368" fill="#262626"/>
<path d="M8.0352 71.1235C8.0352 71.1235 7.55809 74.2947 8.31437 76.0578C9.25852 78.259 12.7979 78.0874 12.7979 78.0874L12.5985 71.1016L8.0352 71.1235Z" fill="#262626"/>
<path d="M29.0282 71.0636L21.4393 69.4607C21.1231 69.394 20.8285 69.247 20.5828 69.0334C20.3371 68.8198 20.1482 68.5465 20.0336 68.2387L17.0488 60.2219C16.9593 59.9816 16.9171 59.7257 16.9247 59.4688C16.9323 59.2119 16.9894 58.959 17.0928 58.7246C17.1963 58.4902 17.344 58.2789 17.5276 58.1027C17.7112 57.9265 17.927 57.7888 18.1628 57.6976C18.3986 57.6065 18.6496 57.5635 18.9017 57.5712C19.1538 57.5789 19.4019 57.6371 19.6318 57.7426C19.8618 57.848 20.0692 57.9986 20.2421 58.1857C20.4149 58.3728 20.55 58.5928 20.6395 58.8331L23.2505 65.8455L29.8076 67.2304C29.8076 67.2304 29.1598 71.0913 29.0282 71.0636Z" fill="#04B040"/>
<path d="M20.251 62.2565C20.1633 63.3059 19.5422 69.8529 19.4577 71.1454H8.04029C7.97468 69.9796 7.76171 65.03 7.51297 62.7503C7.27549 60.5749 7.18939 59.3335 7.4629 58.6575C7.94528 57.4652 9.15241 57.0361 10.1922 56.8926C10.8271 56.805 11.782 56.7422 11.782 56.7422C11.782 56.7422 11.8629 58.4093 13.7909 58.5021C16.4154 58.628 16.2402 56.7422 16.2531 56.7422C16.6783 56.7422 18.9927 57.0573 19.5714 57.4418C20.3887 57.9848 20.6303 58.7248 20.6399 59.4046C20.6509 60.1874 20.3506 61.0663 20.251 62.2565Z" fill="#04B040"/>
<path d="M19.8021 67.6094C19.8012 67.6094 19.8003 67.6094 19.7994 67.6094C19.7908 67.6086 19.7828 67.6045 19.7772 67.5978C19.7717 67.5911 19.7689 67.5824 19.7696 67.5736L20.066 63.9445C20.0663 63.9401 20.0674 63.9358 20.0693 63.9319C20.0713 63.928 20.0739 63.9245 20.0772 63.9217C20.0805 63.9189 20.0843 63.9167 20.0884 63.9155C20.0926 63.9142 20.0969 63.9138 20.1012 63.9143C20.1097 63.915 20.1177 63.9192 20.1232 63.9259C20.1288 63.9326 20.1315 63.9412 20.1308 63.95L19.8345 67.5791C19.8338 67.5874 19.83 67.5951 19.824 67.6007C19.818 67.6063 19.8102 67.6094 19.8021 67.6094Z" fill="#0C0C0C"/>
<path d="M25.2401 69.7845L27.7453 61.9354C27.7893 61.7975 27.8751 61.6773 27.9902 61.5921C28.1053 61.5069 28.244 61.4609 28.3863 61.4609H38.5927C38.6991 61.4609 38.804 61.4866 38.8988 61.5359C38.9935 61.5851 39.0756 61.6565 39.1381 61.7442C39.2006 61.832 39.2419 61.9336 39.2585 62.0407C39.2751 62.1478 39.2666 62.2574 39.2337 62.3605L36.7285 70.2095C36.6844 70.3475 36.5987 70.4676 36.4836 70.5529C36.3684 70.6381 36.2298 70.684 36.0875 70.684H25.8809C25.7745 70.684 25.6696 70.6583 25.5749 70.609C25.4801 70.5598 25.3981 70.4884 25.3356 70.4006C25.2731 70.3129 25.2319 70.2113 25.2153 70.1042C25.1987 69.9972 25.2072 69.8876 25.2401 69.7845Z" fill="#292A2E"/>
<path d="M25.2401 69.7845L27.7453 61.9354C27.7893 61.7975 27.8751 61.6773 27.9902 61.5921C28.1053 61.5069 28.244 61.4609 28.3863 61.4609H38.5927C38.6991 61.4609 38.804 61.4866 38.8988 61.5359C38.9935 61.5851 39.0756 61.6565 39.1381 61.7442C39.2006 61.832 39.2419 61.9336 39.2585 62.0407C39.2751 62.1478 39.2666 62.2574 39.2337 62.3605L36.7285 70.2095C36.6844 70.3475 36.5987 70.4676 36.4836 70.5529C36.3684 70.6381 36.2298 70.684 36.0875 70.684H25.8809C25.7745 70.684 25.6696 70.6583 25.5749 70.609C25.4801 70.5598 25.3981 70.4884 25.3356 70.4006C25.2731 70.3129 25.2319 70.2113 25.2153 70.1042C25.1987 69.9972 25.2072 69.8876 25.2401 69.7845Z" fill="#292A2E"/>
<path d="M27.283 70.0469H20.4508C20.2806 70.0469 20.1426 70.1875 20.1426 70.361V70.3691C20.1426 70.5426 20.2806 70.6833 20.4508 70.6833H27.283C27.4532 70.6833 27.5912 70.5426 27.5912 70.3691V70.361C27.5912 70.1875 27.4532 70.0469 27.283 70.0469Z" fill="#292A2E"/>
<path d="M27.283 70.0469H20.4508C20.2806 70.0469 20.1426 70.1875 20.1426 70.361V70.3691C20.1426 70.5426 20.2806 70.6833 20.4508 70.6833H27.283C27.4532 70.6833 27.5912 70.5426 27.5912 70.3691V70.361C27.5912 70.1875 27.4532 70.0469 27.283 70.0469Z" fill="#292A2E"/>
<path d="M32.2365 67.5492C32.8276 67.5492 33.3069 67.0608 33.3069 66.4582C33.3069 65.8557 32.8276 65.3672 32.2365 65.3672C31.6453 65.3672 31.166 65.8557 31.166 66.4582C31.166 67.0608 31.6453 67.5492 32.2365 67.5492Z" fill="white"/>
<path d="M24.6683 67.9434L22.9631 67.3343L23.208 67.317C23.2869 67.3098 23.3602 67.2724 23.413 67.2123C23.4659 67.1521 23.4944 67.0738 23.4927 66.9931C23.4905 66.9514 23.4799 66.9107 23.4617 66.8734C23.4435 66.836 23.418 66.8029 23.3868 66.7759C23.3556 66.749 23.3193 66.7288 23.2802 66.7166C23.2411 66.7044 23.1999 66.7004 23.1593 66.7049L20.1426 67.0316L20.2206 68.0197C20.245 68.3266 20.3587 68.6191 20.5472 68.8597C20.7357 69.1003 20.9904 69.2781 21.2786 69.3702L22.585 69.785C22.6525 69.8078 22.7256 69.8063 22.7921 69.7805C22.8586 69.7547 22.9142 69.7063 22.9497 69.6435C22.9806 69.5861 22.9927 69.5202 22.9842 69.4553C22.9757 69.3905 22.947 69.3301 22.9025 69.283C22.9053 69.2809 22.9078 69.2782 22.9096 69.2751C22.9115 69.272 22.9126 69.2686 22.9131 69.265C22.9136 69.2614 22.9134 69.2578 22.9124 69.2543C22.9115 69.2509 22.9099 69.2476 22.9077 69.2448L23.1483 69.3217C23.2234 69.3474 23.3053 69.3431 23.3774 69.3097C23.4495 69.2762 23.5064 69.2161 23.5367 69.1415C23.5614 69.0738 23.5619 68.9994 23.5382 68.9313C23.5144 68.8633 23.4678 68.806 23.4066 68.7695C23.4095 68.7679 23.412 68.7659 23.414 68.7634L23.513 68.7951C23.5805 68.818 23.6537 68.8164 23.7201 68.7906C23.7866 68.7648 23.8423 68.7164 23.8778 68.6536C23.9152 68.584 23.9248 68.5022 23.9044 68.4256C23.884 68.3489 23.8353 68.2832 23.7685 68.2424C23.769 68.2403 23.7693 68.2383 23.7694 68.2361L24.4795 68.4899C24.5506 68.5153 24.6287 68.5108 24.6966 68.4776C24.7645 68.4443 24.8166 68.3849 24.8415 68.3124C24.8664 68.2399 24.8621 68.1603 24.8295 68.0911C24.7968 68.0219 24.7385 67.9688 24.6674 67.9434H24.6683Z" fill="#E98862"/>
<path opacity="0.2" d="M23.7425 68.265C23.7392 68.265 23.7359 68.2644 23.7328 68.2633L23.0459 68.009C23.0388 68.0064 23.0331 68.001 23.03 67.9941C23.0268 67.9871 23.0265 67.9792 23.0291 67.972C23.0317 67.9648 23.0369 67.959 23.0438 67.9558C23.0506 67.9526 23.0584 67.9523 23.0654 67.9549L23.7522 68.2094C23.7585 68.2117 23.7637 68.2162 23.7671 68.2221C23.7704 68.2279 23.7716 68.2348 23.7705 68.2415C23.7693 68.2482 23.7659 68.2542 23.7608 68.2586C23.7557 68.263 23.7493 68.2653 23.7426 68.2653L23.7425 68.265Z" fill="#0A0A0A"/>
<path opacity="0.2" d="M23.3959 68.7769C23.3926 68.7769 23.3895 68.7763 23.3864 68.7752L22.845 68.5794C22.8415 68.5782 22.8383 68.5762 22.8355 68.5737C22.8328 68.5712 22.8305 68.5681 22.8289 68.5647C22.8273 68.5613 22.8264 68.5575 22.8262 68.5538C22.826 68.55 22.8266 68.5462 22.8278 68.5426C22.829 68.5391 22.831 68.5358 22.8335 68.533C22.8359 68.5302 22.8389 68.5279 22.8423 68.5262C22.8457 68.5246 22.8493 68.5237 22.853 68.5235C22.8567 68.5233 22.8604 68.5238 22.8639 68.5251L23.4054 68.7209C23.4116 68.7232 23.4169 68.7276 23.4203 68.7335C23.4237 68.7394 23.4249 68.7463 23.4238 68.753C23.4226 68.7597 23.4192 68.7658 23.4141 68.7701C23.409 68.7745 23.4025 68.7769 23.3959 68.7769Z" fill="#0A0A0A"/>
<path opacity="0.2" d="M22.8847 69.2895C22.8812 69.2895 22.8778 69.2888 22.8745 69.2876L22.6209 69.189C22.6173 69.1878 22.614 69.1858 22.6111 69.1832C22.6082 69.1807 22.6059 69.1775 22.6043 69.174C22.6027 69.1705 22.6017 69.1667 22.6016 69.1628C22.6014 69.1589 22.6021 69.155 22.6034 69.1514C22.6048 69.1477 22.6069 69.1444 22.6095 69.1416C22.6122 69.1388 22.6153 69.1366 22.6189 69.1351C22.6224 69.1336 22.6262 69.1328 22.63 69.1328C22.6338 69.1328 22.6376 69.1336 22.6411 69.1352L22.8947 69.2337C22.9009 69.2362 22.906 69.2407 22.9092 69.2466C22.9125 69.2524 22.9136 69.2593 22.9124 69.2659C22.9112 69.2725 22.9077 69.2785 22.9027 69.2828C22.8976 69.2871 22.8912 69.2895 22.8846 69.2895H22.8847Z" fill="#0A0A0A"/>
<path d="M21.4781 66.4519L14.3249 66.447L11.6189 59.7188L7.58203 61.4487L10.9584 69.434L10.9914 69.5135C11.1566 69.9016 11.4348 70.2287 11.7884 70.4503C12.142 70.6719 12.5539 70.7773 12.9683 70.7524L21.5864 70.2334L21.4781 66.4519Z" fill="#04B040"/>
<path d="M12.8508 70.7884C12.4498 70.7877 12.0577 70.6679 11.7224 70.4438C11.3871 70.2196 11.1231 69.9007 10.9627 69.5261L10.9296 69.4465L8.05273 62.6423L8.11243 62.6161L11.0225 69.4999C11.1858 69.8812 11.4597 70.2024 11.8074 70.4203C12.1552 70.6382 12.56 70.7423 12.9675 70.7187L21.5541 70.2017L21.4478 66.4845L14.3044 66.4797L12.2235 61.3064L12.2836 61.2812L14.3479 66.4134L21.5108 66.4183L21.6209 70.2641L21.5893 70.266L12.9713 70.785C12.931 70.7873 12.8909 70.7884 12.8508 70.7884Z" fill="#0C0C0C"/>
<path d="M55.8403 71.3226L55.7109 71.3359L58.4524 98.9977L58.5818 98.9844L55.8403 71.3226Z" fill="#494949"/>
<path d="M4.89372 71.3228L2.15039 98.9844L2.27979 98.9977L5.02312 71.3361L4.89372 71.3228Z" fill="#494949"/>
<path d="M16.2277 71.3228L13.4844 98.9844L13.6138 98.9977L16.3571 71.3361L16.2277 71.3228Z" fill="#494949"/>
<path d="M67.1743 71.3226L67.0449 71.3359L69.7864 98.9977L69.9158 98.9844L67.1743 71.3226Z" fill="#494949"/>
<path d="M69.6461 70.7812H2.60121C2.30692 70.7812 2.06836 71.0244 2.06836 71.3243C2.06836 71.6242 2.30692 71.8674 2.60121 71.8674H69.6461C69.9404 71.8674 70.1789 71.6242 70.1789 71.3243C70.1789 71.0244 69.9404 70.7812 69.6461 70.7812Z" fill="#292A2E"/>
<path opacity="0.8" d="M69.6461 70.7812H2.60121C2.30692 70.7812 2.06836 71.0244 2.06836 71.3243C2.06836 71.6242 2.30692 71.8674 2.60121 71.8674H69.6461C69.9404 71.8674 70.1789 71.6242 70.1789 71.3243C70.1789 71.0244 69.9404 70.7812 69.6461 70.7812Z" fill="white"/>
<path d="M69.6469 71.9375H2.60216C2.52312 71.9383 2.44471 71.9232 2.37145 71.8929C2.2982 71.8627 2.23155 71.8179 2.17537 71.7613C2.11919 71.7046 2.07459 71.6371 2.04416 71.5628C2.01372 71.4884 1.99805 71.4087 1.99805 71.3281C1.99805 71.2476 2.01372 71.1678 2.04416 71.0935C2.07459 71.0191 2.11919 70.9517 2.17537 70.895C2.23155 70.8383 2.2982 70.7936 2.37145 70.7633C2.44471 70.7331 2.52312 70.7179 2.60216 70.7188H69.6469C69.8043 70.7205 69.9548 70.7854 70.0656 70.8995C70.1764 71.0136 70.2385 71.1676 70.2385 71.3281C70.2385 71.4886 70.1764 71.6427 70.0656 71.7568C69.9548 71.8709 69.8043 71.9358 69.6469 71.9375ZM2.60216 70.8513C2.54026 70.8506 2.47884 70.8624 2.42144 70.886C2.36405 70.9096 2.31183 70.9446 2.2678 70.989C2.22377 71.0333 2.18882 71.0861 2.16496 71.1444C2.14111 71.2026 2.12882 71.265 2.12882 71.3281C2.12882 71.3912 2.14111 71.4537 2.16496 71.5119C2.18882 71.5701 2.22377 71.6229 2.2678 71.6673C2.31183 71.7116 2.36405 71.7466 2.42144 71.7702C2.47884 71.7939 2.54026 71.8057 2.60216 71.8049H69.6469C69.77 71.8034 69.8875 71.7525 69.9741 71.6633C70.0606 71.574 70.1092 71.4536 70.1092 71.3281C70.1092 71.2026 70.0606 71.0822 69.9741 70.993C69.8875 70.9037 69.77 70.8528 69.6469 70.8513H2.60216Z" fill="#292A2E"/>
<path d="M69.646 70.7812H14.3688C14.0745 70.7812 13.8359 71.0244 13.8359 71.3243C13.8359 71.6242 14.0745 71.8674 14.3688 71.8674H69.646C69.9403 71.8674 70.1788 71.6242 70.1788 71.3243C70.1788 71.0244 69.9403 70.7812 69.646 70.7812Z" fill="white"/>
<path d="M69.6463 71.9374H14.369C14.2115 71.9358 14.061 71.8708 13.9503 71.7567C13.8395 71.6426 13.7773 71.4886 13.7773 71.3281C13.7773 71.1676 13.8395 71.0135 13.9503 70.8995C14.061 70.7854 14.2115 70.7204 14.369 70.7188H69.6463C69.8038 70.7204 69.9543 70.7854 70.0651 70.8995C70.1758 71.0135 70.238 71.1676 70.238 71.3281C70.238 71.4886 70.1758 71.6426 70.0651 71.7567C69.9543 71.8708 69.8038 71.9358 69.6463 71.9374ZM14.369 70.8513C14.2459 70.8528 14.1283 70.9037 14.0418 70.9929C13.9552 71.0822 13.9067 71.2026 13.9067 71.3281C13.9067 71.4536 13.9552 71.574 14.0418 71.6633C14.1283 71.7525 14.2459 71.8034 14.369 71.8049H69.6463C69.7694 71.8034 69.887 71.7525 69.9735 71.6633C70.0601 71.574 70.1086 71.4536 70.1086 71.3281C70.1086 71.2026 70.0601 71.0822 69.9735 70.9929C69.887 70.9037 69.7694 70.8528 69.6463 70.8513H14.369Z" fill="#292A2E"/>
</g>
<defs>
<clipPath id="clip0_8038_12124">
<rect width="71" height="60" fill="white" transform="translate(0.5 39)"/>
</clipPath>
</defs>
</svg>
