<svg width="72" height="99" viewBox="0 0 72 99" fill="none" xmlns="http://www.w3.org/2000/svg">
<path d="M14.3068 17.156C13.8548 17.156 13.4188 17.086 12.9988 16.946C12.5788 16.802 12.2108 16.598 11.8948 16.334C11.5828 16.07 11.3608 15.756 11.2288 15.392L12.1708 15.038C12.2508 15.262 12.3988 15.458 12.6148 15.626C12.8348 15.79 13.0928 15.918 13.3888 16.01C13.6848 16.102 13.9908 16.148 14.3068 16.148C14.6668 16.148 15.0008 16.09 15.3088 15.974C15.6208 15.854 15.8728 15.688 16.0648 15.476C16.2568 15.264 16.3528 15.016 16.3528 14.732C16.3528 14.44 16.2528 14.202 16.0528 14.018C15.8528 13.83 15.5968 13.682 15.2848 13.574C14.9728 13.462 14.6468 13.376 14.3068 13.316C13.7268 13.22 13.2068 13.084 12.7468 12.908C12.2908 12.728 11.9288 12.478 11.6608 12.158C11.3968 11.838 11.2648 11.416 11.2648 10.892C11.2648 10.404 11.4048 9.978 11.6848 9.614C11.9688 9.25 12.3428 8.968 12.8068 8.768C13.2708 8.568 13.7708 8.468 14.3068 8.468C14.7508 8.468 15.1808 8.538 15.5968 8.678C16.0168 8.814 16.3868 9.014 16.7068 9.278C17.0268 9.542 17.2568 9.864 17.3968 10.244L16.4428 10.592C16.3628 10.364 16.2128 10.168 15.9928 10.004C15.7768 9.836 15.5208 9.708 15.2248 9.62C14.9328 9.528 14.6268 9.482 14.3068 9.482C13.9508 9.478 13.6188 9.536 13.3108 9.656C13.0028 9.776 12.7528 9.942 12.5608 10.154C12.3688 10.366 12.2728 10.612 12.2728 10.892C12.2728 11.228 12.3608 11.486 12.5368 11.666C12.7168 11.842 12.9608 11.974 13.2688 12.062C13.5768 12.15 13.9228 12.228 14.3068 12.296C14.8508 12.388 15.3548 12.534 15.8188 12.734C16.2828 12.93 16.6548 13.192 16.9348 13.52C17.2188 13.848 17.3608 14.252 17.3608 14.732C17.3608 15.22 17.2188 15.646 16.9348 16.01C16.6548 16.374 16.2828 16.656 15.8188 16.856C15.3548 17.056 14.8508 17.156 14.3068 17.156ZM21.8659 12.008H20.5039L20.4979 17H19.4899L19.4959 12.008H18.4639V11H19.4959L19.4899 9.116H20.4979L20.5039 11H21.8659V12.008ZM25.5491 17.156C24.9971 17.156 24.4931 17.014 24.0371 16.73C23.5851 16.446 23.2231 16.066 22.9511 15.59C22.6831 15.11 22.5491 14.58 22.5491 14C22.5491 13.56 22.6271 13.15 22.7831 12.77C22.9391 12.386 23.1531 12.05 23.4251 11.762C23.7011 11.47 24.0211 11.242 24.3851 11.078C24.7491 10.914 25.1371 10.832 25.5491 10.832C26.0011 10.832 26.4151 10.924 26.7911 11.108C27.1711 11.288 27.4951 11.54 27.7631 11.864C28.0351 12.188 28.2371 12.564 28.3691 12.992C28.5051 13.42 28.5551 13.878 28.5191 14.366H23.6231C23.6711 14.706 23.7831 15.01 23.9591 15.278C24.1351 15.542 24.3591 15.752 24.6311 15.908C24.9071 16.064 25.2131 16.144 25.5491 16.148C25.9091 16.148 26.2351 16.056 26.5271 15.872C26.8191 15.684 27.0551 15.428 27.2351 15.104L28.2611 15.344C28.0211 15.876 27.6591 16.312 27.1751 16.652C26.6911 16.988 26.1491 17.156 25.5491 17.156ZM23.5931 13.574H27.5051C27.4731 13.238 27.3651 12.932 27.1811 12.656C26.9971 12.376 26.7631 12.152 26.4791 11.984C26.1951 11.816 25.8851 11.732 25.5491 11.732C25.2131 11.732 24.9051 11.814 24.6251 11.978C24.3451 12.142 24.1131 12.364 23.9291 12.644C23.7491 12.92 23.6371 13.23 23.5931 13.574ZM30.6582 20H29.6502V11H30.6582V12.026C30.8622 11.674 31.1342 11.39 31.4742 11.174C31.8142 10.954 32.2182 10.844 32.6862 10.844C33.1222 10.844 33.5302 10.926 33.9102 11.09C34.2942 11.254 34.6302 11.482 34.9182 11.774C35.2062 12.062 35.4322 12.396 35.5962 12.776C35.7602 13.156 35.8422 13.564 35.8422 14C35.8422 14.436 35.7602 14.846 35.5962 15.23C35.4322 15.614 35.2062 15.952 34.9182 16.244C34.6302 16.532 34.2942 16.758 33.9102 16.922C33.5302 17.086 33.1222 17.168 32.6862 17.168C32.2182 17.168 31.8142 17.06 31.4742 16.844C31.1342 16.624 30.8622 16.338 30.6582 15.986V20ZM32.6742 11.822C32.2862 11.822 31.9462 11.92 31.6542 12.116C31.3622 12.312 31.1362 12.574 30.9762 12.902C30.8202 13.23 30.7422 13.596 30.7422 14C30.7422 14.4 30.8202 14.766 30.9762 15.098C31.1362 15.43 31.3602 15.694 31.6482 15.89C31.9402 16.086 32.2822 16.184 32.6742 16.184C33.0622 16.184 33.4182 16.088 33.7422 15.896C34.0662 15.7 34.3262 15.438 34.5222 15.11C34.7182 14.778 34.8162 14.408 34.8162 14C34.8162 13.6 34.7202 13.236 34.5282 12.908C34.3362 12.576 34.0782 12.312 33.7542 12.116C33.4302 11.92 33.0702 11.822 32.6742 11.822ZM42.9244 17.156C42.4244 17.156 41.9764 17.044 41.5804 16.82C41.1844 16.592 40.8444 16.278 40.5604 15.878C40.2764 15.478 40.0604 15.016 39.9124 14.492C39.7644 13.964 39.6904 13.4 39.6904 12.8C39.6904 12.2 39.7644 11.636 39.9124 11.108C40.0604 10.58 40.2764 10.118 40.5604 9.722C40.8444 9.322 41.1844 9.01 41.5804 8.786C41.9764 8.558 42.4244 8.444 42.9244 8.444C43.4204 8.444 43.8664 8.558 44.2624 8.786C44.6624 9.01 45.0004 9.322 45.2764 9.722C45.5564 10.118 45.7704 10.58 45.9184 11.108C46.0704 11.636 46.1464 12.2 46.1464 12.8C46.1464 13.4 46.0704 13.964 45.9184 14.492C45.7704 15.016 45.5564 15.478 45.2764 15.878C45.0004 16.278 44.6624 16.592 44.2624 16.82C43.8664 17.044 43.4204 17.156 42.9244 17.156ZM42.9244 16.148C43.4244 16.148 43.8424 15.994 44.1784 15.686C44.5184 15.374 44.7724 14.964 44.9404 14.456C45.1084 13.948 45.1924 13.396 45.1924 12.8C45.1924 12.172 45.1044 11.606 44.9284 11.102C44.7564 10.594 44.5004 10.192 44.1604 9.896C43.8244 9.6 43.4124 9.452 42.9244 9.452C42.5404 9.452 42.2044 9.542 41.9164 9.722C41.6324 9.902 41.3964 10.148 41.2084 10.46C41.0204 10.772 40.8784 11.13 40.7824 11.534C40.6904 11.934 40.6444 12.356 40.6444 12.8C40.6444 13.396 40.7304 13.95 40.9024 14.462C41.0744 14.97 41.3284 15.378 41.6644 15.686C42.0044 15.994 42.4244 16.148 42.9244 16.148ZM50.0522 17.156C49.5522 17.156 49.1042 17.044 48.7082 16.82C48.3122 16.592 47.9722 16.278 47.6882 15.878C47.4042 15.478 47.1882 15.016 47.0402 14.492C46.8922 13.964 46.8182 13.4 46.8182 12.8C46.8182 12.2 46.8922 11.636 47.0402 11.108C47.1882 10.58 47.4042 10.118 47.6882 9.722C47.9722 9.322 48.3122 9.01 48.7082 8.786C49.1042 8.558 49.5522 8.444 50.0522 8.444C50.5482 8.444 50.9942 8.558 51.3902 8.786C51.7902 9.01 52.1282 9.322 52.4042 9.722C52.6842 10.118 52.8982 10.58 53.0462 11.108C53.1982 11.636 53.2742 12.2 53.2742 12.8C53.2742 13.4 53.1982 13.964 53.0462 14.492C52.8982 15.016 52.6842 15.478 52.4042 15.878C52.1282 16.278 51.7902 16.592 51.3902 16.82C50.9942 17.044 50.5482 17.156 50.0522 17.156ZM50.0522 16.148C50.5522 16.148 50.9702 15.994 51.3062 15.686C51.6462 15.374 51.9002 14.964 52.0682 14.456C52.2362 13.948 52.3202 13.396 52.3202 12.8C52.3202 12.172 52.2322 11.606 52.0562 11.102C51.8842 10.594 51.6282 10.192 51.2882 9.896C50.9522 9.6 50.5402 9.452 50.0522 9.452C49.6682 9.452 49.3322 9.542 49.0442 9.722C48.7602 9.902 48.5242 10.148 48.3362 10.46C48.1482 10.772 48.0062 11.13 47.9102 11.534C47.8182 11.934 47.7722 12.356 47.7722 12.8C47.7722 13.396 47.8582 13.95 48.0302 14.462C48.2022 14.97 48.4562 15.378 48.7922 15.686C49.1322 15.994 49.5522 16.148 50.0522 16.148ZM54.2301 17V16.106C54.5381 15.83 54.8841 15.522 55.2681 15.182C55.6521 14.838 56.0341 14.48 56.4141 14.108C56.7981 13.732 57.1501 13.36 57.4701 12.992C57.7901 12.624 58.0481 12.276 58.2441 11.948C58.4401 11.616 58.5381 11.326 58.5381 11.078C58.5381 10.782 58.4661 10.512 58.3221 10.268C58.1781 10.02 57.9841 9.822 57.7401 9.674C57.5001 9.526 57.2321 9.452 56.9361 9.452C56.6401 9.452 56.3681 9.526 56.1201 9.674C55.8761 9.822 55.6801 10.02 55.5321 10.268C55.3881 10.512 55.3161 10.782 55.3161 11.078H54.3081C54.3081 10.586 54.4281 10.142 54.6681 9.746C54.9081 9.346 55.2261 9.03 55.6221 8.798C56.0181 8.562 56.4561 8.444 56.9361 8.444C57.4161 8.444 57.8521 8.562 58.2441 8.798C58.6401 9.034 58.9561 9.352 59.1921 9.752C59.4281 10.148 59.5461 10.59 59.5461 11.078C59.5461 11.358 59.4781 11.66 59.3421 11.984C59.2061 12.304 59.0201 12.634 58.7841 12.974C58.5481 13.314 58.2801 13.658 57.9801 14.006C57.6801 14.35 57.3641 14.69 57.0321 15.026C56.7001 15.362 56.3701 15.684 56.0421 15.992H59.6541V17H54.2301Z" fill="#666666"/>
<g clip-path="url(#clip0_8038_12328)">
<path d="M49.9656 99.0025C60.7539 99.0025 69.4995 98.2779 69.4995 97.3841C69.4995 96.4902 60.7539 95.7656 49.9656 95.7656C39.1773 95.7656 30.4316 96.4902 30.4316 97.3841C30.4316 98.2779 39.1773 99.0025 49.9656 99.0025Z" fill="white"/>
<path opacity="0.1" d="M49.9656 99.0025C60.7539 99.0025 69.4995 98.2779 69.4995 97.3841C69.4995 96.4902 60.7539 95.7656 49.9656 95.7656C39.1773 95.7656 30.4316 96.4902 30.4316 97.3841C30.4316 98.2779 39.1773 99.0025 49.9656 99.0025Z" fill="#292A2E"/>
<path d="M17.539 73.3125L11.3125 73.3125L11.3125 74.9392L17.539 74.9392L17.539 73.3125Z" fill="#F4F4F4"/>
<path opacity="0.05" d="M12.9643 73.3125L12.1484 73.3125L12.1484 74.9392L12.9643 74.9392L12.9643 73.3125Z" fill="#292A2E"/>
<path d="M16.744 73.6641L13.3516 73.6641L13.3516 74.628L16.744 74.628L16.744 73.6641Z" fill="white"/>
<path d="M22.5043 73.5267L16.7188 71.2578L15.9936 72.7485L21.7791 75.0174L22.5043 73.5267Z" fill="#F4F4F4"/>
<path opacity="0.05" d="M22.5043 73.5267L16.7188 71.2578L15.9936 72.7485L21.7791 75.0174L22.5043 73.5267Z" fill="#292A2E"/>
<path d="M21.7288 73.2192L20.9707 72.9219L20.2456 74.4126L21.0037 74.7099L21.7288 73.2192Z" fill="white"/>
<path d="M20.4528 73.1111L17.3008 71.875L16.8711 72.7584L20.0231 73.9945L20.4528 73.1111Z" fill="white"/>
<path opacity="0.05" d="M22.5159 93.9219L20.9512 93.9219L20.9512 94.8602L22.5159 94.8602L22.5159 93.9219Z" fill="#292A2E"/>
<path opacity="0.05" d="M6.51786 93.9219L4.95312 93.9219L4.95312 94.8602L6.51786 94.8602L6.51786 93.9219Z" fill="#292A2E"/>
<path d="M23.9506 75.0156L3.51953 75.0156L3.51953 93.888L23.9506 93.888L23.9506 75.0156Z" fill="#F4F4F4"/>
<path opacity="0.03" d="M23.9506 75.0156L3.51953 75.0156L3.51953 93.888L23.9506 93.888L23.9506 75.0156Z" fill="#292A2E"/>
<path d="M27.7377 75.0156L7.30664 75.0156L7.30664 93.888L27.7377 93.888L27.7377 75.0156Z" fill="#F4F4F4"/>
<path opacity="0.05" d="M26.303 93.9219L24.7383 93.9219L24.7383 94.8602L26.303 94.8602L26.303 93.9219Z" fill="#292A2E"/>
<path opacity="0.05" d="M10.305 93.9219L8.74023 93.9219L8.74023 94.8602L10.305 94.8602L10.305 93.9219Z" fill="#292A2E"/>
<path opacity="0.7" d="M26.9695 75.8984L8.07227 75.8984L8.07227 79.5242L26.9695 79.5242L26.9695 75.8984Z" fill="white"/>
<path opacity="0.7" d="M26.9695 80.4141L8.07227 80.4141L8.07227 84.0399L26.9695 84.0399L26.9695 80.4141Z" fill="white"/>
<path opacity="0.7" d="M26.9695 84.9297L8.07227 84.9297L8.07227 88.5555L26.9695 88.5555L26.9695 84.9297Z" fill="white"/>
<path opacity="0.05" d="M17.522 78.2178C17.8341 78.2178 18.0871 77.9906 18.0871 77.7104C18.0871 77.4303 17.8341 77.2031 17.522 77.2031C17.21 77.2031 16.957 77.4303 16.957 77.7104C16.957 77.9906 17.21 78.2178 17.522 78.2178Z" fill="#292A2E"/>
<path opacity="0.05" d="M17.522 82.7334C17.8341 82.7334 18.0871 82.5063 18.0871 82.2261C18.0871 81.9459 17.8341 81.7188 17.522 81.7188C17.21 81.7188 16.957 81.9459 16.957 82.2261C16.957 82.5063 17.21 82.7334 17.522 82.7334Z" fill="#292A2E"/>
<path opacity="0.05" d="M17.522 87.249C17.8341 87.249 18.0871 87.0219 18.0871 86.7417C18.0871 86.4615 17.8341 86.2344 17.522 86.2344C17.21 86.2344 16.957 86.4615 16.957 86.7417C16.957 87.0219 17.21 87.249 17.522 87.249Z" fill="#292A2E"/>
<path opacity="0.7" d="M26.9695 89.5391L8.07227 89.5391L8.07227 93.1649L26.9695 93.1649L26.9695 89.5391Z" fill="white"/>
<path opacity="0.05" d="M17.5201 91.8584C17.8321 91.8584 18.0851 91.6313 18.0851 91.3511C18.0851 91.0709 17.8321 90.8438 17.5201 90.8438C17.208 90.8438 16.9551 91.0709 16.9551 91.3511C16.9551 91.6313 17.208 91.8584 17.5201 91.8584Z" fill="#292A2E"/>
<path d="M10.7725 56.2812L22.8535 56.2812L22.8535 42.1619L10.7725 42.1619L10.7725 56.2812Z" fill="#F4F4F4"/>
<path d="M10.7728 42.1641L10.3809 42.1641L10.3809 56.2834L10.7728 56.2834L10.7728 42.1641Z" fill="#F4F4F4"/>
<path opacity="0.05" d="M10.7728 42.1641L10.3809 42.1641L10.3809 56.2834L10.7728 56.2834L10.7728 42.1641Z" fill="#292A2E"/>
<path opacity="0.05" d="M12.9728 53.7109L20.6523 53.7109L20.6523 44.7356L12.9728 44.7356L12.9728 53.7109Z" fill="#292A2E"/>
<path opacity="0.03" d="M12.9728 53.7109L13.373 53.7109L13.373 44.7356L12.9728 44.7356L12.9728 53.7109Z" fill="#292A2E"/>
<path d="M0.891186 68.7109L10.7715 68.7109L10.7715 59.758L0.891186 59.758L0.891186 68.7109Z" fill="#F4F4F4"/>
<path opacity="0.05" d="M2.69203 67.0781L8.97266 67.0781L8.97266 61.387L2.69203 61.387L2.69203 67.0781Z" fill="#292A2E"/>
<path d="M0.891919 59.7578L0.5 59.7578L0.5 68.7108L0.891919 68.7108L0.891919 59.7578Z" fill="#F4F4F4"/>
<path opacity="0.05" d="M0.891919 59.7578L0.5 59.7578L0.5 68.7108L0.891919 68.7108L0.891919 59.7578Z" fill="#292A2E"/>
<path opacity="0.03" d="M2.69158 67.0781L3.0918 67.0781L3.0918 61.387L2.69158 61.387L2.69158 67.0781Z" fill="#292A2E"/>
<path d="M61.1389 42.1328L35.9277 42.1328L35.9277 64.7698L61.1389 64.7698L61.1389 42.1328Z" fill="#F4F4F4"/>
<path d="M35.9276 42.1328L35.6387 42.1328L35.6387 64.7698L35.9276 64.7698L35.9276 42.1328Z" fill="#F4F4F4"/>
<path opacity="0.05" d="M35.9276 42.1328L35.6387 42.1328L35.6387 64.7698L35.9276 64.7698L35.9276 42.1328Z" fill="#292A2E"/>
<path opacity="0.05" d="M42.0354 57.7351L42.0354 51.8125L47.4386 51.8125L47.4386 55.2534L55.808 55.2534L55.808 61.3459L59.3652 61.3459L59.3652 64.7734L55.808 64.7734L55.1228 64.7734L37.1406 64.7734L37.1406 57.7351L42.0354 57.7351Z" fill="#292A2E"/>
<path opacity="0.34" d="M46.7452 52.4531L42.8105 52.4531L42.8105 53.0962L46.7452 53.0962L46.7452 52.4531Z" fill="#FFFFFA"/>
<path opacity="0.34" d="M46.7452 53.7891L42.8105 53.7891L42.8105 54.4321L46.7452 54.4321L46.7452 53.7891Z" fill="#FFFFFA"/>
<path opacity="0.34" d="M46.7452 55.1172L42.8105 55.1172L42.8105 55.7602L46.7452 55.7602L46.7452 55.1172Z" fill="#FFFFFA"/>
<path opacity="0.34" d="M38.5651 58.3594L37.8398 58.3594L37.8398 59.0024L38.5651 59.0024L38.5651 58.3594Z" fill="#FFFFFA"/>
<path opacity="0.34" d="M38.5651 59.6953L37.8398 59.6953L37.8398 60.3384L38.5651 60.3384L38.5651 59.6953Z" fill="#FFFFFA"/>
<path opacity="0.34" d="M38.5651 61.0234L37.8398 61.0234L37.8398 61.6665L38.5651 61.6665L38.5651 61.0234Z" fill="#FFFFFA"/>
<path opacity="0.34" d="M39.9069 58.3594L39.1816 58.3594L39.1816 59.0024L39.9069 59.0024L39.9069 58.3594Z" fill="#FFFFFA"/>
<path opacity="0.34" d="M39.9069 59.6953L39.1816 59.6953L39.1816 60.3384L39.9069 60.3384L39.9069 59.6953Z" fill="#FFFFFA"/>
<path opacity="0.34" d="M39.9069 61.0234L39.1816 61.0234L39.1816 61.6665L39.9069 61.6665L39.9069 61.0234Z" fill="#FFFFFA"/>
<path opacity="0.34" d="M41.2116 58.3594L40.4863 58.3594L40.4863 59.0024L41.2116 59.0024L41.2116 58.3594Z" fill="#FFFFFA"/>
<path opacity="0.34" d="M41.2116 59.6953L40.4863 59.6953L40.4863 60.3384L41.2116 60.3384L41.2116 59.6953Z" fill="#FFFFFA"/>
<path opacity="0.34" d="M41.2116 61.0234L40.4863 61.0234L40.4863 61.6665L41.2116 61.6665L41.2116 61.0234Z" fill="#FFFFFA"/>
<path d="M35.9277 53.3244L41.0006 53.3244L41.0006 42.1328L41.4202 42.1328L41.4202 53.3244L55.1226 53.3244L55.1226 42.1328L55.5421 42.1328L55.5421 53.3244L61.1389 53.3244L61.1389 53.701L55.5421 53.701L55.5421 64.7699L55.1226 64.7699L55.1226 53.701L41.4202 53.701L41.4202 64.7699L41.0006 64.7699L41.0006 53.701L35.9277 53.701L35.9277 53.3244Z" fill="white"/>
<path d="M62.1437 64.7422L34.9238 64.7422L34.9238 65.495L62.1437 65.495L62.1437 64.7422Z" fill="#F4F4F4"/>
<path opacity="0.1" d="M62.1437 64.7422L34.9238 64.7422L34.9238 65.495L62.1437 65.495L62.1437 64.7422Z" fill="#292A2E"/>
<path opacity="0.1" d="M34.9243 64.7422L34.5312 64.7422L34.5312 65.495L34.9243 65.495L34.9243 64.7422Z" fill="#292A2E"/>
<path opacity="0.1" d="M34.9243 64.7422L34.5312 64.7422L34.5312 65.495L34.9243 65.495L34.9243 64.7422Z" fill="#292A2E"/>
<path d="M56.8167 68.625C52.957 68.625 49.8281 69.5705 49.8281 70.7368L49.8281 73.2508L63.8054 73.2508L63.8054 70.7368C63.8054 69.5705 60.6764 68.625 56.8167 68.625Z" fill="#04B040"/>
<path opacity="0.49" d="M56.8167 68.625C52.957 68.625 49.8281 69.5705 49.8281 70.7368L49.8281 73.2508L63.8054 73.2508L63.8054 70.7368C63.8054 69.5705 60.6764 68.625 56.8167 68.625Z" fill="white"/>
<path opacity="0.49" d="M61.9017 70.7404L61.9017 73.254L49.8281 73.254L49.8281 70.7404C49.8281 69.6714 52.4559 68.7881 55.8649 68.6484C59.2743 68.7881 61.9017 69.6714 61.9017 70.7404Z" fill="white"/>
<path d="M63.8055 97.6824L64.0401 97.6824L63.8055 73.0313L63.573 73.2419L63.7388 90.4613L55.4591 90.5877L55.292 73.2401L55.0595 73.2419L55.2266 90.5912L50.2285 90.6675L50.0607 73.2401L49.8281 73.0331L50.0627 97.6824L50.2932 97.6806L50.2304 90.8764L55.2286 90.8001L55.292 97.6824L55.5246 97.6806L55.4611 90.7965L63.7408 90.6701L63.8055 97.6824Z" fill="#292A2E"/>
<path d="M42.7265 93.9844C42.7265 93.9844 42.3108 95.9188 40.2936 96.0266C38.2764 96.1344 38.7139 97.5773 38.7139 97.5773L46.4224 97.5773L46.4224 94.1193L42.7265 93.9844Z" fill="#04B040"/>
<path d="M47.1244 88.1643C47.1244 88.1643 47.7024 90.0648 45.9455 90.9611C44.1885 91.8573 45.2903 92.9787 45.2903 92.9787L52.2071 89.9232L50.5071 86.8203L47.1244 88.1643Z" fill="#04B040"/>
<path d="M46.3928 89.4179L41.1809 71.7609C40.7856 69.8103 41.3808 68.9647 42.2978 68.1434C43.9091 66.7004 50.5856 63.629 50.5856 63.629L58.5953 63.6094C60.7192 63.6094 62.8069 65.4898 62.8069 67.3967C62.8069 69.3036 60.6479 70.9209 58.524 70.9209L48.6608 71.8048L51.3345 87.9721L46.3928 89.4179Z" fill="#262626"/>
<path d="M51.3343 87.9742L50.2817 81.6094L44.9492 84.5301L46.3926 89.4201L51.3343 87.9742Z" fill="#0C0C0C"/>
<path d="M52.5437 67.2031C52.5437 67.2031 49.1767 67.8769 45.8419 70.8711C43.8201 72.6865 43.9859 75.9717 44.2892 82.2903L47.6012 77.8978L51.2339 72.015L52.5437 67.2031Z" fill="#0C0C0C"/>
<path d="M64.2016 63.609L58.762 63.5859L58.76 63.6502L57.1128 63.6502C57.1128 63.6502 52.9868 67.059 49.6653 69.2071C47.2491 70.7695 45.7752 72.2591 45.6476 73.8826C45.3367 77.8402 41.8301 94.7188 41.8301 94.7188L47.1075 95.4363L51.7388 75.2651C51.7388 75.2651 58.9803 72.2673 60.6554 71.2244C62.2327 70.2421 63.3468 69.8623 63.8688 68.7903C64.7702 66.9389 64.2016 63.609 64.2016 63.609Z" fill="#262626"/>
<path d="M58.0978 64.8438L49.2734 64.9487L54.2235 67.6033L58.3424 65.6935C58.4416 65.6457 58.5201 65.5693 58.5653 65.4767C58.6104 65.384 58.6197 65.2804 58.5915 65.1825C58.5633 65.0846 58.4993 64.998 58.4098 64.9366C58.3203 64.8751 58.2105 64.8425 58.0978 64.8438Z" fill="#292A2E"/>
<path opacity="0.2" d="M58.0978 64.8438L49.2734 64.9487L54.2235 67.6033L58.3424 65.6935C58.4416 65.6457 58.5201 65.5693 58.5653 65.4767C58.6104 65.384 58.6197 65.2804 58.5915 65.1825C58.5633 65.0846 58.4993 64.998 58.4098 64.9366C58.3203 64.8751 58.2105 64.8425 58.0978 64.8438Z" fill="white"/>
<path d="M49.3235 50.625L46.8275 57.8865L41.8281 63.7638L44.7485 66.7739L50.6962 60.8133C50.9702 60.6189 51.1846 60.365 51.3191 60.0755L51.4117 59.8742L54.8472 52.4106L49.3235 50.625Z" fill="#04B040"/>
<path d="M53.1697 42.919C53.1697 42.919 52.164 42.2369 51.9148 40.6681C51.7218 39.4534 52.9698 40.2404 52.9698 40.2404C52.9698 40.2404 52.8404 39.3644 53.5512 39.4514C54.262 39.5383 54.6596 40.4584 54.6596 40.4584" fill="#0C0C0C"/>
<path d="M57.2246 39.5547C57.2246 39.5547 60.7511 39.8941 59.4763 44.1849L59.1643 44.2037L58.5308 44.2418" fill="#0C0C0C"/>
<path d="M53.7598 48.6625C53.7753 48.6607 53.9473 51.2238 57.2635 51.0006C59.5596 50.8461 60.3782 48.6589 60.4308 48.6589C60.1833 48.6116 59.8773 48.5399 59.7558 48.5154C59.4908 48.4601 59.2508 48.3338 59.0677 48.1531C58.8847 47.9724 58.7672 47.746 58.731 47.5039C58.6639 47.1406 58.7775 45.2817 58.7427 44.9141L55.2187 45.6204C55.268 46.3968 55.6126 48.1968 54.4048 48.5154C54.2036 48.568 53.987 48.6167 53.7598 48.6625Z" fill="#E98862"/>
<path opacity="0.52" d="M55.1699 47.7823C55.2251 47.6225 55.2607 47.4578 55.276 47.2911C55.3146 46.9107 55.3068 46.5277 55.2527 46.1488C55.9691 46.0621 56.644 45.7967 57.2008 45.3828C57.2663 45.5998 57.6262 46.5481 57.5263 46.754C57.3381 47.1437 56.453 47.7823 55.1699 47.7823Z" fill="#0C0C0C"/>
<path d="M55.8983 47.2796C57.2887 47.1676 58.9529 46.3788 58.9769 44.6841L58.9985 43.155C59.0225 41.4604 58.0507 40.0752 56.2736 40.0549C54.4966 40.0347 53.1488 41.3933 53.1248 43.088L53.1152 43.7649C53.1164 43.9974 53.1353 44.2296 53.1717 44.4597C53.2628 45.0688 53.4042 45.9947 53.8645 46.621C54.2991 47.2123 55.01 47.3511 55.8983 47.2796Z" fill="#E98862"/>
<path opacity="0.52" d="M55.2519 45.7272C54.965 45.7389 54.679 45.6899 54.417 45.5841C54.4063 45.5797 54.398 45.5718 54.3937 45.562C54.3894 45.5522 54.3896 45.5412 54.3942 45.5315C54.3988 45.5219 54.4075 45.5142 54.4183 45.5101C54.4292 45.5061 54.4413 45.506 54.4522 45.5099C55.0166 45.7261 55.5291 45.6945 55.9342 45.4185C55.9423 45.4127 55.9508 45.4073 55.9596 45.4023C55.9698 45.398 55.9814 45.3973 55.9921 45.4003C56.0029 45.4033 56.012 45.4099 56.0176 45.4186C56.0232 45.4274 56.0249 45.4377 56.0225 45.4476C56.02 45.4574 56.0135 45.4661 56.0042 45.4719C56.001 45.4737 55.9957 45.4774 55.9887 45.4824C55.7758 45.628 55.5192 45.7133 55.2519 45.7272Z" fill="#0C0C0C"/>
<path opacity="0.52" d="M55.2659 46.1051C55.2141 46.108 55.162 46.1068 55.1104 46.1018C55.1046 46.1012 55.0989 46.0996 55.0937 46.0971C55.0885 46.0946 55.084 46.0911 55.0803 46.087C55.0766 46.0829 55.0738 46.0782 55.0721 46.0731C55.0705 46.0681 55.0699 46.0627 55.0706 46.0575C55.0712 46.0522 55.073 46.0471 55.0758 46.0425C55.0786 46.0379 55.0824 46.0338 55.087 46.0304C55.0915 46.0271 55.0968 46.0246 55.1024 46.0231C55.1081 46.0216 55.114 46.0212 55.1199 46.0217C55.4304 46.0513 55.5787 45.9236 55.585 45.9181C55.5934 45.9105 55.6048 45.9063 55.6166 45.9063C55.6285 45.9062 55.6399 45.9105 55.6484 45.918C55.6568 45.9255 55.6615 45.9358 55.6615 45.9465C55.6616 45.9571 55.6568 45.9674 55.6484 45.9749C55.5415 46.0567 55.4063 46.1027 55.2659 46.1051Z" fill="#0C0C0C"/>
<path d="M53.7111 44.0884C53.832 44.0884 53.93 44.0004 53.93 43.8919C53.93 43.7833 53.832 43.6953 53.7111 43.6953C53.5902 43.6953 53.4922 43.7833 53.4922 43.8919C53.4922 44.0004 53.5902 44.0884 53.7111 44.0884Z" fill="#0C0C0C"/>
<path d="M55.8498 43.9634C55.9707 43.9634 56.0687 43.8754 56.0687 43.7669C56.0687 43.6583 55.9707 43.5703 55.8498 43.5703C55.7289 43.5703 55.6309 43.6583 55.6309 43.7669C55.6309 43.8754 55.7289 43.9634 55.8498 43.9634Z" fill="#0C0C0C"/>
<path d="M58.8587 45.1935C59.3987 45.1997 59.8438 44.6859 59.8509 44.201C59.858 43.716 59.4237 43.4436 58.8837 43.4375L58.6008 43.7592L58.3945 45.1882L58.8587 45.1935Z" fill="#E98862"/>
<path d="M58.3205 44.4201C58.3205 44.4201 58.1382 42.0222 57.3283 41.8741C56.7889 41.7755 55.481 42.4624 54.2695 42.2549C53.7395 42.1645 53.2364 42.2819 53.1852 42.5067C53.1649 42.5958 52.8348 41.3166 53.6647 40.3461C54.3255 39.5735 56.488 39.3549 57.4718 39.6083C60.196 40.31 58.9939 43.5489 58.9939 43.5489L58.8725 44.3756L58.3205 44.4201Z" fill="#0C0C0C"/>
<g opacity="0.52">
<path d="M54.9251 45.1686C54.9239 45.1687 54.9228 45.1687 54.9217 45.1686C54.7476 45.1671 54.4559 45.147 54.457 45.0301C54.4583 44.9332 54.7652 43.8904 54.8003 43.7718C54.8033 43.7616 54.8107 43.7529 54.8209 43.7476C54.831 43.7423 54.8431 43.7408 54.8545 43.7435C54.8659 43.7462 54.8756 43.7529 54.8815 43.762C54.8874 43.7711 54.889 43.782 54.886 43.7922C54.7496 44.2541 54.5465 44.9651 54.5457 45.0311C54.5625 45.0589 54.7423 45.0876 54.9224 45.0893C54.9338 45.0895 54.9446 45.0936 54.9527 45.1008C54.9608 45.108 54.9655 45.1177 54.9658 45.1279C54.9661 45.1381 54.9621 45.148 54.9545 45.1556C54.947 45.1632 54.9364 45.1679 54.9251 45.1688L54.9251 45.1686Z" fill="#0C0C0C"/>
</g>
<path d="M54.3312 42.8308C54.1483 42.7856 53.9551 42.7856 53.7722 42.8308C53.6824 42.8525 53.5967 42.8862 53.518 42.9307C53.4402 42.9744 53.3689 43.0266 53.3057 43.0864C53.294 43.097 53.2874 43.1112 53.2871 43.1262C53.2869 43.1411 53.293 43.1555 53.3043 43.1664C53.3156 43.1774 53.3312 43.184 53.3478 43.1849C53.3644 43.1858 53.3807 43.1809 53.3934 43.1713L53.3974 43.1682C53.4559 43.1195 53.521 43.0777 53.5911 43.0437C53.66 43.0098 53.7341 42.9855 53.8111 42.9716C53.9625 42.9431 54.1197 42.951 54.2666 42.9945L54.2727 42.9964C54.2968 43.0034 54.3229 43.0017 54.3456 42.9916C54.3682 42.9815 54.3856 42.9639 54.394 42.9425C54.4024 42.9211 54.4012 42.8976 54.3907 42.877C54.3801 42.8564 54.361 42.8403 54.3374 42.8322L54.3312 42.8308Z" fill="#0C0C0C"/>
<path d="M55.6275 42.9254C55.7667 42.8647 55.9213 42.838 56.0756 42.8482C56.1539 42.8528 56.231 42.868 56.3042 42.8933C56.3787 42.9187 56.4494 42.9523 56.5145 42.9935L56.5187 42.996C56.5327 43.0041 56.5496 43.007 56.566 43.0042C56.5823 43.0014 56.5968 42.993 56.6064 42.9808C56.616 42.9686 56.62 42.9535 56.6175 42.9387C56.6151 42.9239 56.6064 42.9106 56.5932 42.9014C56.5217 42.8498 56.4432 42.8065 56.3597 42.7726C56.275 42.7379 56.1851 42.7147 56.0928 42.704C55.9049 42.681 55.7135 42.704 55.5389 42.7706C55.5272 42.7752 55.5166 42.7817 55.5077 42.79C55.4989 42.7982 55.4919 42.808 55.4872 42.8186C55.4826 42.8293 55.4803 42.8407 55.4805 42.8521C55.4807 42.8636 55.4834 42.8749 55.4885 42.8854C55.4988 42.9067 55.5181 42.9233 55.542 42.9318C55.5539 42.936 55.5666 42.9381 55.5794 42.9379C55.5921 42.9377 55.6047 42.9352 55.6164 42.9307L55.6219 42.9284L55.6275 42.9254Z" fill="#0C0C0C"/>
<path d="M55.5393 40.3541C55.6622 39.8258 55.4378 39.3367 55.0381 39.2618C54.6383 39.1868 54.2146 39.5542 54.0917 40.0825C53.9688 40.6108 54.1932 41.0999 54.5929 41.1748C54.9927 41.2498 55.4164 40.8824 55.5393 40.3541Z" fill="#0C0C0C"/>
<path d="M49.6397 54.2987C49.7442 55.4007 50.4846 62.2757 50.5854 63.6331L64.1951 63.6331C64.2733 62.4088 64.6244 57.0558 64.921 54.6615C65.204 52.3771 65.6008 51.3375 65.2747 50.6276C64.6997 49.3755 62.8694 48.8164 61.63 48.6657C60.8732 48.5737 59.7348 48.5078 59.7348 48.5078C59.7348 48.5078 59.6385 50.2585 57.3403 50.3559C54.2118 50.4882 54.4208 48.5078 54.4053 48.5078C53.8984 48.5078 51.1397 48.8388 50.4498 49.2424C49.4755 49.8126 49.1875 50.5897 49.1761 51.3036C49.1631 52.1258 49.5214 53.0488 49.6397 54.2987Z" fill="#04B040"/>
<path d="M50.3299 60.9274C50.3202 60.9274 50.3108 60.9242 50.3037 60.9183C50.2965 60.9124 50.292 60.9043 50.2912 60.8956L49.7755 55.6004C49.7746 55.5912 49.7778 55.5821 49.7844 55.575C49.791 55.5679 49.8005 55.5635 49.8107 55.5627C49.8158 55.5622 49.821 55.5627 49.8259 55.564C49.8307 55.5654 49.8353 55.5676 49.8392 55.5705C49.8431 55.5735 49.8463 55.5771 49.8487 55.5812C49.851 55.5853 49.8524 55.5898 49.8527 55.5943L50.3684 60.8896C50.3693 60.8988 50.3661 60.9079 50.3595 60.9149C50.3529 60.922 50.3434 60.9264 50.3332 60.9272C50.3321 60.9273 50.331 60.9274 50.3299 60.9274Z" fill="#0C0C0C"/>
<path d="M51.3167 63.9986L53.1854 62.6372L52.871 62.7171C52.7689 62.741 52.6605 62.7293 52.5677 62.6842C52.4749 62.6391 52.4046 62.5641 52.371 62.4743C52.3555 62.4274 52.3507 62.3782 52.3571 62.3296C52.3635 62.281 52.3808 62.2341 52.408 62.1917C52.4352 62.1493 52.4718 62.1124 52.5154 62.0831C52.5591 62.0538 52.6089 62.0328 52.6619 62.0214L56.5878 61.1641L56.9256 62.2869C57.0305 62.6356 57.0171 63.0045 56.887 63.3463C56.757 63.6881 56.5162 63.9873 56.1955 64.2054L54.7409 65.1911C54.6664 65.2436 54.5741 65.2713 54.4794 65.2697C54.3848 65.2681 54.2937 65.2372 54.2215 65.1822C54.1574 65.1312 54.1132 65.0632 54.0952 64.9881C54.0773 64.913 54.0866 64.8346 54.1218 64.7646C54.1155 64.7629 54.1098 64.7597 54.1053 64.7554C54.1014 64.7512 54.0987 64.7462 54.0975 64.7408C54.0962 64.7354 54.0965 64.7298 54.0983 64.7246L53.8303 64.9068C53.7475 64.9655 53.643 64.9938 53.5378 64.986C53.4327 64.9781 53.3348 64.9347 53.2639 64.8645C53.203 64.7998 53.1695 64.7179 53.1692 64.6332C53.1689 64.5485 53.2019 64.4664 53.2624 64.4014C53.2582 64.4008 53.2541 64.3996 53.2504 64.3977L53.1403 64.4726C53.0659 64.5251 52.9735 64.5528 52.8789 64.5512C52.7843 64.5496 52.6932 64.5187 52.621 64.4637C52.5433 64.4019 52.4952 64.3155 52.4869 64.2226C52.4786 64.1297 52.5107 64.0375 52.5765 63.9654C52.5749 63.9634 52.5736 63.9612 52.5726 63.959L51.7943 64.5259C51.7558 64.554 51.7114 64.575 51.6638 64.5877C51.6162 64.6004 51.5662 64.6045 51.5168 64.5999C51.4674 64.5953 51.4195 64.582 51.3758 64.5607C51.3321 64.5395 51.2935 64.5107 51.2622 64.4761C51.2309 64.4414 51.2076 64.4016 51.1934 64.3588C51.1793 64.3161 51.1746 64.2712 51.1798 64.2269C51.1849 64.1825 51.1998 64.1395 51.2234 64.1002C51.2471 64.061 51.2791 64.0264 51.3177 63.9983L51.3167 63.9986Z" fill="#E98862"/>
<path opacity="0.2" d="M52.6188 63.9757C52.6229 63.9744 52.6267 63.9724 52.6301 63.9699L53.3789 63.4114C53.3827 63.4085 53.3858 63.4051 53.3881 63.4011C53.3904 63.3972 53.3918 63.3929 53.3923 63.3885C53.3927 63.384 53.3922 63.3796 53.3907 63.3753C53.3893 63.3711 53.3869 63.3672 53.3837 63.3637C53.3805 63.3603 53.3767 63.3575 53.3723 63.3554C53.3679 63.3534 53.3631 63.3521 53.3582 63.3517C53.3533 63.3513 53.3483 63.3518 53.3436 63.3531C53.3388 63.3544 53.3345 63.3566 53.3307 63.3594L52.5819 63.9179C52.5751 63.923 52.5705 63.93 52.569 63.9379C52.5674 63.9457 52.5689 63.9538 52.5733 63.9607C52.5777 63.9676 52.5847 63.9729 52.593 63.9756C52.6013 63.9784 52.6104 63.9784 52.6188 63.9757Z" fill="#0A0A0A"/>
<path opacity="0.2" d="M53.279 64.399C53.283 64.3977 53.2868 64.3958 53.2901 64.3933L53.8824 63.9585C53.8901 63.9528 53.895 63.9446 53.896 63.9357C53.897 63.9267 53.8941 63.9178 53.8877 63.9109C53.8814 63.9039 53.8723 63.8995 53.8623 63.8986C53.8524 63.8977 53.8424 63.9004 53.8347 63.9061L53.2424 64.3409C53.2355 64.346 53.2308 64.353 53.2292 64.3609C53.2275 64.3688 53.229 64.3769 53.2334 64.3838C53.2378 64.3908 53.2448 64.3961 53.2531 64.3989C53.2615 64.4017 53.2706 64.4017 53.279 64.399Z" fill="#0A0A0A"/>
<path opacity="0.2" d="M54.146 64.7691C54.1503 64.7676 54.1543 64.7655 54.1578 64.7629L54.4322 64.5516C54.4359 64.5487 54.439 64.5452 54.4412 64.5413C54.4435 64.5373 54.4448 64.533 54.4452 64.5286C54.4456 64.5241 54.445 64.5197 54.4434 64.5155C54.4419 64.5113 54.4395 64.5073 54.4362 64.504C54.433 64.5006 54.4291 64.4978 54.4247 64.4958C54.4203 64.4938 54.4155 64.4926 54.4105 64.4923C54.4056 64.4919 54.4007 64.4925 54.396 64.4939C54.3913 64.4952 54.3869 64.4974 54.3832 64.5003L54.1088 64.7116C54.1021 64.7167 54.0977 64.7238 54.0962 64.7316C54.0948 64.7394 54.0964 64.7474 54.1008 64.7542C54.1052 64.761 54.1122 64.7662 54.1204 64.7689C54.1286 64.7717 54.1377 64.7717 54.146 64.7691Z" fill="#0A0A0A"/>
<path d="M67.8328 60.6647L67.8184 60.6076L65.3343 50.7422L60.4198 51.7397L62.3587 59.4403L54.5918 61.1539L55.5476 65.089L65.898 63.3164C65.9212 63.3123 65.9557 63.3061 65.9793 63.3013C66.2938 63.2374 66.5912 63.1186 66.8546 62.9515C67.118 62.7845 67.3421 62.5725 67.5142 62.3277C67.6863 62.0828 67.803 61.81 67.8577 61.5246C67.9124 61.2393 67.9039 60.9471 67.8328 60.6647Z" fill="#04B040"/>
<path d="M54.5536 61.1591C54.5515 61.1502 54.5533 61.141 54.5587 61.1334C54.564 61.1258 54.5725 61.1203 54.5822 61.1181L62.3146 59.4129L61.0574 54.427C61.0559 54.4225 61.0556 54.4177 61.0563 54.413C61.0569 54.4084 61.0587 54.4039 61.0614 54.3998C61.0641 54.3957 61.0676 54.3922 61.0719 54.3895C61.0761 54.3867 61.081 54.3847 61.0861 54.3837C61.0912 54.3826 61.0965 54.3825 61.1017 54.3834C61.1069 54.3842 61.1118 54.386 61.1161 54.3886C61.1205 54.3913 61.1243 54.3946 61.1271 54.3986C61.13 54.4025 61.1319 54.407 61.1329 54.4116L62.3985 59.4309C62.4009 59.4398 62.3992 59.4492 62.3938 59.457C62.3885 59.4649 62.3799 59.4705 62.37 59.4726L54.6371 61.1779C54.6371 61.1779 54.6889 61.3808 54.7036 61.4493C54.7047 61.4582 54.7019 61.4672 54.6957 61.4742C54.6894 61.4813 54.6804 61.4858 54.6705 61.4868C54.6605 61.4879 54.6505 61.4853 54.6427 61.4797C54.6349 61.4742 54.6298 61.466 54.6287 61.4571C54.6108 61.382 54.5536 61.1591 54.5536 61.1591Z" fill="#0C0C0C"/>
<path d="M54.8569 66.6547L51.8706 58.4123C51.8181 58.2675 51.716 58.1413 51.5787 58.0518C51.4415 57.9622 51.2762 57.914 51.1065 57.9141L38.9402 57.9141C38.8134 57.9141 38.6884 57.941 38.5754 57.9927C38.4624 58.0444 38.3646 58.1194 38.2901 58.2115C38.2156 58.3037 38.1664 58.4104 38.1466 58.5228C38.1268 58.6353 38.1369 58.7504 38.1761 58.8587L41.1625 67.101C41.215 67.2459 41.3172 67.3721 41.4544 67.4616C41.5917 67.5511 41.757 67.5993 41.9266 67.5993L54.0928 67.5993C54.2196 67.5993 54.3447 67.5723 54.4576 67.5206C54.5706 67.4689 54.6684 67.3939 54.7429 67.3018C54.8174 67.2097 54.8666 67.103 54.8864 66.9905C54.9062 66.8781 54.8961 66.763 54.8569 66.6547Z" fill="#292A2E"/>
<path opacity="0.2" d="M54.8569 66.6547L51.8706 58.4123C51.8181 58.2675 51.716 58.1413 51.5787 58.0518C51.4415 57.9622 51.2762 57.914 51.1065 57.9141L38.9402 57.9141C38.8134 57.9141 38.6884 57.941 38.5754 57.9927C38.4624 58.0444 38.3646 58.1194 38.2901 58.2115C38.2156 58.3037 38.1664 58.4104 38.1466 58.5228C38.1268 58.6353 38.1369 58.7504 38.1761 58.8587L41.1625 67.101C41.215 67.2459 41.3172 67.3721 41.4544 67.4616C41.5917 67.5511 41.757 67.5993 41.9266 67.5993L54.0928 67.5993C54.2196 67.5993 54.3447 67.5723 54.4576 67.5206C54.5706 67.4689 54.6684 67.3939 54.7429 67.3018C54.8174 67.2097 54.8666 67.103 54.8864 66.9905C54.9062 66.8781 54.8961 66.763 54.8569 66.6547Z" fill="white"/>
<path d="M46.1666 63.9008C46.8713 63.9008 47.4426 63.3878 47.4426 62.7551C47.4426 62.1223 46.8713 61.6094 46.1666 61.6094C45.4619 61.6094 44.8906 62.1223 44.8906 62.7551C44.8906 63.3878 45.4619 63.9008 46.1666 63.9008Z" fill="white"/>
<path d="M34.1532 39.8672L10.006 39.8672C8.88734 39.8672 7.98047 40.6815 7.98047 41.6859L7.98047 68.0069C7.98047 69.0114 8.88734 69.8256 10.006 69.8256L34.1532 69.8256C35.2718 69.8256 36.1787 69.0114 36.1787 68.0069L36.1787 41.6859C36.1787 40.6815 35.2718 39.8672 34.1532 39.8672Z" fill="#292A2E"/>
<path d="M35.0477 39.0703L10.9006 39.0703C9.78187 39.0703 8.875 39.8846 8.875 40.8891L8.875 67.21C8.875 68.2145 9.78187 69.0288 10.9006 69.0288L35.0477 69.0288C36.1664 69.0288 37.0732 68.2145 37.0732 67.21L37.0732 40.8891C37.0732 39.8846 36.1664 39.0703 35.0477 39.0703Z" fill="white"/>
<path d="M35.0471 69.0977L10.9 69.0977C10.3424 69.0971 9.80778 68.898 9.4135 68.5439C9.01923 68.1899 8.79747 67.7099 8.79687 67.2092L8.79687 40.8883C8.79749 40.3877 9.01926 39.9077 9.41353 39.5537C9.8078 39.1997 10.3424 39.0006 10.9 39L35.0471 39C35.6046 39.0006 36.1392 39.1997 36.5334 39.5537C36.9277 39.9077 37.1495 40.3877 37.1501 40.8883L37.1501 67.2092C37.1495 67.7099 36.9277 68.1899 36.5335 68.5439C36.1392 68.8979 35.6047 69.0971 35.0471 69.0977ZM10.9 39.1392C10.3835 39.1397 9.88831 39.3242 9.52311 39.6521C9.1579 39.98 8.95248 40.4246 8.95191 40.8883L8.95191 67.2092C8.95248 67.673 9.1579 68.1176 9.52311 68.4455C9.88831 68.7734 10.3835 68.9579 10.9 68.9584L35.0471 68.9584C35.5635 68.9579 36.0587 68.7734 36.4239 68.4455C36.7891 68.1176 36.9945 67.673 36.995 67.2092L36.995 40.8883C36.9945 40.4246 36.7891 39.98 36.4239 39.6521C36.0587 39.3242 35.5635 39.1397 35.0471 39.1392L10.9 39.1392Z" fill="#292A2E"/>
<path d="M8.54851 72.7966C11.3259 72.7966 13.5775 70.775 13.5775 68.2811C13.5775 65.7873 11.3259 63.7656 8.54851 63.7656C5.77108 63.7656 3.51953 65.7873 3.51953 68.2811C3.51953 70.775 5.77108 72.7966 8.54851 72.7966Z" fill="#292A2E"/>
<path d="M7.50358 67.6866C7.43738 67.6866 7.37388 67.663 7.32706 67.621C7.28024 67.5789 7.25393 67.5219 7.25391 67.4625L7.25391 66.3773C7.25391 65.7773 7.83427 65.2891 8.54756 65.2891C9.26086 65.2891 9.84122 65.7773 9.84122 66.3773L9.84122 67.388C9.84181 67.4178 9.83578 67.4474 9.8235 67.475C9.81122 67.5027 9.79292 67.5278 9.76968 67.5491C9.74644 67.5703 9.71873 67.5872 9.68815 67.5987C9.65757 67.6102 9.62474 67.6162 9.59158 67.6162C9.55843 67.6162 9.5256 67.6102 9.49502 67.5987C9.46444 67.5872 9.43673 67.5703 9.41349 67.5491C9.39025 67.5278 9.37195 67.5027 9.35967 67.475C9.34739 67.4474 9.34136 67.4178 9.34195 67.388L9.34195 66.3773C9.34195 66.0245 8.98537 65.7374 8.54756 65.7374C8.10976 65.7374 7.75318 66.0245 7.75318 66.3773L7.75318 67.4626C7.75314 67.522 7.72683 67.579 7.68002 67.621C7.63322 67.663 7.56976 67.6866 7.50358 67.6866Z" fill="white"/>
<path d="M10.1408 67.2734L6.95548 67.2734C6.76973 67.2734 6.61914 67.4086 6.61914 67.5754L6.61914 70.2694C6.61914 70.4362 6.76973 70.5714 6.95548 70.5714L10.1408 70.5714C10.3265 70.5714 10.4771 70.4362 10.4771 70.2694L10.4771 67.5754C10.4771 67.4086 10.3265 67.2734 10.1408 67.2734Z" fill="white"/>
<path d="M8.23086 68.6596C8.23083 68.7131 8.24753 68.7654 8.27905 68.8107C8.31058 68.8561 8.35566 68.8925 8.40914 68.9159L8.40914 69.3534C8.40914 69.3864 8.42373 69.418 8.44969 69.4413C8.47565 69.4646 8.51087 69.4777 8.54758 69.4777C8.5843 69.4777 8.61952 69.4646 8.64548 69.4413C8.67144 69.418 8.68603 69.3864 8.68603 69.3534L8.68603 68.9159C8.73697 68.8937 8.78037 68.8597 8.81171 68.8173C8.84305 68.775 8.86119 68.7259 8.86424 68.6751C8.86729 68.6243 8.85515 68.5737 8.82907 68.5286C8.803 68.4835 8.76393 68.4454 8.71595 68.4184C8.66796 68.3914 8.6128 68.3765 8.55619 68.3751C8.49959 68.3737 8.4436 68.386 8.39406 68.4106C8.34451 68.4352 8.30321 68.4713 8.27444 68.5151C8.24567 68.5589 8.23049 68.6088 8.23047 68.6596L8.23086 68.6596Z" fill="#292A2E"/>
<path d="M32.9377 54.0234L13.0079 54.0234C12.5322 54.0234 12.1465 54.3697 12.1465 54.7969L12.1465 57.3056C12.1465 57.7328 12.5322 58.0791 13.0079 58.0791L32.9377 58.0791C33.4135 58.0791 33.7992 57.7328 33.7992 57.3056L33.7992 54.7969C33.7992 54.3697 33.4135 54.0234 32.9377 54.0234Z" fill="white"/>
<path d="M32.937 58.148L13.0073 58.148C12.7584 58.1477 12.5197 58.0588 12.3437 57.9008C12.1677 57.7427 12.0686 57.5284 12.0684 57.3049L12.0684 54.7963C12.0686 54.5727 12.1677 54.3584 12.3437 54.2004C12.5197 54.0423 12.7584 53.9534 13.0073 53.9531L32.937 53.9531C33.186 53.9534 33.4247 54.0423 33.6007 54.2004C33.7768 54.3584 33.8758 54.5727 33.8761 54.7963L33.8761 57.3049C33.8758 57.5284 33.7768 57.7427 33.6007 57.9008C33.4247 58.0588 33.186 58.1477 32.937 58.148ZM13.0073 54.0923C12.7995 54.0925 12.6002 54.1668 12.4532 54.2987C12.3063 54.4307 12.2236 54.6096 12.2234 54.7963L12.2234 57.3049C12.2236 57.4915 12.3063 57.6704 12.4532 57.8024C12.6002 57.9343 12.7995 58.0086 13.0073 58.0088L32.937 58.0088C33.1449 58.0086 33.3442 57.9343 33.4911 57.8024C33.6381 57.6704 33.7208 57.4915 33.721 57.3049L33.721 54.7963C33.7208 54.6096 33.6381 54.4307 33.4912 54.2987C33.3442 54.1668 33.1449 54.0925 32.937 54.0923L13.0073 54.0923Z" fill="#292A2E"/>
<path d="M32.9377 59.8203L13.0079 59.8203C12.5322 59.8203 12.1465 60.1666 12.1465 60.5938L12.1465 63.1025C12.1465 63.5297 12.5322 63.876 13.0079 63.876L32.9377 63.876C33.4135 63.876 33.7992 63.5297 33.7992 63.1025L33.7992 60.5938C33.7992 60.1666 33.4135 59.8203 32.9377 59.8203Z" fill="white"/>
<path d="M32.937 63.9448L13.0073 63.9448C12.7583 63.9445 12.5196 63.8556 12.3436 63.6975C12.1676 63.5394 12.0686 63.325 12.0684 63.1015L12.0684 60.5931C12.0686 60.3696 12.1677 60.1553 12.3437 59.9972C12.5197 59.8392 12.7584 59.7503 13.0073 59.75L32.937 59.75C33.186 59.7502 33.4247 59.8391 33.6007 59.9972C33.7768 60.1552 33.8758 60.3695 33.8761 60.5931L33.8761 63.1015C33.8758 63.3251 33.7768 63.5394 33.6008 63.6975C33.4247 63.8556 33.186 63.9445 32.937 63.9448ZM13.0073 59.8892C12.7995 59.8894 12.6002 59.9636 12.4532 60.0956C12.3063 60.2275 12.2236 60.4065 12.2234 60.5931L12.2234 63.1015C12.2236 63.2881 12.3063 63.467 12.4532 63.599C12.6002 63.7309 12.7995 63.8052 13.0073 63.8054L32.937 63.8054C33.1449 63.8052 33.3442 63.731 33.4912 63.599C33.6381 63.467 33.7208 63.2881 33.721 63.1015L33.721 60.5931C33.7208 60.4064 33.6381 60.2275 33.4912 60.0956C33.3442 59.9636 33.1449 59.8894 32.937 59.8892L13.0073 59.8892Z" fill="#292A2E"/>
<path d="M22.9729 51.0048C25.5285 51.0048 27.6001 49.1447 27.6001 46.8501C27.6001 44.5555 25.5285 42.6953 22.9729 42.6953C20.4174 42.6953 18.3457 44.5555 18.3457 46.8501C18.3457 49.1447 20.4174 51.0048 22.9729 51.0048Z" fill="white"/>
<path d="M22.9723 51.0737C22.0418 51.0737 21.1322 50.826 20.3585 50.3618C19.5848 49.8976 18.9818 49.2378 18.6257 48.4659C18.2696 47.694 18.1764 46.8447 18.358 46.0252C18.5395 45.2058 18.9876 44.4531 19.6456 43.8623C20.3035 43.2715 21.1418 42.8692 22.0545 42.7062C22.9671 42.5432 23.9131 42.6268 24.7727 42.9466C25.6324 43.2663 26.3672 43.8077 26.8842 44.5024C27.4011 45.1971 27.677 46.0139 27.677 46.8494C27.6757 47.9693 27.1795 49.0431 26.2975 49.835C25.4155 50.627 24.2197 51.0725 22.9723 51.0737ZM22.9723 42.7642C22.0725 42.7642 21.1928 43.0038 20.4446 43.4527C19.6964 43.9016 19.1133 44.5396 18.7689 45.286C18.4246 46.0325 18.3345 46.8539 18.51 47.6463C18.6856 48.4388 19.1189 49.1667 19.7552 49.738C20.3915 50.3093 21.2022 50.6984 22.0847 50.856C22.9673 51.0136 23.8821 50.9327 24.7134 50.6235C25.5448 50.3144 26.2553 49.7907 26.7553 49.1189C27.2552 48.4471 27.522 47.6573 27.522 46.8494C27.5207 45.7663 27.0409 44.7279 26.1879 43.9621C25.335 43.1962 24.1786 42.7654 22.9723 42.7642Z" fill="#292A2E"/>
<path opacity="0.5" d="M27.4966 46.8516C27.4979 47.8133 27.1179 48.7439 26.4246 49.4769C25.9975 49.0299 25.4679 48.6711 24.8719 48.4252C24.2759 48.1792 23.6278 48.0519 22.9719 48.052C22.316 48.0522 21.6679 48.1796 21.072 48.4258C20.4761 48.6719 19.9466 49.0309 19.5198 49.478C19.049 48.9791 18.7193 48.3855 18.5587 47.7476C18.398 47.1098 18.4113 46.4466 18.5973 45.8143C18.7832 45.1821 19.1364 44.5995 19.6269 44.116C20.1173 43.6326 20.7304 43.2626 21.4142 43.0374C22.098 42.8123 22.8322 42.7387 23.5544 42.8229C24.2766 42.907 24.9656 43.1465 25.5627 43.521C26.1598 43.8954 26.6474 44.3937 26.9841 44.9736C27.3208 45.5534 27.4966 46.1977 27.4966 46.8516Z" fill="#04B040"/>
<path d="M26.4243 49.4795C25.9997 49.9298 25.4709 50.2916 24.8747 50.5398C24.2785 50.788 23.6293 50.9166 22.9722 50.9167C22.3151 50.9168 21.6658 50.7884 21.0696 50.5404C20.4733 50.2924 19.9444 49.9308 19.5195 49.4807C19.9464 49.0335 20.4759 48.6746 21.0718 48.4284C21.6676 48.1823 22.3157 48.0548 22.9716 48.0547C23.6275 48.0546 24.2757 48.1819 24.8717 48.4278C25.4676 48.6738 25.9973 49.0325 26.4243 49.4795Z" fill="white"/>
<path d="M22.9714 47.292C23.9814 47.292 24.8002 46.5568 24.8002 45.6499C24.8002 44.743 23.9814 44.0078 22.9714 44.0078C21.9614 44.0078 21.1426 44.743 21.1426 45.6499C21.1426 46.5568 21.9614 47.292 22.9714 47.292Z" fill="white"/>
<g opacity="0.4">
<path d="M13.8235 62.3393C14.1273 62.3393 14.3735 62.1182 14.3735 61.8455C14.3735 61.5727 14.1273 61.3516 13.8235 61.3516C13.5197 61.3516 13.2734 61.5727 13.2734 61.8455C13.2734 62.1182 13.5197 62.3393 13.8235 62.3393Z" fill="#292A2E"/>
<path d="M15.5442 62.3393C15.848 62.3393 16.0942 62.1182 16.0942 61.8455C16.0942 61.5727 15.848 61.3516 15.5442 61.3516C15.2404 61.3516 14.9941 61.5727 14.9941 61.8455C14.9941 62.1182 15.2404 62.3393 15.5442 62.3393Z" fill="#292A2E"/>
<path d="M17.2649 62.3393C17.5687 62.3393 17.8149 62.1182 17.8149 61.8455C17.8149 61.5727 17.5687 61.3516 17.2649 61.3516C16.9611 61.3516 16.7148 61.5727 16.7148 61.8455C16.7148 62.1182 16.9611 62.3393 17.2649 62.3393Z" fill="#292A2E"/>
<path d="M18.9856 62.3393C19.2894 62.3393 19.5356 62.1182 19.5356 61.8455C19.5356 61.5727 19.2894 61.3516 18.9856 61.3516C18.6818 61.3516 18.4355 61.5727 18.4355 61.8455C18.4355 62.1182 18.6818 62.3393 18.9856 62.3393Z" fill="#292A2E"/>
<path d="M20.7063 62.3393C21.0101 62.3393 21.2564 62.1182 21.2564 61.8455C21.2564 61.5727 21.0101 61.3516 20.7063 61.3516C20.4025 61.3516 20.1562 61.5727 20.1562 61.8455C20.1562 62.1182 20.4025 62.3393 20.7063 62.3393Z" fill="#292A2E"/>
<path d="M22.427 62.3393C22.7308 62.3393 22.9771 62.1182 22.9771 61.8455C22.9771 61.5727 22.7308 61.3516 22.427 61.3516C22.1232 61.3516 21.877 61.5727 21.877 61.8455C21.877 62.1182 22.1232 62.3393 22.427 62.3393Z" fill="#292A2E"/>
<path d="M24.1477 62.3393C24.4515 62.3393 24.6978 62.1182 24.6978 61.8455C24.6978 61.5727 24.4515 61.3516 24.1477 61.3516C23.8439 61.3516 23.5977 61.5727 23.5977 61.8455C23.5977 62.1182 23.8439 62.3393 24.1477 62.3393Z" fill="#292A2E"/>
</g>
<g opacity="0.3">
<path d="M14.3685 56.0156L14.3685 56.1827L13.6621 56.1827L13.6621 56.0156L14.3685 56.0156Z" fill="black"/>
<path d="M15.2455 56.0156L15.2455 56.1827L14.5391 56.1827L14.5391 56.0156L15.2455 56.0156Z" fill="black"/>
<path d="M16.1244 56.0156L16.1244 56.1827L15.418 56.1827L15.418 56.0156L16.1244 56.0156Z" fill="black"/>
<path d="M17.0013 56.0156L17.0013 56.1827L16.2949 56.1827L16.2949 56.0156L17.0013 56.0156Z" fill="black"/>
<path d="M17.8803 56.0156L17.8803 56.1827L17.1738 56.1827L17.1738 56.0156L17.8803 56.0156Z" fill="black"/>
<path d="M19.4633 56.9578C19.3061 57.0303 19.1311 57.0657 18.9545 57.0608C18.4855 57.0608 18.0879 56.7526 18.0879 56.2595C18.0879 55.7306 18.4969 55.2734 19.1318 55.2734C19.6294 55.2734 19.9641 55.5866 19.9641 56.0156C19.9641 56.4008 19.7238 56.6268 19.455 56.6268C19.3406 56.6268 19.2348 56.5572 19.2433 56.4008L19.2319 56.4008C19.1949 56.4685 19.1375 56.5256 19.0663 56.5655C18.995 56.6054 18.9128 56.6267 18.8288 56.6268C18.6629 56.6268 18.5199 56.5061 18.5199 56.3033C18.5196 56.2232 18.5369 56.144 18.5708 56.07C18.6048 55.996 18.6547 55.9288 18.7177 55.8722C18.7807 55.8157 18.8556 55.7708 18.938 55.7403C19.0204 55.7099 19.1087 55.6943 19.1978 55.6946C19.3028 55.6932 19.4071 55.7116 19.5038 55.7485L19.4065 56.2133C19.3636 56.4082 19.398 56.4987 19.4923 56.501C19.6382 56.5035 19.8012 56.3289 19.8012 56.031C19.8012 55.6587 19.5524 55.3916 19.1091 55.3916C18.6429 55.3916 18.2511 55.7228 18.2511 56.2442C18.2511 56.673 18.5628 56.9375 18.9861 56.9375C19.1362 56.9407 19.2847 56.9097 19.418 56.8477L19.4633 56.9578ZM19.306 55.8485C19.2595 55.8362 19.2114 55.8302 19.163 55.8305C18.9113 55.8305 18.7082 56.0436 18.7082 56.2927C18.7082 56.4057 18.7712 56.4876 18.897 56.4876C19.0629 56.4876 19.2144 56.2976 19.2458 56.1384L19.306 55.8485Z" fill="black"/>
<path d="M20.8646 56.0156L20.8646 56.1827L20.1582 56.1827L20.1582 56.0156L20.8646 56.0156Z" fill="black"/>
<path d="M21.7436 56.0156L21.7436 56.1827L21.0371 56.1827L21.0371 56.0156L21.7436 56.0156Z" fill="black"/>
<path d="M22.6205 56.0156L22.6205 56.1827L21.9141 56.1827L21.9141 56.0156L22.6205 56.0156Z" fill="black"/>
</g>
</g>
<defs>
<clipPath id="clip0_8038_12328">
<rect width="69" height="60" fill="white" transform="translate(0.5 39)"/>
</clipPath>
</defs>
</svg>
