<svg width="38" height="38" viewBox="0 0 38 38" fill="none" xmlns="http://www.w3.org/2000/svg">
<rect width="38" height="38" rx="10" fill="#3A00F8" fill-opacity="0.1"/>
<g clip-path="url(#clip0_8572_14513)">
<path d="M18.9994 26.7115V30.1401M23.2852 24.9972V28.4258M14.7137 24.9972V28.4258M20.8234 12.8069C20.7258 12.5277 20.5435 12.2859 20.302 12.115C20.0606 11.9442 19.7718 11.8529 19.476 11.8538H18.3703C18.0567 11.8549 17.7545 11.9715 17.5215 12.1813C17.2884 12.3911 17.1408 12.6794 17.1069 12.9912C17.073 13.3029 17.1551 13.6163 17.3375 13.8713C17.52 14.1263 17.79 14.3052 18.096 14.3738L19.7812 14.7441C20.1243 14.8206 20.4272 15.0208 20.632 15.3066C20.8368 15.5923 20.9292 15.9435 20.8914 16.293C20.8537 16.6426 20.6885 16.9659 20.4274 17.2014C20.1663 17.4368 19.8276 17.5677 19.476 17.5692H18.5229C18.2271 17.5701 17.9383 17.4788 17.6968 17.308C17.4553 17.1371 17.2731 16.8953 17.1754 16.6161M18.9994 11.8538V10.4258M18.9994 18.9972V17.5692M11.7137 15.1401C11.6001 15.1401 11.4911 15.0949 11.4107 15.0145C11.3303 14.9342 11.2852 14.8252 11.2852 14.7115C11.2852 14.5978 11.3303 14.4888 11.4107 14.4084C11.4911 14.3281 11.6001 14.2829 11.7137 14.2829C11.8274 14.2829 11.9364 14.3281 12.0168 14.4084C12.0971 14.4888 12.1423 14.5978 12.1423 14.7115C12.1423 14.8252 12.0971 14.9342 12.0168 15.0145C11.9364 15.0949 11.8274 15.1401 11.7137 15.1401ZM26.2852 15.1401C26.1715 15.1401 26.0625 15.0949 25.9821 15.0145C25.9017 14.9342 25.8566 14.8252 25.8566 14.7115C25.8566 14.5978 25.9017 14.4888 25.9821 14.4084C26.0625 14.3281 26.1715 14.2829 26.2852 14.2829C26.3988 14.2829 26.5078 14.3281 26.5882 14.4084C26.6686 14.4888 26.7137 14.5978 26.7137 14.7115C26.7137 14.8252 26.6686 14.9342 26.5882 15.0145C26.5078 15.0949 26.3988 15.1401 26.2852 15.1401Z" stroke="#900BE2" stroke-linecap="round" stroke-linejoin="round"/>
<path d="M28.4289 7.85547H9.57171C9.11705 7.85547 8.68102 8.03608 8.35952 8.35757C8.03803 8.67906 7.85742 9.1151 7.85742 9.56975V19.8555C7.85742 20.3101 8.03803 20.7462 8.35952 21.0677C8.68102 21.3891 9.11705 21.5698 9.57171 21.5698H28.4289C28.8835 21.5698 29.3195 21.3891 29.641 21.0677C29.9625 20.7462 30.1431 20.3101 30.1431 19.8555V9.56975C30.1431 9.1151 29.9625 8.67906 29.641 8.35757C29.3195 8.03608 28.8835 7.85547 28.4289 7.85547Z" stroke="#900BE2" stroke-linecap="round" stroke-linejoin="round"/>
</g>
<defs>
<clipPath id="clip0_8572_14513">
<rect width="24" height="24" fill="white" transform="translate(7 7)"/>
</clipPath>
</defs>
</svg>
