<svg width="25" height="24" viewBox="0 0 25 24" fill="none" xmlns="http://www.w3.org/2000/svg">
<path d="M9.49023 5.9845L16.3917 2L18.6977 5.9945L9.49023 5.9845Z" stroke="#666666" stroke-opacity="0.8" stroke-width="2" stroke-linecap="round" stroke-linejoin="round"/>
<path d="M2.5 7C2.5 6.73478 2.60536 6.48043 2.79289 6.29289C2.98043 6.10536 3.23478 6 3.5 6H21.5C21.7652 6 22.0196 6.10536 22.2071 6.29289C22.3946 6.48043 22.5 6.73478 22.5 7V21C22.5 21.2652 22.3946 21.5196 22.2071 21.7071C22.0196 21.8946 21.7652 22 21.5 22H3.5C3.23478 22 2.98043 21.8946 2.79289 21.7071C2.60536 21.5196 2.5 21.2652 2.5 21V7Z" stroke="#666666" stroke-opacity="0.8" stroke-width="2" stroke-linejoin="round"/>
<path d="M18.125 16.5H22.5V11.5H18.125C16.675 11.5 15.5 12.6195 15.5 14C15.5 15.3805 16.675 16.5 18.125 16.5Z" stroke="#666666" stroke-opacity="0.8" stroke-width="2" stroke-linejoin="round"/>
<path d="M22.5 8.25V20.25" stroke="#666666" stroke-opacity="0.8" stroke-width="2" stroke-linecap="round"/>
</svg>
