<svg width="21" height="20" viewBox="0 0 21 20" fill="none" xmlns="http://www.w3.org/2000/svg">
<path d="M10.5 19C15.4706 19 19.5 14.9706 19.5 10C19.5 5.02944 15.4706 1 10.5 1C5.52944 1 1.5 5.02944 1.5 10C1.5 14.9706 5.52944 19 10.5 19Z" stroke="#666666" stroke-opacity="0.8" stroke-width="1.5"/>
<path d="M13.5 10C13.5 12.598 13.104 14.9236 12.4836 16.5772C12.1728 17.4064 11.8164 18.0364 11.4516 18.448C11.0868 18.8596 10.764 19 10.5 19C10.236 19 9.912 18.8596 9.5472 18.448C9.1836 18.0364 8.8272 17.4064 8.5152 16.5772C7.896 14.9236 7.5 12.598 7.5 10C7.5 7.402 7.896 5.0764 8.5164 3.4228C8.8272 2.5936 9.1836 1.9636 9.5484 1.552C9.9132 1.1404 10.236 1 10.5 1C10.764 1 11.088 1.1404 11.4528 1.552C11.8164 1.9636 12.1728 2.5936 12.4848 3.4228C13.104 5.0764 13.5 7.402 13.5 10Z" stroke="#666666" stroke-opacity="0.8" stroke-width="1.5"/>
<path d="M1.5 10H19.5" stroke="#666666" stroke-opacity="0.8" stroke-width="1.5" stroke-linecap="round"/>
</svg>
