<svg width="22" height="23" viewBox="0 0 22 23" fill="none" xmlns="http://www.w3.org/2000/svg">
<path d="M12.834 3.25V6.91667C12.834 7.15978 12.9306 7.39294 13.1025 7.56485C13.2744 7.73676 13.5075 7.83333 13.7507 7.83333H17.4173" stroke="#494949" stroke-width="1.5" stroke-linecap="round" stroke-linejoin="round"/>
<path d="M15.584 19.75H6.41732C5.93109 19.75 5.46477 19.5568 5.12096 19.213C4.77714 18.8692 4.58398 18.4029 4.58398 17.9167V5.08333C4.58398 4.5971 4.77714 4.13079 5.12096 3.78697C5.46477 3.44315 5.93109 3.25 6.41732 3.25H12.834L17.4173 7.83333V17.9167C17.4173 18.4029 17.2242 18.8692 16.8803 19.213C16.5365 19.5568 16.0702 19.75 15.584 19.75Z" stroke="#494949" stroke-width="1.5" stroke-linecap="round" stroke-linejoin="round"/>
</svg>
