<svg width="38" height="38" viewBox="0 0 38 38" fill="none" xmlns="http://www.w3.org/2000/svg">
<rect width="38" height="38" rx="10" fill="#E6FFED"/>
<path d="M25 22H13L9 26V10C9 9.73478 9.10536 9.48043 9.29289 9.29289C9.48043 9.10536 9.73478 9 10 9H25C25.2652 9 25.5196 9.10536 25.7071 9.29289C25.8946 9.48043 26 9.73478 26 10V21C26 21.2652 25.8946 21.5196 25.7071 21.7071C25.5196 21.8946 25.2652 22 25 22ZM30 16V30L26 26H15C14.7348 26 14.4804 25.8946 14.2929 25.7071C14.1054 25.5196 14 25.2652 14 25V24H28V15H29C29.2652 15 29.5196 15.1054 29.7071 15.2929C29.8946 15.4804 30 15.7348 30 16ZM15.19 11C14.32 11 13.62 11.2 13.08 11.59C12.56 12 12.3 12.57 12.31 13.36L12.32 13.39H14.25C14.26 13.09 14.35 12.86 14.53 12.7C14.7152 12.5464 14.9495 12.4648 15.19 12.47C15.5 12.47 15.76 12.57 15.94 12.75C16.12 12.94 16.2 13.2 16.2 13.5C16.2 13.82 16.13 14.09 15.97 14.32C15.83 14.55 15.62 14.75 15.36 14.91C14.85 15.25 14.5 15.55 14.31 15.82C14.11 16.08 14 16.5 14 17H16C16 16.69 16.04 16.44 16.13 16.26C16.22 16.08 16.39 15.9 16.64 15.74C17.09 15.5 17.46 15.21 17.75 14.81C18.04 14.41 18.19 14 18.19 13.5C18.19 12.74 17.92 12.13 17.38 11.68C16.85 11.23 16.12 11 15.19 11ZM14 18V20H16V18H14ZM20 20H22V18H20V20ZM20 11V17H22V11H20Z" fill="#00B07B"/>
</svg>
