<svg width="38" height="38" viewBox="0 0 38 38" fill="none" xmlns="http://www.w3.org/2000/svg">
<rect width="38" height="38" rx="10" fill="#004FFA" fill-opacity="0.1"/>
<path d="M16.367 9.25H21.633C22.725 9.25 23.591 9.25 24.288 9.307C25.002 9.365 25.605 9.487 26.157 9.767C27.0506 10.2228 27.777 10.9499 28.232 11.844C28.513 12.394 28.635 12.998 28.693 13.712C28.75 14.409 28.75 15.275 28.75 16.367V21.633C28.75 22.725 28.75 23.591 28.693 24.288C28.635 25.002 28.513 25.605 28.233 26.157C27.7774 27.0505 27.0507 27.7768 26.157 28.232C25.605 28.513 25.002 28.635 24.288 28.693C23.591 28.75 22.725 28.75 21.633 28.75H16.367C15.275 28.75 14.409 28.75 13.712 28.693C12.998 28.635 12.395 28.513 11.844 28.233C10.9501 27.7776 10.2234 27.0509 9.768 26.157C9.487 25.605 9.365 25.002 9.307 24.288C9.25 23.591 9.25 22.725 9.25 21.633V16.367C9.25 15.275 9.25 14.409 9.307 13.712C9.365 12.998 9.487 12.395 9.767 11.844C10.2227 10.95 10.9498 10.2232 11.844 9.768C12.394 9.487 12.998 9.365 13.712 9.307C14.409 9.25 15.275 9.25 16.367 9.25ZM17.03 15.97C16.9613 15.8963 16.8785 15.8372 16.7865 15.7962C16.6945 15.7552 16.5952 15.7332 16.4945 15.7314C16.3938 15.7296 16.2938 15.7482 16.2004 15.7859C16.107 15.8236 16.0222 15.8797 15.951 15.951C15.8797 16.0222 15.8236 16.107 15.7859 16.2004C15.7482 16.2938 15.7296 16.3938 15.7314 16.4945C15.7332 16.5952 15.7552 16.6945 15.7962 16.7865C15.8372 16.8785 15.8963 16.9613 15.97 17.03L16.323 17.384C16.3917 17.4577 16.4745 17.5168 16.5665 17.5578C16.6585 17.5988 16.7578 17.6208 16.8585 17.6226C16.9592 17.6244 17.0592 17.6058 17.1526 17.5681C17.246 17.5304 17.3308 17.4743 17.402 17.403C17.4733 17.3318 17.5294 17.247 17.5671 17.1536C17.6048 17.0602 17.6234 16.9602 17.6216 16.8595C17.6198 16.7588 17.5978 16.6595 17.5568 16.5675C17.5158 16.4755 17.4567 16.3927 17.383 16.324L17.03 15.97ZM20.62 20.62C20.4795 20.7606 20.4007 20.9512 20.4007 21.15C20.4007 21.3488 20.4795 21.5394 20.62 21.68L20.973 22.034C21.1152 22.1665 21.3032 22.2386 21.4975 22.2352C21.6918 22.2317 21.8772 22.153 22.0146 22.0156C22.152 21.8782 22.2307 21.6928 22.2342 21.4985C22.2376 21.3042 22.1655 21.1162 22.033 20.974L21.68 20.62C21.5394 20.4795 21.3488 20.4007 21.15 20.4007C20.9512 20.4007 20.7606 20.4795 20.62 20.62ZM22.03 17.03C22.1037 16.9613 22.1628 16.8785 22.2038 16.7865C22.2448 16.6945 22.2668 16.5952 22.2686 16.4945C22.2704 16.3938 22.2518 16.2938 22.2141 16.2004C22.1764 16.107 22.1203 16.0222 22.049 15.951C21.9778 15.8797 21.893 15.8236 21.7996 15.7859C21.7062 15.7482 21.6062 15.7296 21.5055 15.7314C21.4048 15.7332 21.3055 15.7552 21.2135 15.7962C21.1215 15.8372 21.0387 15.8963 20.97 15.97L15.97 20.97C15.8963 21.0387 15.8372 21.1215 15.7962 21.2135C15.7552 21.3055 15.7332 21.4048 15.7314 21.5055C15.7296 21.6062 15.7482 21.7062 15.7859 21.7996C15.8236 21.893 15.8797 21.9778 15.951 22.049C16.0222 22.1203 16.107 22.1764 16.2004 22.2141C16.2938 22.2518 16.3938 22.2704 16.4945 22.2686C16.5952 22.2668 16.6945 22.2448 16.7865 22.2038C16.8785 22.1628 16.9613 22.1037 17.03 22.03L22.03 17.03Z" fill="#0058FC"/>
</svg>
