<svg width="38" height="38" viewBox="0 0 38 38" fill="none" xmlns="http://www.w3.org/2000/svg">
<rect width="38" height="38" rx="10" fill="#FFCB2F" fill-opacity="0.2"/>
<path d="M27.01 12.894C26.9467 12.8437 26.871 12.8114 26.7909 12.8004C26.7108 12.7895 26.6292 12.8003 26.5548 12.8318L19.3098 15.969C18.9948 16.1063 18.6003 16.1715 18.1953 16.1715C17.6305 16.1738 17.0463 16.0425 16.639 15.864C16.5149 15.8119 16.3967 15.7465 16.2865 15.669C16.317 15.654 16.3533 15.638 16.3953 15.621L22.9848 12.768L23.9673 13.188V11.9603C23.9685 11.8728 23.95 11.7861 23.9133 11.7067C23.8766 11.6272 23.8225 11.557 23.755 11.5013C23.6923 11.4505 23.6168 11.4178 23.5368 11.4069C23.4568 11.3959 23.3754 11.407 23.3013 11.439L16.0563 14.5763C15.8328 14.6663 15.6408 14.7773 15.4788 14.9385C15.2914 15.1237 15.1849 15.3756 15.1825 15.639C15.1825 15.6465 15.1848 15.6593 15.1848 15.6593V26.7068L15.1833 26.7218L15.1855 26.7293V26.7413H15.187C15.202 27.1275 15.397 27.3735 15.583 27.5475C16.168 28.0635 17.1505 28.3523 18.196 28.3673C18.691 28.3673 19.1935 28.2923 19.6585 28.0928L26.9058 24.9548C27.097 24.8723 27.2223 24.6675 27.2223 24.4358V13.353C27.2235 13.2655 27.205 13.1788 27.1683 13.0994C27.1316 13.02 27.0775 12.9498 27.01 12.894ZM22.4148 10.794C22.402 10.629 22.3338 10.4715 22.2123 10.377C22.149 10.3267 22.0733 10.2944 21.9932 10.2834C21.9131 10.2725 21.8315 10.2833 21.757 10.3148L14.512 13.4505C14.197 13.587 13.8018 13.653 13.3975 13.653C12.8328 13.6545 12.2485 13.5233 11.8413 13.344C11.7172 13.2923 11.599 13.2275 11.4888 13.1505C11.5193 13.1355 11.5555 13.1195 11.5975 13.1025L18.1878 10.2495L19.1703 10.6695V9.44327C19.1714 9.3557 19.1528 9.26899 19.116 9.18955C19.0791 9.11011 19.0249 9.03995 18.9573 8.98427C18.8941 8.93409 18.8185 8.90183 18.7385 8.89088C18.6586 8.87993 18.5771 8.89068 18.5028 8.92202L11.2578 12.06C11.0343 12.15 10.843 12.2603 10.6803 12.4223C10.4932 12.6076 10.3869 12.8594 10.3848 13.1228C10.3848 13.1318 10.387 13.1438 10.387 13.1438V24.2265H10.3885C10.4035 24.6128 10.5985 24.8588 10.7845 25.0328C11.3695 25.5488 12.352 25.8368 13.3983 25.8518C13.6824 25.8499 13.9656 25.8193 14.2435 25.7603V15.6585C14.236 15.1335 14.446 14.6295 14.815 14.2665C15.071 14.0189 15.3746 13.826 15.7075 13.6995L22.4148 10.794Z" fill="#F29339"/>
</svg>
