<svg width="38" height="38" viewBox="0 0 38 38" fill="none" xmlns="http://www.w3.org/2000/svg">
<rect width="38" height="38" rx="10" fill="#FFEDF5"/>
<path d="M19 7.07812C18.8266 7.07812 18.6531 7.08281 18.4797 7.09078L18.5172 7.93359C18.6766 7.92609 18.8359 7.92188 19 7.92188C24.5688 7.92188 29.0781 12.4312 29.0781 18C29.0781 23.5688 24.5688 28.0781 19 28.0781C14.8 28.0781 11.2023 25.5141 9.68828 21.8625L10.9834 21.4734L8.71328 19.8656L7.82031 22.4203L8.87734 22.1063C10.5006 26.1 14.425 28.9219 19 28.9219C25.0281 28.9219 29.9219 24.0281 29.9219 18C29.9219 11.9719 25.0281 7.07812 19 7.07812ZM17.5562 7.17375C16.9328 7.25578 16.3328 7.38938 15.7469 7.57125L16.0094 8.37234C16.5437 8.20641 17.1016 8.08406 17.6688 8.00906L17.5562 7.17375ZM14.8844 7.8825C14.3031 8.11922 13.75 8.40375 13.225 8.73187L13.6703 9.44484C14.1531 9.14297 14.6641 8.88094 15.1984 8.66344L14.8844 7.8825ZM12.4563 9.25781C11.9641 9.62665 11.5039 10.0362 11.0805 10.4822L11.6922 11.0578C12.0812 10.6467 12.5078 10.2698 12.9578 9.93L12.7328 9.62203L12.4563 9.25781ZM15.7141 9.66L15.5078 10.4775L25.6797 13.0781L25.8859 12.2625L15.7141 9.66ZM10.472 11.1797C10.0881 11.6578 9.74359 12.1734 9.44359 12.7125L10.1772 13.125C10.4542 12.6234 10.772 12.15 11.1269 11.7047L10.472 11.1797ZM16.4547 11.5922C16.2719 12.8109 16.5859 14.1797 17.1203 15.3047C17.4203 15.9328 17.7859 16.4859 18.1469 16.8891C18.3438 17.1094 18.5406 17.2781 18.7188 17.4L18.4656 18.3937C18.25 18.4125 17.9969 18.4688 17.7156 18.5672C17.2047 18.7453 16.6187 19.0547 16.0562 19.4625C15.0437 20.1938 14.1156 21.2391 13.6938 22.3969L21.5453 24.4078C21.7281 23.1891 21.4141 21.8203 20.8797 20.6953C20.5797 20.0672 20.2141 19.5141 19.8531 19.1109C19.6563 18.8906 19.4594 18.7219 19.2812 18.6L19.5344 17.6063C19.7453 17.5828 20.0031 17.5312 20.2844 17.4328C20.7953 17.2547 21.3812 16.9453 21.9437 16.5375C22.9562 15.8063 23.8844 14.7609 24.3063 13.6031L16.4547 11.5922ZM9.02688 13.5422C8.77703 14.1047 8.57219 14.6859 8.4175 15.2906L9.23688 15.4875C9.37891 14.9344 9.56687 14.4 9.79703 13.8844L9.02688 13.5422ZM8.22813 16.1953C8.13016 16.7812 8.07812 17.3859 8.07812 18V18.0422L8.92188 18.0328V18C8.92188 17.4328 8.96969 16.875 9.06016 16.3312L8.22813 16.1953ZM12.3203 22.9219L12.1141 23.7375L22.2859 26.3391L22.4922 25.5234L12.3203 22.9219Z" fill="#FF56A1"/>
</svg>
