<svg width="1280" height="119" viewBox="0 0 1280 119" fill="none" xmlns="http://www.w3.org/2000/svg">
<path d="M1251.08 50.1973L1280 45.5118V53.0545L1267.06 54.2912L1228.75 58.0295L1218.38 59.3497L1181.69 65.5698L1145.58 71.2522L1109.54 75.6357L1069.57 81.2832L1042.98 85.267L998.555 91.6884L946.066 99.9359L901.379 105.372L871.846 108.747L848.23 112.121L823.313 115.248L787.608 118.416L760.617 120.72H703.085H639.223L603.653 119.37L574.211 116.787H539.62C536.548 116.787 508.049 110.463 508.049 110.463L469.574 104.783L435.848 99.9383L394.828 90.8217L351.594 80.9322L275.817 62.9318C275.817 62.9318 242.185 52.3433 201.503 52.0234C160.821 51.7035 116.824 52.0234 116.824 52.0234L72.3855 49.9794L35.4937 52.0234L-0.000854492 55.4301V43.8473L23.1965 39.4186L53.3806 33.2865L101.297 25.1307L144.822 21.0043H187.38C191.052 21.0043 216.919 19.562 235.741 21.0043C254.562 22.4466 265.937 23.3229 265.937 23.3229C265.937 23.3229 282.318 25.1307 295.969 27.7577C309.62 30.3848 303.136 28.5641 320.373 32.794C337.611 37.024 351.594 40.7131 351.594 40.7131L394.828 52.3433L443.132 64.3369L508.049 78.8999L574.211 90.8217L639.223 99.9383L703.085 104.783H760.617H787.608L821.854 102.73L858.82 99.9359L901.379 95.6129L946.066 88.6961L998.555 83.5085L1042.98 77.3888L1069.57 74.6612L1109.54 69.2694L1145.58 64.0734L1181.24 59.3497L1228.75 53.0545L1251.08 50.1973Z" fill="#48B774" stroke="#48B774"/>
<path d="M509.076 114.885C521.691 116.104 541.391 117.815 541.391 117.815C541.391 117.815 522.772 113.78 510.808 111.428C497.625 108.836 490.234 107.351 476.99 105.232C462.187 102.863 438.982 100.13 438.982 100.13L382.885 87.3008L312.733 70.0351C312.733 70.0351 264.064 55.8004 232.203 52.9794C208.95 50.9205 175.114 53.0647 175.114 53.0647L232.203 67.028C232.203 67.028 296.281 80.9136 316.668 84.328C337.054 87.7425 400.89 102.256 400.89 102.256C400.89 102.256 466.762 110.794 509.076 114.885Z" fill="#FABB2A"/>
<path d="M599.662 119.28L576.477 117.815H541.391M541.391 117.815C541.391 117.815 521.691 116.104 509.076 114.885C466.762 110.794 400.89 102.256 400.89 102.256C400.89 102.256 337.054 87.7425 316.668 84.328C296.281 80.9136 232.203 67.028 232.203 67.028L175.114 53.0647C175.114 53.0647 208.95 50.9205 232.203 52.9794C264.064 55.8004 312.733 70.0351 312.733 70.0351L382.885 87.3008L438.982 100.13C438.982 100.13 462.187 102.863 476.99 105.232C490.234 107.351 497.625 108.836 510.808 111.428C522.772 113.78 541.391 117.815 541.391 117.815Z" stroke="#FABB2A" stroke-width="2"/>
<path d="M0.200577 68.8345C0.200577 68.8345 23.0522 69.3875 37.6823 68.8345C59.3143 68.0168 92.9289 63.6487 92.9289 63.6487C109.266 63.1491 137.923 60.2717 137.923 60.2717L175.234 53.0528L109.266 51.2383H68.4049L37.6823 53.0528L0.200577 55.2932V68.8345Z" fill="#00C4C7" stroke="#00C4C7" stroke-width="2"/>
<path d="M1280 53.9531V64.0833L1250.64 71.755C1250.64 71.755 1222.66 76.5259 1207.91 78.9829C1193.16 81.4399 1157.75 84.5015 1157.75 84.5015C1157.75 84.5015 1113.4 86.8222 1085.03 89.138C1043.46 92.5305 978.78 100.597 978.78 100.597L851.885 112.168L936.242 100.597L986.467 94.159L1045.75 84.5015L1085.03 78.9829L1120.72 74.4225L1157.75 69.4124L1202.41 62.6131L1236.79 57.961L1280 53.9531Z" fill="#C84EAD" stroke="#C84EAD"/>
<path d="M1280 0C1280 0 993.32 83.3362 997.826 83.0596C1002.33 82.7829 1280 52.5069 1280 52.5069V0Z" fill="#48B774"/>
</svg>
