<svg width="17" height="16" viewBox="0 0 17 16" fill="none" xmlns="http://www.w3.org/2000/svg">
<g clip-path="url(#clip0_8336_2618)">
<path d="M16.5002 6.27821C16.5005 6.06099 16.4433 5.84756 16.3344 5.65962C16.2255 5.47168 16.0688 5.31593 15.8802 5.20821L9.14018 1.20821C8.94593 1.09487 8.72507 1.03516 8.50018 1.03516C8.27529 1.03516 8.05443 1.09487 7.86018 1.20821L1.11018 5.20821C0.923651 5.31889 0.769131 5.47619 0.661807 5.66467C0.554482 5.85315 0.498047 6.06631 0.498047 6.28321C0.498047 6.5001 0.554482 6.71326 0.661807 6.90174C0.769131 7.09022 0.923651 7.24753 1.11018 7.35821L3.03018 8.47821V11.2882C3.03133 11.5078 3.08897 11.7234 3.19756 11.9143C3.30614 12.1052 3.46201 12.265 3.65018 12.3782L7.90018 14.8282C8.08994 14.9333 8.30328 14.9884 8.52018 14.9884C8.73708 14.9884 8.95042 14.9333 9.14018 14.8282L13.3902 12.3782C13.5784 12.265 13.7342 12.1052 13.8428 11.9143C13.9514 11.7234 14.009 11.5078 14.0102 11.2882V8.44821L15.2502 7.71821V10.4382H16.5002V6.27821ZM12.7702 11.2782L8.50018 13.7382L4.28018 11.2882V9.21821L7.86018 11.3482C8.05509 11.4596 8.27569 11.5182 8.50018 11.5182C8.72467 11.5182 8.94527 11.4596 9.14018 11.3482L12.7602 9.18821L12.7702 11.2782ZM8.50018 10.2682L1.75018 6.26821L8.50018 2.25821L15.2502 6.25821L8.50018 10.2682Z" fill="#494949"/>
</g>
<defs>
<clipPath id="clip0_8336_2618">
<rect width="16" height="16" fill="white" transform="translate(0.5)"/>
</clipPath>
</defs>
</svg>
