<svg width="24" height="24" viewBox="0 0 24 24" fill="none" xmlns="http://www.w3.org/2000/svg">
<path fill-rule="evenodd" clip-rule="evenodd" d="M11.448 4.25H12.552C13.451 4.25 14.2 4.25 14.794 4.33C15.422 4.414 15.989 4.6 16.444 5.055C16.9 5.511 17.086 6.078 17.17 6.705C17.25 7.3 17.25 8.049 17.25 8.948V15.052C17.25 15.951 17.25 16.7 17.17 17.294C17.086 17.922 16.9 18.489 16.444 18.944C15.989 19.4 15.422 19.586 14.794 19.67C14.2 19.75 13.45 19.75 12.552 19.75H11.448C10.549 19.75 9.8 19.75 9.206 19.67C8.578 19.586 8.011 19.4 7.556 18.944C7.1 18.489 6.914 17.922 6.83 17.294C6.75 16.7 6.75 15.95 6.75 15.052V8.948C6.75 8.05 6.75 7.3 6.83 6.706C6.914 6.078 7.1 5.511 7.555 5.056C8.011 4.6 8.578 4.414 9.205 4.33C9.8 4.25 10.55 4.25 11.448 4.25ZM9.405 5.817C8.944 5.879 8.746 5.986 8.616 6.117C8.486 6.248 8.379 6.444 8.316 6.905C8.253 7.388 8.25 8.036 8.25 9V15C8.25 15.964 8.252 16.612 8.317 17.095C8.379 17.556 8.486 17.754 8.617 17.884C8.748 18.014 8.944 18.121 9.405 18.184C9.888 18.248 10.536 18.25 11.5 18.25H12.5C13.464 18.25 14.112 18.248 14.595 18.183C15.056 18.121 15.254 18.014 15.384 17.883C15.514 17.752 15.621 17.556 15.684 17.095C15.748 16.612 15.75 15.964 15.75 15V9C15.75 8.036 15.748 7.388 15.684 6.905C15.621 6.444 15.514 6.246 15.384 6.116C15.254 5.986 15.056 5.879 14.594 5.816C14.112 5.752 13.464 5.75 12.5 5.75H11.5C10.536 5.75 9.888 5.752 9.405 5.817Z" fill="white"/>
<path d="M21.5 5.75C21.0359 5.75 20.5908 5.93437 20.2626 6.26256C19.9344 6.59075 19.75 7.03587 19.75 7.5V16.5C19.75 17.466 20.534 18.25 21.5 18.25H22C22.1989 18.25 22.3897 18.329 22.5303 18.4697C22.671 18.6103 22.75 18.8011 22.75 19C22.75 19.1989 22.671 19.3897 22.5303 19.5303C22.3897 19.671 22.1989 19.75 22 19.75H21.5C20.638 19.75 19.8114 19.4076 19.2019 18.7981C18.5924 18.1886 18.25 17.362 18.25 16.5V7.5C18.25 6.63805 18.5924 5.8114 19.2019 5.2019C19.8114 4.59241 20.638 4.25 21.5 4.25H22C22.1989 4.25 22.3897 4.32902 22.5303 4.46967C22.671 4.61032 22.75 4.80109 22.75 5C22.75 5.19891 22.671 5.38968 22.5303 5.53033C22.3897 5.67098 22.1989 5.75 22 5.75H21.5ZM2 4.25C1.80109 4.25 1.61032 4.32902 1.46967 4.46967C1.32902 4.61032 1.25 4.80109 1.25 5C1.25 5.19891 1.32902 5.38968 1.46967 5.53033C1.61032 5.67098 1.80109 5.75 2 5.75H2.5C3.466 5.75 4.25 6.534 4.25 7.5V16.5C4.25 16.9641 4.06563 17.4092 3.73744 17.7374C3.40925 18.0656 2.96413 18.25 2.5 18.25H2C1.80109 18.25 1.61032 18.329 1.46967 18.4697C1.32902 18.6103 1.25 18.8011 1.25 19C1.25 19.1989 1.32902 19.3897 1.46967 19.5303C1.61032 19.671 1.80109 19.75 2 19.75H2.5C2.9268 19.75 3.34941 19.6659 3.74372 19.5026C4.13803 19.3393 4.49631 19.0999 4.7981 18.7981C5.09989 18.4963 5.33928 18.138 5.50261 17.7437C5.66594 17.3494 5.75 16.9268 5.75 16.5V7.5C5.75 7.0732 5.66594 6.65059 5.50261 6.25628C5.33928 5.86197 5.09989 5.50369 4.7981 5.2019C4.49631 4.90011 4.13803 4.66072 3.74372 4.49739C3.34941 4.33406 2.9268 4.25 2.5 4.25H2Z" fill="white"/>
</svg>
