<svg width="30" height="31" viewBox="0 0 30 31" fill="none" xmlns="http://www.w3.org/2000/svg">
<path d="M6.58557 12.6876C6.584 11.5762 6.80234 10.4754 7.22802 9.44876C7.65369 8.42207 8.27828 7.48975 9.06581 6.70548C9.85334 5.92122 10.7883 5.30051 11.8167 4.87911C12.8452 4.45771 13.9468 4.24395 15.0582 4.25013C19.6988 4.28529 23.4137 8.14076 23.4137 12.7931V13.6251C23.4137 17.8204 24.2926 20.2579 25.066 21.5939C25.1482 21.7362 25.1915 21.8975 25.1916 22.0618C25.1918 22.2261 25.1488 22.3875 25.0669 22.53C24.985 22.6724 24.8671 22.7908 24.725 22.8733C24.583 22.9558 24.4217 22.9996 24.2574 23.0001H5.74182C5.57753 22.9996 5.41628 22.9558 5.27422 22.8733C5.13216 22.7908 5.01428 22.6724 4.93239 22.53C4.8505 22.3875 4.80747 22.2261 4.80762 22.0618C4.80776 21.8975 4.85108 21.7362 4.93322 21.5939C5.70666 20.2579 6.58557 17.8204 6.58557 13.6251V12.6876Z" stroke="#333333" stroke-width="2" stroke-linecap="round" stroke-linejoin="round"/>
<path d="M11.25 23V23.9375C11.25 24.9321 11.6451 25.8859 12.3483 26.5891C13.0516 27.2924 14.0054 27.6875 15 27.6875C15.9946 27.6875 16.9484 27.2924 17.6516 26.5891C18.3549 25.8859 18.75 24.9321 18.75 23.9375V23" stroke="#333333" stroke-width="2" stroke-linecap="round" stroke-linejoin="round"/>
</svg>
