<svg width="24" height="24" viewBox="0 0 24 24" fill="none" xmlns="http://www.w3.org/2000/svg">
<path d="M12.2312 14.625C15.2613 14.6172 17.8377 16.0085 18.7847 19.0033C16.8759 20.167 14.6291 20.6152 12.2312 20.6093C9.83339 20.6152 7.58654 20.167 5.67773 19.0033C6.62583 16.0052 9.19787 14.6172 12.2312 14.625Z" stroke="white" stroke-width="1.5" stroke-linecap="square"/>
<path d="M6.8446 13.7735C4.72023 13.768 2.91394 14.7434 2.25 16.8431C2.97469 17.2849 3.76887 17.5796 4.61172 17.7563" stroke="white" stroke-width="1.5" stroke-linecap="square"/>
<path d="M17.6553 13.7735C19.7797 13.768 21.586 14.7434 22.2499 16.8431C21.5252 17.2849 20.731 17.5796 19.8882 17.7563" stroke="white" stroke-width="1.5" stroke-linecap="square"/>
<path d="M16.3483 7.48907C16.3483 9.75258 14.5133 11.5875 12.2498 11.5875C9.9863 11.5875 8.15137 9.75258 8.15137 7.48907C8.15137 5.22556 9.9863 3.39062 12.2498 3.39062C14.5133 3.39062 16.3483 5.22556 16.3483 7.48907Z" stroke="white" stroke-width="1.5" stroke-linecap="square"/>
<path d="M16.7328 6.04937C17.0224 5.9515 17.3326 5.89844 17.6553 5.89844C19.2459 5.89844 20.5353 7.18785 20.5353 8.77842C20.5353 10.369 19.2459 11.6584 17.6553 11.6584C16.8823 11.6584 16.1804 11.3539 15.6631 10.8582" stroke="white" stroke-width="1.5" stroke-linecap="square"/>
<path d="M7.50078 5.97347C7.29007 5.92439 7.07048 5.89844 6.84482 5.89844C5.25425 5.89844 3.96484 7.18785 3.96484 8.77842C3.96484 10.369 5.25425 11.6584 6.84482 11.6584C7.53804 11.6584 8.17406 11.4135 8.67106 11.0055" stroke="white" stroke-width="1.5" stroke-linecap="square"/>
</svg>
