<svg width="16" height="16" viewBox="0 0 16 16" fill="none" xmlns="http://www.w3.org/2000/svg">
<path d="M2 4H3.33333H14" stroke="#757D8A" stroke-linecap="round" stroke-linejoin="round"/>
<path d="M5.33301 4.0026V2.66927C5.33301 2.31565 5.47348 1.97651 5.72353 1.72646C5.97358 1.47641 6.31272 1.33594 6.66634 1.33594H9.33301C9.68663 1.33594 10.0258 1.47641 10.2758 1.72646C10.5259 1.97651 10.6663 2.31565 10.6663 2.66927V4.0026M12.6663 4.0026V13.3359C12.6663 13.6896 12.5259 14.0287 12.2758 14.2787C12.0258 14.5288 11.6866 14.6693 11.333 14.6693H4.66634C4.31272 14.6693 3.97358 14.5288 3.72353 14.2787C3.47348 14.0287 3.33301 13.6896 3.33301 13.3359V4.0026H12.6663Z" stroke="#757D8A" stroke-linecap="round" stroke-linejoin="round"/>
<path d="M6.66699 7.33594V11.3359" stroke="#757D8A" stroke-linecap="round" stroke-linejoin="round"/>
<path d="M9.33301 7.33594V11.3359" stroke="#757D8A" stroke-linecap="round" stroke-linejoin="round"/>
</svg>
