<svg width="24" height="24" viewBox="0 0 24 24" fill="none" xmlns="http://www.w3.org/2000/svg">
<path d="M12 12.5C11.0717 12.5 10.1815 12.8687 9.52513 13.5251C8.86875 14.1815 8.5 15.0717 8.5 16C8.5 16.9283 8.86875 17.8185 9.52513 18.4749C10.1815 19.1313 11.0717 19.5 12 19.5C12.9283 19.5 13.8185 19.1313 14.4749 18.4749C15.1313 17.8185 15.5 16.9283 15.5 16C15.5 15.0717 15.1313 14.1815 14.4749 13.5251C13.8185 12.8687 12.9283 12.5 12 12.5ZM10.5 16C10.5 15.6022 10.658 15.2206 10.9393 14.9393C11.2206 14.658 11.6022 14.5 12 14.5C12.3978 14.5 12.7794 14.658 13.0607 14.9393C13.342 15.2206 13.5 15.6022 13.5 16C13.5 16.3978 13.342 16.7794 13.0607 17.0607C12.7794 17.342 12.3978 17.5 12 17.5C11.6022 17.5 11.2206 17.342 10.9393 17.0607C10.658 16.7794 10.5 16.3978 10.5 16Z" fill="white"/>
<path d="M17.526 5.11325L14.347 0.65625L2.658 9.99425L2.01 9.98725V9.99725H1.5V21.9972H22.5V9.99725H21.538L19.624 4.39825L17.526 5.11325ZM19.425 9.99725H9.397L16.866 7.45125L18.388 6.96425L19.425 9.99725ZM15.55 5.78725L7.84 8.41525L13.946 3.53725L15.55 5.78725ZM3.5 18.1663V13.8263C3.92218 13.6773 4.30565 13.4357 4.62231 13.1192C4.93896 12.8027 5.18077 12.4193 5.33 11.9972H18.67C18.8191 12.4195 19.0609 12.8031 19.3775 13.1197C19.6942 13.4364 20.0777 13.6781 20.5 13.8272V18.1672C20.0777 18.3164 19.6942 18.5581 19.3775 18.8748C19.0609 19.1914 18.8191 19.575 18.67 19.9972H5.332C5.18218 19.5749 4.93996 19.1914 4.62302 18.8746C4.30607 18.5578 3.9224 18.3158 3.5 18.1663Z" fill="white"/>
</svg>
