<svg width="26" height="26" viewBox="0 0 26 26" fill="none" xmlns="http://www.w3.org/2000/svg">
<path d="M22.1358 10H16.8538C16.3818 10 15.9998 9.557 15.9998 9.011V8.99C15.9998 8.444 16.3818 8.001 16.8538 8.001H22.1358C22.6118 8.001 22.9998 8.451 22.9998 9.001C22.9998 9.551 22.6118 10.001 22.1358 10.001V10ZM22.1358 14H16.8538C16.3818 14 15.9998 13.557 15.9998 13.011V12.989C15.9998 12.443 16.3818 12 16.8538 12H22.1358C22.6118 12 22.9998 12.45 22.9998 13C22.9998 13.55 22.6118 14 22.1358 14ZM22.1578 18H18.8308C18.3708 18 17.9998 17.557 17.9998 17.011V16.989C17.9998 16.443 18.3718 16 18.8308 16H22.1578C22.6208 16 22.9998 16.45 22.9998 17C22.9998 17.55 22.6208 18 22.1578 18ZM9.99976 13C8.93889 13 7.92147 12.5786 7.17133 11.8284C6.42118 11.0783 5.99976 10.0609 5.99976 9C5.99976 7.93913 6.42118 6.92172 7.17133 6.17157C7.92147 5.42143 8.93889 5 9.99976 5C11.0606 5 12.078 5.42143 12.8282 6.17157C13.5783 6.92172 13.9998 7.93913 13.9998 9C13.9998 10.0609 13.5783 11.0783 12.8282 11.8284C12.078 12.5786 11.0606 13 9.99976 13ZM3.96976 21.073C3.38676 21.073 2.92176 20.555 3.00976 19.98C3.26984 18.3132 4.11733 16.7944 5.3992 15.6977C6.68106 14.6011 8.3128 13.9989 9.99976 14C11.6865 13.9992 13.318 14.6014 14.5997 15.698C15.8814 16.7947 16.7287 18.3134 16.9888 19.98C17.0788 20.555 16.6128 21.073 16.0308 21.073H3.96976Z" fill="white"/>
</svg>
