<svg width="19" height="22" viewBox="0 0 19 22" fill="none" xmlns="http://www.w3.org/2000/svg">
<path d="M1 19V17C1 15.9391 1.42143 14.9217 2.17157 14.1716C2.92172 13.4214 3.93913 13 5 13H7.5M14.001 19C13.4706 19 12.9619 18.7893 12.5868 18.4142C12.2117 18.0391 12.001 17.5304 12.001 17C12.001 16.4696 12.2117 15.9609 12.5868 15.5858C12.9619 15.2107 13.4706 15 14.001 15M14.001 19C14.5314 19 15.0401 18.7893 15.4152 18.4142C15.7903 18.0391 16.001 17.5304 16.001 17C16.001 16.4696 15.7903 15.9609 15.4152 15.5858C15.0401 15.2107 14.5314 15 14.001 15M14.001 19V20.5M14.001 15V13.5M17.032 15.25L15.733 16M12.27 18L10.97 18.75M10.97 15.25L12.27 16M15.733 18L17.033 18.75M3 5C3 6.06087 3.42143 7.07828 4.17157 7.82843C4.92172 8.57857 5.93913 9 7 9C8.06087 9 9.07828 8.57857 9.82843 7.82843C10.5786 7.07828 11 6.06087 11 5C11 3.93913 10.5786 2.92172 9.82843 2.17157C9.07828 1.42143 8.06087 1 7 1C5.93913 1 4.92172 1.42143 4.17157 2.17157C3.42143 2.92172 3 3.93913 3 5Z" stroke="white" stroke-width="2" stroke-linecap="round" stroke-linejoin="round"/>
</svg>
